<?xml version="1.0" encoding="UTF-8"?>
<svg width="513px" height="336px" viewBox="0 0 513 336" version="1.1" xmlns="http://www.w3.org/2000/svg" xmlns:xlink="http://www.w3.org/1999/xlink">
    <!-- Generator: Sketch 52.5 (67469) - http://www.bohemiancoding.com/sketch -->
    <title>aq</title>
    <desc>Created with Sketch.</desc>
    <g id="menu" stroke="none" stroke-width="1" fill="none" fill-rule="evenodd">
        <g id="aq">
            <path d="M15,0 L498,0 C506.284271,-1.52179594e-15 513,6.71572875 513,15 L513,321 C513,329.284271 506.284271,336 498,336 L15,336 C6.71572875,336 1.01453063e-15,329.284271 0,321 L0,15 C-1.01453063e-15,6.71572875 6.71572875,1.52179594e-15 15,0 Z" id="Path" fill="#3A7DCE"></path>
            <path d="M148.12875,157.71 C145.804219,153.58 145.804219,153.58 145.804219,149.45 C144.682031,149.45 144.441563,149.66 143.800313,149.45 C143.159063,149.31 142.838438,153.3 140.674219,152.53 C140.353594,152.11 142.277344,149.24 140.193281,148.05 C139.552031,147.7 140.353594,145.32 140.032969,144.27 C140.032969,144.27 137.387813,145.53 135.464063,141.19 C134.422031,140.07 133.059375,142.24 133.059375,142.24 C133.059375,142.24 133.700625,143.57 132.658594,143.85 C131.135625,142.87 130.093594,143.43 128.169844,142.1 C126.32625,140.7 128.570625,139.23 124.963594,138.11 C127.368281,132.93 127.368281,133.91 133.139531,131.88 C129.612656,129.78 129.612656,129.78 127.288125,126.7 C123.841406,125.72 122.719219,124.6 119.2725,122.57 C114.623438,117.46 112.298906,107.1 112.298906,99.89 C115.184531,97.44 119.192344,108.15 125.04375,111.23 L133.059375,114.31 C137.708438,116.41 138.910781,118.51 142.3575,120.54 L152.777813,123.62 C157.426875,126.7 159.751406,130.83 163.198125,131.88 C166.965469,131.88 167.686875,129.99 168.889219,129.78 C175.7025,129.5 179.149219,128.73 180.511875,126.98 C181.874531,125.44 185.160938,127.75 194.459063,124.67 L193.256719,120.47 C193.256719,120.47 195.741563,118.72 199.108125,119.49 C198.947813,117.6 198.7875,112.56 202.073906,110.32 C200.07,108.43 201.3525,107.1 201.3525,107.1 C201.3525,107.1 203.196094,105.49 203.436563,104.65 C202.474688,100.1 204.238125,100.03 204.719063,98.7 C205.2,97.37 203.115938,97.86 203.677031,95.97 C204.238125,94.15 207.604688,93.73 208.085625,92.19 C208.486406,90.65 207.12375,89.88 207.203906,89.53 C207.925313,88.13 207.284063,84.63 207.203906,83.3 C213.375938,81.9 215.46,77.35 217.624219,79.17 C218.746406,73.01 219.868594,70.91 226.842188,70.91 C227.804063,69.02 224.357344,67.41 225.72,66.78 C228.044531,66.57 229.727813,66.64 232.533281,69.79 C233.334844,70.77 233.495156,68.39 234.376875,68.11 C235.178438,67.83 237.342656,67.83 237.583125,66.57 C237.983906,65.31 238.384688,63.7 239.587031,61.67 C240.548906,59.92 241.350469,62.3 242.152031,65.59 C247.041563,65.73 258.103125,66.71 262.752188,67.83 C266.198906,68.6 268.523438,66.99 271.809844,66.71 C274.294688,68.88 276.619219,67.27 277.901719,71.96 C279.745313,74.48 282.711094,72.17 283.4325,72.87 C287.28,82.39 300.585938,76.02 301.627969,76.16 C303.231094,76.16 305.395313,80.36 306.677813,80.36 C308.922188,80.01 308.280938,78.68 310.204688,79.17 C309.643594,82.81 313.891875,86.87 313.891875,89.6 C313.891875,89.6 314.933906,90.02 315.895781,89.25 C316.857656,88.48 317.739375,86.45 318.540938,86.45 L323.751094,87.29 C330.003281,89.25 333.209531,89.67 335.614219,90.65 C336.816563,92.47 337.858594,93.45 340.183125,93.1 C342.106875,94.22 340.664063,95.76 341.78625,95.83 C344.190938,94.78 344.912344,93.66 347.236875,94.71 C349.710348,95.8939876 351.720616,97.6983086 353.008125,99.89 C353.008125,100.87 351.805781,105 353.008125,111.23 C353.569219,113.33 353.809688,114.94 356.294531,118.44 C355.653281,122.15 359.500781,128.24 359.500781,129.78 C359.500781,131.88 357.577031,132.93 356.454844,135.03 C361.103906,138.11 356.454844,143.29 354.130313,146.37 C371.524219,149.45 363.428438,155.68 377.295469,152.53 C373.84875,159.81 375.051094,159.18 378.497813,166.46 C371.604375,170.59 378.3375,171.85 373.688438,176.96 C373.447969,177.31 376.493906,181.51 380.742188,181.51 C379.62,189.77 376.093125,186.69 377.295469,199.01 C368.157656,198.87 371.844844,208.32 365.752969,207.34 C366.073594,213.22 369.199688,213.78 367.997344,219.73 C363.428438,220.78 363.428438,220.78 361.103906,223.86 L357.577031,222.81 C356.454844,227.99 354.130313,229.04 357.577031,234.22 L351.885938,234.22 C351.805781,235.97 353.889844,236.46 354.290625,238.35 C354.050156,239.05 347.637656,242.34 342.667969,242.48 C341.385469,245 346.114688,247.73 345.874219,248.99 C340.423594,249.97 338.018906,255.92 338.018906,255.92 C338.018906,255.92 340.824375,256.9 340.343437,258.02 C338.820469,256.97 338.018906,256.9 335.694375,256.9 C334.572187,257.18 331.686562,256.9 329.041406,260.96 C326.075625,261.8 324.632812,261.52 322.388437,264.18 C321.426562,261.59 319.98375,264.18 318.220312,265.16 C316.456875,266.14 314.132344,268.59 313.811719,268.45 C313.811719,267.75 314.85375,265.16 314.85375,265.16 L309.0825,266.21 L308.361094,266.28 C307.960312,266.28 308.040469,263.27 306.918281,263.41 C305.87625,263.48 302.750156,267.26 301.627969,267.33 C300.585937,267.47 300.265312,266.14 299.303438,266.28 C298.421719,266.42 296.578125,270.2 295.936875,270.34 C295.295625,270.41 292.730625,267.96 290.48625,268.31 C279.104062,271.88 277.340625,261.31 275.497031,267.26 C273.092344,266.14 273.573281,266.77 271.168594,267.33 C269.565469,267.68 269.485313,265.51 268.0425,265.58 C265.317188,265.58 265.4775,267.96 263.954531,267.26 C262.752188,262.36 255.297656,263.27 254.57625,261.24 C254.015156,259.07 257.7825,259.14 259.065,257.6 C259.946719,255.5 258.022969,254.73 261.870469,252.7 C266.840156,249.69 263.954531,248.5 264.83625,246.26 C266.439375,243.04 266.439375,242.2 265.156875,239.33 C265.156875,239.33 261.229219,230.09 260.507812,230.09 C258.103125,229.46 258.103125,233.52 254.736563,234.57 C247.843125,236.67 235.499063,229.32 233.415,229.32 C231.49125,229.32 222.433594,231.28 222.754219,227.22 C221.471719,231.14 216.502031,228.13 216.181406,228.13 C211.532344,228.13 213.295781,231.35 210.169688,231.21 C208.807031,230.79 194.539219,230.09 194.539219,230.09 L194.539219,232.19 L185.241094,227.99 L177.225469,225.89 C170.251875,223.86 173.698594,218.68 162.156094,221.83 L162.156094,215.53 L156.304688,215.53 C158.709375,203.21 156.304688,209.37 155.1825,198.03 L150.533437,199.08 C145.964531,193.48 156.945937,194.53 147.086719,190.82 C147.086719,190.82 147.247031,184.66 144.762187,186.62 C144.28125,186.9 145.964531,189.77 145.964531,189.77 C136.666406,188.72 134.341875,186.69 134.341875,178.43 C134.341875,178.43 141.956719,179.34 141.315469,178.43 C139.993992,174.418793 139.240251,170.281302 139.071094,166.11 C138.910781,164.71 146.124844,161.35 144.682031,158.06 C145.643906,157.78 148.208906,157.71 148.208906,157.71" id="Path" fill="#F5F5F5"></path>
            <path d="M460.577812,199.01 C460.207277,199.623266 460.207277,200.356734 460.577812,200.97 C461.379375,200.06 460.738125,199.64 460.577812,199.01 Z" id="Path" stroke="#FFFFFF" stroke-width="2.1" stroke-linecap="round" stroke-linejoin="round"></path>
            <path d="M162.957656,117.46 C162.957656,117.46 161.033906,117.25 161.434687,118.72 C162.075938,117.53 162.8775,117.53 162.957656,117.46 Z M163.358438,113.96 C162.316406,113.96 160.95375,113.82 161.434687,115.36 C162.075938,114.17 163.358438,114.03 163.358438,113.96 Z M170.652656,133.77 C170.652656,133.77 172.335938,133.7 171.935156,135.17 C171.293906,134.05 170.732812,133.84 170.652656,133.77 Z" id="Shape" stroke="#FFFFFF" stroke-width="2" stroke-linejoin="round"></path>
        </g>
    </g>
</svg>