<?xml version="1.0" encoding="UTF-8"?>
<svg width="513px" height="336px" viewBox="0 0 513 336" version="1.1" xmlns="http://www.w3.org/2000/svg" xmlns:xlink="http://www.w3.org/1999/xlink">
    <!-- Generator: Sketch 52.5 (67469) - http://www.bohemiancoding.com/sketch -->
    <title>cy</title>
    <desc>Created with Sketch.</desc>
    <g id="menu" stroke="none" stroke-width="1" fill="none" fill-rule="evenodd">
        <g id="cy">
            <path d="M13,0 L500,0 C507.179702,-1.31888981e-15 513,5.82029825 513,13 L513,323 C513,330.179702 507.179702,336 500,336 L13,336 C5.82029825,336 8.79259876e-16,330.179702 0,323 L0,13 C-8.79259876e-16,5.82029825 5.82029825,1.31888981e-15 13,0 Z" id="Path" fill="#F5F5F5"></path>
            <path d="M246.720938,279.02 C246.658403,278.982019 246.604117,278.934611 246.560625,278.88 L246.480469,278.88 L245.438438,277.9 L242.3925,274.75 L238.464844,270.34 L237.983906,269.71 L233.014219,268.38 L229.327031,266.91 L231.250781,265.02 L237.983906,267.47 L242.953594,268.38 L252.171562,274.33 L249.526406,276.36 C248.585084,277.125974 247.701519,277.944351 246.88125,278.81 L247.442344,278.46 L248.083594,278.88 L246.801094,279.02 L246.720938,279.02 Z M212.574375,270.06 C208.054651,270.024829 203.627472,268.937452 199.749375,266.91 C199.749375,266.91 200.310469,266 201.592969,265.23 C202.875469,264.39 205.119844,263.48 208.807031,263.41 C213.135469,263.41 218.425781,264.74 224.4375,267.19 C220.845443,269.042224 216.745806,270.009843 212.574375,269.99 L212.574375,270.06 Z M193.737656,266.42 C192.936094,266.42 192.134531,266.14 191.653594,265.72 C191.199087,265.235565 190.895393,264.656916 190.771875,264.04 C190.558929,263.261197 190.477911,262.459333 190.531406,261.66 C190.865498,261.556244 191.219084,261.508739 191.573438,261.52 C193.176563,261.52 194.459063,262.71 195.020156,263.9 C195.340781,264.6 195.420938,265.16 195.180469,265.65 C195.020156,266.07 194.378906,266.35 193.737656,266.35 L193.737656,266.42 Z M226.842187,263.06 C215.700469,261.66 210.97125,258.16 208.967344,255.43 C206.883281,252.56 207.364219,249.83 207.364219,249.83 C207.364219,249.83 208.005469,249.69 208.967344,249.69 C212.013281,249.69 219.547969,251.02 226.842187,262.99 L226.842187,263.06 Z M203.997656,261.1 C199.268438,261.1 195.661406,260.4 193.256719,259 C192.228845,258.436007 191.39726,257.637167 190.852031,256.69 C190.680119,256.333206 190.571983,255.955468 190.531406,255.57 C192.359064,254.904679 194.322684,254.571242 196.302656,254.59 C202.081334,254.771079 207.536727,256.964107 211.452188,260.68 C208.726875,260.96 206.242031,261.1 203.997656,261.1 Z M180.992813,260.4 C176.023125,260.4 169.129687,259 164.80125,255.29 C164.80125,255.29 169.530469,254.24 174.740625,254.1 L175.7025,254.1 C180.431719,254.1 184.03875,254.87 186.443438,256.48 C187.245,257.04 187.725938,257.53 187.806094,258.02 C187.88625,258.44 187.645781,258.86 187.164844,259.21 C186.042656,259.91 184.118906,260.33 181.393594,260.33 L180.992813,260.33 L180.992813,260.4 Z M164.721094,253.05 C164.093248,253.039504 163.504291,252.782338 163.117969,252.35 C162.782995,251.932979 162.56348,251.453726 162.476719,250.95 C162.23625,249.97 162.316406,248.99 162.316406,248.92 C162.569024,248.823726 162.842382,248.775982 163.117969,248.78 C163.839375,248.78 164.400469,249.13 164.721094,249.48 C165.208502,249.868916 165.591668,250.346941 165.843281,250.88 C166.003594,251.51 166.08375,252 165.843281,252.42 C165.843281,252.7 165.362344,253.12 164.80125,253.12 L164.721094,253.05 Z M202.314375,252.35 C201.512812,252.35 200.71125,252.07 200.230313,251.65 C199.775806,251.165565 199.472112,250.586916 199.348594,249.97 C199.135648,249.191197 199.05463,248.389333 199.108125,247.59 C199.442216,247.486244 199.795803,247.438739 200.150156,247.45 C201.753281,247.45 203.115937,248.64 203.596875,249.83 C203.9175,250.53 203.997656,251.09 203.837344,251.58 C203.596875,252 203.035781,252.28 202.234219,252.28 L202.314375,252.35 Z M184.03875,251.65 C173.939063,251.37 168.64875,248.85 166.08375,246.75 C164.965839,245.905937 164.041105,244.884604 163.358437,243.74 C162.957656,243.04 162.797344,242.48 162.797344,242.34 C162.797344,242.2 163.759219,242.06 165.202031,242.06 L165.522656,242.06 C168.889219,242.06 175.862812,243.32 183.958594,251.65 L184.03875,251.65 Z M194.94,250.81 C189.170993,250.262309 183.807272,247.957431 179.790469,244.3 C178.311825,242.887174 177.191874,241.217338 176.504062,239.4 C176.504062,239.4 177.465937,239.19 178.90875,239.12 C179.175855,239.111781 179.443208,239.111781 179.710312,239.12 C183.718125,239.19 191.172656,240.8 194.94,250.81 Z M153.25875,247.31 C150.613594,247.31 148.048594,247.1 145.643906,246.61 C141.395625,245.63 139.552031,244.23 138.750469,243.18 C138.422782,242.759563 138.203955,242.281811 138.109219,241.78 C138.083984,241.593984 138.083984,241.406016 138.109219,241.22 C138.109219,241.22 140.914688,240.52 144.842344,240.45 C146.83099,240.405954 148.819362,240.546746 150.773906,240.87 C154.862765,241.622387 158.504817,243.6351 161.033906,246.54 C161.033906,246.54 157.827656,247.38 153.25875,247.38 L153.25875,247.31 Z M172.095469,241.43 C171.345656,241.447432 170.620764,241.194214 170.091563,240.73 C169.637056,240.245565 169.333362,239.666916 169.209844,239.05 C168.889219,237.93 168.969375,236.81 168.969375,236.67 C169.273181,236.550685 169.598891,236.479575 169.93125,236.46 L170.011406,236.46 C171.614531,236.46 172.897031,237.72 173.458125,238.91 C173.77875,239.61 173.77875,240.17 173.618437,240.59 C173.377969,241.08 172.816875,241.36 172.095469,241.36 L172.095469,241.43 Z M157.987969,239.68 C155.281867,239.01001 152.693019,238.020898 150.292969,236.74 C146.766094,234.85 142.3575,231.49 141.876563,226.24 L142.678125,226.17 L142.918594,226.17 C143.960625,226.17 146.124844,226.38 148.77,228.13 C152.136563,230.37 155.1825,234.29 157.987969,239.68 Z M167.205938,239.4 C164.995355,238.521079 162.943181,237.365612 161.114063,235.97 C156.423004,232.434036 152.767833,227.969979 150.453281,222.95 C150.453281,222.95 151.174688,222.6 152.296875,222.53 C152.3503,222.528586 152.403762,222.528586 152.457188,222.53 L152.777813,222.53 C154.380938,222.53 156.705469,223.16 159.270469,225.61 C162.316406,228.41 164.961563,233.03 167.286094,239.4 L167.205938,239.4 Z M143.239219,238.77 C140.113125,238.77 139.071094,237.37 138.750469,236.67 C138.439864,236.005427 138.329477,235.282426 138.429844,234.57 C138.955998,234.468128 139.494134,234.421132 140.032969,234.43 C142.051451,234.374484 143.981949,235.152589 145.243125,236.53 C145.403437,236.81 145.884375,237.51 145.483594,238.14 C145.162969,238.56 144.441563,238.84 143.239219,238.84 L143.239219,238.77 Z M136.425938,231.21 C134.009406,231.23284 131.595301,231.068867 129.211875,230.72 C126.486563,230.3 124.963594,228.27 124.081875,226.59 C123.280313,224.84 122.959688,223.09 122.959688,223.09 C131.45625,223.3 135.544219,225.47 137.387812,227.29 C138.551974,228.336113 139.285072,229.690404 139.471875,231.14 C139.471875,231.14 138.189375,231.28 136.425937,231.28 L136.425938,231.21 Z M145.243125,223.51 C144.55796,222.744444 143.915947,221.950168 143.319375,221.13 C142.277344,219.73 141.395625,218.33 141.395625,217.21 C141.395625,216.02 141.075,213.71 140.914688,212.31 L140.43375,209.16 C140.674219,209.16 145.724063,210.84 145.724063,215.04 C145.724063,219.24 145.243125,223.44 145.243125,223.44 L145.243125,223.51 Z M138.670313,223.09 L138.51,223.09 C136.906875,222.88 134.341875,221.9 131.376094,220.43 C128.169844,218.75 125.444531,217 123.921563,215.53 C122.558906,214.13 121.677188,211.89 121.436719,208.95 C121.276406,206.85 121.436719,205.1 121.436719,204.89 C121.724035,204.823573 122.022115,204.799908 122.318438,204.82 C123.440625,204.82 124.723125,205.24 126.32625,206.22 C127.814346,207.140212 129.208879,208.17069 130.494375,209.3 C133.059375,211.54 135.063281,213.78 135.063281,213.78 C135.30375,214.06 136.666406,216.37 137.86875,218.61 C138.431396,219.638574 138.861531,220.718523 139.15125,221.83 C139.231406,222.25 139.311562,222.53 139.15125,222.81 C139.113298,222.926003 139.027675,223.025702 138.910781,223.09 C138.805259,223.111003 138.695678,223.111003 138.590156,223.09 L138.670313,223.09 Z" id="a" fill="#435125" fill-rule="nonzero"></path>
            <g id="a-link" transform="translate(289.123594, 241.850000) scale(-1, 1) translate(-289.123594, -241.850000) translate(223.395469, 204.400000)" fill="#435125" fill-rule="nonzero">
                <path d="M125.685,74.62 C125.622465,74.5820188 125.568179,74.5346113 125.524688,74.48 L125.444531,74.48 L124.4025,73.5 L121.356563,70.35 L117.428906,65.94 L116.947969,65.31 L111.978281,63.98 L108.291094,62.51 L110.214844,60.62 L116.947969,63.07 L121.917656,63.98 L131.135625,69.93 L128.490469,71.96 C127.549147,72.7259741 126.665581,73.5443514 125.845312,74.41 L126.406406,74.06 L127.047656,74.48 L125.765156,74.62 L125.685,74.62 Z M91.5384375,65.66 C87.0187135,65.624829 82.5915349,64.5374517 78.7134375,62.51 C78.7134375,62.51 79.2745313,61.6 80.5570313,60.83 C81.8395313,59.99 84.0839063,59.08 87.7710938,59.01 C92.0995313,59.01 97.3898438,60.34 103.401563,62.79 C99.8095057,64.6422239 95.7098682,65.6098429 91.5384375,65.59 L91.5384375,65.66 Z M72.7017188,62.02 C71.9001563,62.02 71.0985938,61.74 70.6176563,61.32 C70.1631499,60.8355654 69.8594557,60.2569159 69.7359375,59.64 C69.5229918,58.8611973 69.4419736,58.0593334 69.4954688,57.26 C69.8295602,57.1562444 70.1831463,57.1087391 70.5375,57.12 C72.140625,57.12 73.423125,58.31 73.9842188,59.5 C74.3048438,60.2 74.385,60.76 74.1445313,61.25 C73.9842188,61.67 73.3429688,61.95 72.7017188,61.95 L72.7017188,62.02 Z M105.80625,58.66 C94.6645313,57.26 89.9353125,53.76 87.9314063,51.03 C85.8473437,48.16 86.3282813,45.43 86.3282813,45.43 C86.3282813,45.43 86.9695313,45.29 87.9314063,45.29 C90.9773438,45.29 98.5120313,46.62 105.80625,58.59 L105.80625,58.66 Z M82.9617188,56.7 C78.2325,56.7 74.6254688,56 72.2207813,54.6 C71.1929076,54.0360067 70.361323,53.2371667 69.8160938,52.29 C69.6441816,51.9332057 69.5360457,51.5554679 69.4954688,51.17 C71.3231262,50.5046789 73.2867468,50.1712419 75.2667188,50.19 C81.045396,50.3710792 86.5007893,52.5641071 90.41625,56.28 C87.6909375,56.56 85.2060938,56.7 82.9617188,56.7 Z M59.956875,56 C54.9871875,56 48.09375,54.6 43.7653125,50.89 C43.7653125,50.89 48.4945313,49.84 53.7046875,49.7 L54.6665625,49.7 C59.3957813,49.7 63.0028125,50.47 65.4075,52.08 C66.2090625,52.64 66.69,53.13 66.7701563,53.62 C66.8503125,54.04 66.6098438,54.46 66.1289063,54.81 C65.0067188,55.51 63.0829687,55.93 60.3576563,55.93 L59.956875,55.93 L59.956875,56 Z M43.6851563,48.65 C43.0573101,48.6395042 42.4683539,48.3823381 42.0820313,47.95 C41.7470571,47.5329787 41.5275425,47.0537265 41.4407813,46.55 C41.2003125,45.57 41.2804688,44.59 41.2804688,44.52 C41.5330867,44.423726 41.8064445,44.3759816 42.0820313,44.38 C42.8034375,44.38 43.3645313,44.73 43.6851563,45.08 C44.1725642,45.4689164 44.5557306,45.9469408 44.8073438,46.48 C44.9676563,47.11 45.0478125,47.6 44.8073438,48.02 C44.8073438,48.3 44.3264063,48.72 43.7653125,48.72 L43.6851563,48.65 Z M81.2784375,47.95 C80.476875,47.95 79.6753125,47.67 79.194375,47.25 C78.7398686,46.7655654 78.4361745,46.1869159 78.3126563,45.57 C78.0997105,44.7911973 78.0186924,43.9893334 78.0721875,43.19 C78.406279,43.0862444 78.7598651,43.0387391 79.1142187,43.05 C80.7173437,43.05 82.08,44.24 82.5609375,45.43 C82.8815625,46.13 82.9617187,46.69 82.8014062,47.18 C82.5609375,47.6 81.9998437,47.88 81.1982812,47.88 L81.2784375,47.95 Z M63.0028125,47.25 C52.903125,46.97 47.6128125,44.45 45.0478125,42.35 C43.9299017,41.5059365 43.0051675,40.4846041 42.3225,39.34 C41.9217187,38.64 41.7614062,38.08 41.7614062,37.94 C41.7614062,37.8 42.7232812,37.66 44.1660937,37.66 L44.4867187,37.66 C47.8532812,37.66 54.826875,38.92 62.9226562,47.25 L63.0028125,47.25 Z M73.9040625,46.41 C68.1350553,45.8623088 62.771335,43.5574309 58.7545312,39.9 C57.2758874,38.4871738 56.1559365,36.8173377 55.468125,35 C55.468125,35 56.43,34.79 57.8728125,34.72 C58.1399171,34.7117815 58.4072704,34.7117815 58.674375,34.72 C62.6821875,34.79 70.1367188,36.4 73.9040625,46.41 Z M32.2228125,42.91 C29.5776562,42.91 27.0126562,42.7 24.6079687,42.21 C20.3596875,41.23 18.5160937,39.83 17.7145313,38.78 C17.3868449,38.3595628 17.1680174,37.8818108 17.0732813,37.38 C17.0480466,37.1939837 17.0480466,37.0060163 17.0732813,36.82 C17.0732813,36.82 19.87875,36.12 23.8064063,36.05 C25.7950529,36.0059538 27.7834241,36.1467457 29.7379688,36.47 C33.8268273,37.2223869 37.4688791,39.2350998 39.9979688,42.14 C39.9979688,42.14 36.7917188,42.98 32.2228125,42.98 L32.2228125,42.91 Z M51.0595313,37.03 C50.3097185,37.0474321 49.5848265,36.7942145 49.055625,36.33 C48.6011186,35.8455654 48.2974245,35.2669159 48.1739062,34.65 C47.8532812,33.53 47.9334375,32.41 47.9334375,32.27 C48.2372435,32.1506855 48.5629539,32.0795752 48.8953125,32.06 L48.9754687,32.06 C50.5785937,32.06 51.8610937,33.32 52.4221875,34.51 C52.7428125,35.21 52.7428125,35.77 52.5825,36.19 C52.3420312,36.68 51.7809375,36.96 51.0595312,36.96 L51.0595313,37.03 Z M36.9520313,35.28 C34.2459299,34.61001 31.6570818,33.6208984 29.2570313,32.34 C25.7301563,30.45 21.3215625,27.09 20.840625,21.84 L21.6421875,21.77 L21.8826563,21.77 C22.9246875,21.77 25.0889063,21.98 27.7340625,23.73 C31.100625,25.97 34.1465625,29.89 36.9520313,35.28 Z M46.17,35 C43.9594177,34.1210787 41.907244,32.9656125 40.078125,31.57 C35.3870668,28.0340358 31.7318955,23.5699793 29.4173438,18.55 C29.4173438,18.55 30.13875,18.2 31.2609375,18.13 C31.3143627,18.1285855 31.3678248,18.1285855 31.42125,18.13 L31.741875,18.13 C33.345,18.13 35.6695313,18.76 38.2345312,21.21 C41.2804688,24.01 43.925625,28.63 46.2501562,35 L46.17,35 Z M22.2032812,34.37 C19.0771875,34.37 18.0351563,32.97 17.7145313,32.27 C17.4039267,31.6054273 17.2935398,30.8824258 17.3939062,30.17 C17.9200602,30.0681276 18.4581966,30.0211324 18.9970312,30.03 C21.0155133,29.974484 22.9460115,30.7525885 24.2071875,32.13 C24.3675,32.41 24.8484375,33.11 24.4476563,33.74 C24.1270313,34.16 23.405625,34.44 22.2032812,34.44 L22.2032812,34.37 Z M15.39,26.81 C12.9734686,26.8328397 10.5593638,26.6688667 8.1759375,26.32 C5.450625,25.9 3.92765625,23.87 3.0459375,22.19 C2.244375,20.44 1.92375,18.69 1.92375,18.69 C10.4203125,18.9 14.5082812,21.07 16.351875,22.89 C17.5160366,23.9361129 18.2491346,25.290404 18.4359375,26.74 C18.4359375,26.74 17.1534375,26.88 15.39,26.88 L15.39,26.81 Z M24.2071875,19.11 C23.5220222,18.3444445 22.8800099,17.550168 22.2834375,16.73 C21.2414063,15.33 20.3596875,13.93 20.3596875,12.81 C20.3596875,11.62 20.0390625,9.31 19.87875,7.91 L19.3978125,4.76 C19.6382813,4.76 24.688125,6.44 24.688125,10.64 C24.688125,14.84 24.2071875,19.04 24.2071875,19.04 L24.2071875,19.11 Z M17.634375,18.69 L17.4740625,18.69 C15.8709375,18.48 13.3059375,17.5 10.3401563,16.03 C7.13390625,14.35 4.40859375,12.6 2.885625,11.13 C1.52296875,9.73 0.64125,7.49 0.40078125,4.55 C0.24046875,2.45 0.40078125,0.7 0.40078125,0.49 C0.688097041,0.423573145 0.986177723,0.399908402 1.2825,0.42 C2.4046875,0.42 3.6871875,0.84 5.2903125,1.82 C6.77840824,2.74021213 8.17294108,3.77069014 9.4584375,4.9 C12.0234375,7.14 14.0273437,9.38 14.0273437,9.38 C14.2678125,9.66 15.6304687,11.97 16.8328125,14.21 C17.395458,15.2385741 17.8255931,16.3185233 18.1153125,17.43 C18.1954687,17.85 18.275625,18.13 18.1153125,18.41 C18.0773608,18.5260032 17.9917379,18.6257018 17.8748437,18.69 C17.7693218,18.7110033 17.6597407,18.7110033 17.5542187,18.69 L17.634375,18.69 Z" id="a"></path>
            </g>
            <polygon id="Path" fill="#D47600" points="416.010937 53.48 414.568125 53.97 413.926875 54.18 412.163437 54.11 410.4 54.81 407.354062 56.63 407.273906 56.7 406.071562 56.98 405.029531 56.56 404.468437 56.84 404.227969 57.89 403.666875 58.66 402.945469 59.08 400.540781 59.29 398.536875 60.27 395.811562 59.57 394.609219 60.06 391.964062 62.16 390.601406 62.65 390.200625 62.65 388.357031 62.58 387.635625 62.79 386.513438 63.7 384.429375 63.84 383.707969 64.26 382.665937 66.08 381.54375 67.2 380.9025 67.27 380.26125 67.06 379.700156 67.13 379.459687 68.32 378.97875 68.81 377.535937 69.23 376.41375 70.07 375.371719 70.49 373.768594 70.49 372.405937 71.19 369.921094 71.33 368.879062 72.17 368.638594 72.38 368.157656 72.59 367.356094 73.01 367.195781 73.15 366.233906 73.01 365.111719 73.36 364.630781 72.8 363.829219 73.15 362.867344 73.22 361.584844 72.73 360.542812 72.31 359.821406 72.45 359.580937 73.5 359.580937 73.64 358.779375 74.48 357.416719 75.25 357.256406 75.46 355.653281 77.28 352.607344 80.08 350.042344 81.2 347.397187 81.9 345.553594 83.23 340.744219 85.33 332.969062 88.69 331.365937 89.11 329.121562 89.39 325.11375 90.72 321.586875 91.63 321.346406 91.7 320.705156 91.91 315.655312 93.24 313.330781 92.96 311.968125 93.45 308.361094 93.1 305.87625 93.1 304.273125 93.38 301.307344 94.64 296.2575 96.74 294.654375 98.14 292.089375 99.26 289.043437 100.1 289.043437 98.98 288.001406 99.26 287.199844 99.47 284.795156 99.75 283.4325 99.75 282.550781 99.54 282.390469 99.54 277.420781 101.01 271.809844 101.5 269.004375 102.27 266.920312 102.27 265.637812 102.62 263.072812 102.9 262.110937 102.69 261.950625 102.62 254.415937 102.9 250.969219 102.55 249.366094 102.9 246.560625 102.06 242.552812 101.64 241.590937 101.43 239.506875 100.87 238.545 101.36 237.743437 101.43 236.140312 100.87 235.499062 100.87 234.05625 101.29 233.254687 101.15 232.453125 100.59 230.769844 100.38 229.647656 99.61 223.635937 100.31 222.032812 99.89 216.502031 98.49 215.700469 98.49 214.578281 99.19 212.975156 99.75 211.452188 100.03 209.528438 100.1 207.284063 99.61 205.039688 98.63 204.157969 98.42 202.234219 98.63 201.673125 98.63 198.14625 97.02 193.6575 94.57 190.611562 93.24 189.409219 93.1 189.248906 93.59 189.81 95.13 190.050469 96.74 190.050469 98.14 189.970313 99.05 190.210781 99.82 191.332969 100.94 191.813906 101.99 192.134531 104.93 192.134531 107.94 191.573438 112.7 191.413125 113.4 190.771875 115.92 190.210781 118.23 187.88625 124.32 187.325156 125.02 185.722031 125.93 182.275313 128.03 179.710313 129.29 178.90875 129.57 176.824688 129.71 175.542187 129.71 173.939062 128.94 172.335937 128.59 170.251875 127.26 168.0075 126.84 165.4425 125.58 164.80125 124.88 163.438594 124.74 161.514844 124.25 160.793437 124.04 160.3125 123.97 157.907812 123.9 155.583281 122.99 154.380937 122.71 152.777812 122.71 151.094531 123.41 150.212812 123.69 149.090625 123.34 148.289062 123.34 147.4875 124.53 147.327187 124.74 146.685937 125.02 145.323281 125.02 144.682031 125.23 143.800312 125.58 142.99875 125.86 142.597969 126 142.3575 126 141.956719 126.14 141.475781 126.14 140.513906 125.72 140.032969 125.51 139.231406 125.37 138.830625 125.58 138.750469 126.91 138.349687 127.68 137.067187 128.66 135.784687 129.64 134.983125 130.76 132.578437 135.45 131.055469 137.34 130.654687 137.83 129.051562 139.3 127.688906 140.21 124.562812 142.31 121.597031 143.36 119.032031 143.78 117.749531 143.78 115.344844 143.5 113.260781 142.94 110.856094 141.68 108.37125 139.86 104.603906 136.71 104.122969 136.43 103.962656 136.36 102.840469 135.66 101.95875 135.66 101.638125 136.22 101.397656 136.92 101.237344 137.55 100.836563 141.05 100.836563 141.26 101.077031 142.73 103.962656 146.23 104.764219 148.05 104.924531 148.26 105.485625 149.1 105.966563 149.8 107.008594 152.32 106.287188 153.72 106.607813 154.7 105.80625 155.26 105.645938 156.1 108.130781 158.9 108.691875 160.09 108.130781 161.77 107.08875 162.75 106.848281 162.96 107.008594 163.66 108.130781 164.64 110.134688 166.18 111.176719 168.42 111.978281 169.12 112.940156 168.91 113.421094 169.26 114.222656 169.26 115.024219 169.96 115.505156 170.1 116.306719 170.45 116.947969 171.15 117.028125 173.39 118.230469 176.05 118.230469 177.8 119.032031 178.85 119.192344 179.69 118.791562 182 119.753437 182.7 120.715312 182.56 121.356562 182.63 122.398594 183.4 123.681094 185.08 124.963594 184.94 125.765156 185.22 129.5325 188.23 130.334062 188.65 131.055469 188.93 131.857031 189.63 132.979219 188.93 133.139531 188.93 134.422031 188.79 134.983125 189.14 136.105312 189.77 137.467969 189.77 140.674219 190.61 141.956719 190.89 144.682031 192.36 145.884375 192.99 146.525625 193.48 147.4875 194.18 149.250937 194.88 150.854062 195.16 151.655625 195.3 152.377031 195.51 155.743594 196.7 157.587187 197.05 159.190312 197.61 160.472812 197.96 161.434687 197.96 162.717187 197.05 163.919531 197.05 164.961562 197.19 166.003594 197.05 167.606719 196.21 167.847187 195.79 168.969375 195.37 172.816875 194.95 173.939062 195.23 176.824687 194.18 178.748437 194.6 180.351562 194.11 184.118906 194.81 185.080781 195.44 186.202969 196.49 187.565625 196.49 187.004531 197.26 188.607656 198.8 190.130625 200.69 190.210781 200.97 191.252812 203.7 192.054375 204.68 192.615469 206.01 192.615469 206.85 191.813906 207.48 191.653594 207.76 191.653594 207.9 191.813906 208.25 192.134531 208.11 192.695625 207.83 193.497187 207.69 194.779687 207.83 195.661406 207.9 197.024062 207.34 197.985937 206.92 199.42875 207.48 201.031875 207.48 201.753281 207.69 203.677031 208.46 204.638906 208.53 204.959531 208.32 205.2 207.9 205.119844 207.34 204.318281 206.57 202.715156 204.89 202.073906 204.05 201.592969 202.86 201.432656 201.32 201.272344 200.27 201.512812 198.87 201.913594 198.38 202.234219 197.26 202.314375 196.98 203.27625 195.93 205.680937 194.53 208.245937 192.57 210.249844 191.38 212.333906 190.61 212.333906 190.4 212.654531 190.47 217.944844 188.86 220.349531 188.51 236.380781 189.49 236.941875 189.35 237.502969 188.02 237.743437 187.81 237.983906 187.67 239.747344 186.97 240.548906 186.83 242.793281 187.32 243.755156 187.53 245.278125 186.83 246.320156 186.83 248.484375 185.78 249.847031 185.78 250.408125 185.64 253.053281 183.96 255.538125 183.33 256.179375 183.05 256.419844 182.91 259.065 181.72 260.668125 180.6 262.110937 179.9 263.714062 179.62 267.721875 179.34 268.603594 178.15 270.367031 177.94 271.409063 176.89 272.611406 176.47 273.493125 175.35 274.294688 174.44 275.256563 173.95 278.542969 173.74 282.390469 174.16 282.951563 173.88 283.753125 171.15 284.715 170.66 287.119688 167.51 287.119688 166.39 287.199844 165.41 287.600625 164.01 287.360156 161.63 287.680781 159.11 289.20375 155.96 290.566406 154.7 292.730625 153.37 293.852812 152.95 295.455937 152.74 295.61625 152.74 296.017031 152.6 303.391406 152.6 305.235 152.53 309.803906 153.23 310.124531 153.23 311.6475 153.72 313.410937 154.91 315.334687 156.52 315.655312 156.8 316.857656 157.29 317.258437 157.43 318.220312 157.29 319.663125 156.59 320.785312 155.89 322.228125 155.19 322.228125 155.05 323.109844 154 323.430469 153.51 326.316094 152.53 329.682656 152.39 330.083437 152.18 330.24375 152.18 331.125469 151.2 331.927031 151.2 334.011094 151.9 335.37375 151.62 336.495937 151.97 337.377656 151.9 338.980781 151.69 340.824375 152.81 341.866406 152.95 345.473437 154.77 345.794062 154.77 345.954375 154.84 346.355156 154.7 346.996406 154.56 347.076562 154.56 347.156719 154.63 347.637656 155.12 348.19875 155.19 348.84 154.49 348.599531 154.07 348.519375 153.93 347.156719 153.72 346.034531 151.97 347.156719 150.92 345.393281 149.1 345.072656 148.75 345.072656 148.68 344.431406 147.84 341.385469 143.78 337.377656 140.98 336.015 140.07 335.534062 139.72 333.369844 137.83 331.846875 136.08 331.686562 135.73 331.365937 135.1 330.484219 133.42 328.881094 132.37 327.598594 131.11 324.873281 127.89 324.4725 127.4 323.83125 127.05 322.468594 127.05 322.388437 126.91 322.308281 126.91 322.308281 126.84 322.949531 126.28 323.751094 126.14 323.991562 125.51 322.628906 122.08 322.628906 121.94 322.54875 120.89 323.590781 115.92 323.751094 115.29 325.674844 112 326.797031 111.16 328.079531 108.99 329.201719 107.59 330.24375 106.68 330.404062 106.61 332.247656 105.63 333.850781 105.42 335.37375 105.21 338.018906 105.91 340.423594 105.91 340.984687 105.84 342.106875 105.7 343.950469 105.21 344.832187 104.72 345.313125 104.16 346.275 101.36 346.595625 100.45 347.156719 99.47 350.603437 96.04 353.168437 93.94 358.939687 90.3 361.745156 88.83 363.187969 88.06 376.093125 83.02 379.459687 80.08 381.223125 78.54 384.269062 76.72 387.876094 75.39 391.082344 73.29 391.723594 72.52 392.525156 70.07 393.326719 69.93 393.887812 68.74 394.128281 68.39 396.613125 66.85 396.93375 66.71 406.792969 62.37 408.235781 62.58 409.037344 61.53 411.842812 61.11 412.403906 61.11 413.125312 60.76 413.686406 59.85 413.686406 59.64 413.766562 57.26 414.407812 56.63 414.728437 55.09 415.049062 54.67 415.369687 54.32 416.17125 53.83 416.010937 53.55"></polygon>
        </g>
    </g>
</svg>