<?xml version="1.0" encoding="UTF-8"?>
<svg width="513px" height="336px" viewBox="0 0 513 336" version="1.1" xmlns="http://www.w3.org/2000/svg" xmlns:xlink="http://www.w3.org/1999/xlink">
    <!-- Generator: Sketch 52.5 (67469) - http://www.bohemiancoding.com/sketch -->
    <title>gf</title>
    <desc>Created with Sketch.</desc>
    <g id="menu" stroke="none" stroke-width="1" fill="none" fill-rule="evenodd">
        <g id="gf">
            <path d="M13.0387481,1.79995284e-13 L500,-1.36424205e-12 C507.179702,-1.36556094e-12 513,5.82029825 513,13 L513,323 C513,330.179702 507.179702,336 500,336 L13.9613671,336 C6.79677022,336 0.982747784,330.203255 0.961424674,323.03869 L0.0388056259,13.0386903 C0.0174375606,5.85902035 5.8203878,0.0214256401 13.0000577,5.75747311e-05 C13.0129545,1.91915984e-05 13.0258513,1.77683872e-13 13.0387481,1.77635684e-13 Z" id="Path" fill="#078930"></path>
            <path d="M7.73954112,5.06917313 L504.587998,330.490385 C505.97402,331.398189 506.361693,333.257702 505.453889,334.643725 C504.899561,335.490065 503.95599,336 502.944273,336 L13,336 C5.82029825,336 8.79259876e-16,330.179702 0,323 L-8.8817842e-16,9.25186538 C-1.2263553e-15,6.49044163 2.23857625,4.25186538 5,4.25186538 C5.97326339,4.25186538 6.92536887,4.53591412 7.73954112,5.06917313 Z" id="Path" fill="#FCDD09"></path>
            <polygon id="Path" fill="#DA121A" points="235.1575 156.330323 221.73125 119 256.88875 142.071774 292.04625 119.001129 282.16125 146.478387 278.62 156.331452 313.7775 179.402097 270.315 179.402097 256.88875 216.73129 243.4625 179.400968 231.6725 179.400968 200 179.400968"></polygon>
        </g>
    </g>
</svg>