<?xml version="1.0" encoding="UTF-8"?>
<svg width="513px" height="336px" viewBox="0 0 513 336" version="1.1" xmlns="http://www.w3.org/2000/svg" xmlns:xlink="http://www.w3.org/1999/xlink">
    <!-- Generator: Sketch 52.5 (67469) - http://www.bohemiancoding.com/sketch -->
    <title>sh</title>
    <desc>Created with Sketch.</desc>
    <g id="menu" stroke="none" stroke-width="1" fill="none" fill-rule="evenodd">
        <g id="sh">
            <path d="M513,323 L513,13 C513,5.82029825 507.179702,-1.31888981e-15 500,0 L13,0 C5.82029825,1.31888981e-15 -8.79259876e-16,5.82029825 0,13 L0,323 C8.79259876e-16,330.179702 5.82029825,336 13,336 L500,336 C507.179702,336 513,330.179702 513,323 Z" id="Path" fill="#000066"></path>
            <polygon id="Path" fill="#FFFFFF" points="0 51.31 60.91875 51.31 0 18.76 0 0 34.8679688 0 120.154219 45.36 120.154219 0 168.167813 0 168.167813 45.36 253.29375 0 288.5625 0 288.5625 18.76 227.323125 51.31 288.5625 51.31 288.5625 102.69 227.323125 102.69 288.5625 135.31 288.5625 154 253.29375 154 168.0075 108.71 168.0075 154 120.234375 154 120.234375 108.71 34.7878125 154 0 154 0 135.31 60.91875 102.69 0 102.69"></polygon>
            <path d="M265.878281,0 L169.530469,51.38 L192.615469,51.38 L288.5625,0 L265.878281,0 Z M288.5625,154 L192.535312,102.69 L215.620312,102.69 L288.482344,141.82 L288.482344,154 L288.5625,154 Z M96.508125,51.38 L0,0 L0,12.25 L73.2628125,51.38 L96.508125,51.38 Z M96.2676563,102.69 L0,154 L23.0048437,154 L119.432812,102.69 L96.1875,102.69 L96.2676563,102.69 Z" id="Shape" fill="#CE1126" fill-rule="nonzero"></path>
            <polygon id="Path" fill="#CE1126" points="0 62.02 130.334062 62.02 130.334062 0 158.549063 0 158.549063 62.02 288.5625 62.02 288.5625 92.12 158.549063 92.12 158.549063 154 130.334063 154 130.334063 92.05 0 92.05 0 61.95"></polygon>
            <path d="M482.728303,186.254152 C482.728303,237.447399 473.378782,292.723543 397.144224,319.105339 C321.269264,292.723543 311.919743,237.447399 311.560146,186.254152 L482.728303,186.254152 Z" id="Path" stroke="#FFFFFF" stroke-width="4.93509501" fill="#8FC5FF"></path>
            <path d="M397.144224,318.79127 C426.038841,309.949726 450.135652,292.038275 464.748454,268.54023 L457.556515,268.54023 C455.398933,268.226161 384.55833,262.25885 375.928003,259.11816 C368.736064,256.919677 340.6875,261.316643 327.742009,265.39954 C341.979138,290.447155 366.898071,309.617507 397.144224,318.79127 Z" id="Path" stroke="#000000" stroke-width="4.93509501" fill="#366CC9"></path>
            <path d="M343.923873,287.38437 L348.239037,287.38437 C349.317827,287.38437 349.317827,287.38437 349.677424,286.442163 C350.037021,285.499956 351.115812,285.814025 351.835006,286.128094 C352.5542,286.442163 353.992588,286.128094 354.711782,285.499956 C355.430976,284.871818 355.430976,284.871818 356.15017,285.499956 C356.869364,286.128094 357.228961,285.814025 357.948155,285.499956 C358.307752,285.499956 359.74614,284.871818 360.105737,283.929611 C360.465333,282.987404 361.544124,282.673335 361.903721,283.301473 C362.263318,283.929611 362.982512,283.929611 363.701706,283.929611 C364.4209,283.929611 364.4209,284.24368 364.4209,285.185887 C364.4209,285.814025 364.4209,286.128094 366.218885,284.871818 C367.657273,286.128094 368.01687,285.499956 368.01687,284.24368 C368.01687,282.987404 368.01687,277.9623 367.297676,277.648231 C366.578482,277.334162 366.218885,275.135679 365.859288,273.565334 C365.859288,270.424644 365.859288,270.424644 362.263318,268.854299 C362.263318,267.912092 361.544124,267.598023 358.667349,267.598023 C359.026946,267.283954 358.667349,266.341747 357.948155,266.027678 C357.228961,265.713609 357.228961,265.39954 357.948155,264.143264 C358.667349,264.143264 360.105737,264.143264 360.465333,263.201057 C361.184527,262.572919 363.342109,262.572919 364.780497,263.201057 C366.218885,263.829195 367.657273,263.829195 370.174452,263.201057 L374.489615,261.316643 C376.2876,260.374436 376.647197,260.060367 376.647197,258.804091 C376.647197,255.663401 375.568406,252.522711 374.849212,250.952366 C373.770421,249.382021 373.770421,247.811676 372.332033,244.985055 C370.893646,242.472503 370.893646,241.844365 369.455258,240.27402 C368.736064,239.645882 368.376467,239.331813 368.376467,238.389606 C368.262937,237.17946 367.618821,236.054328 366.578482,235.248916 C363.701706,233.050433 362.982512,225.826846 361.544124,220.487673 C360.82493,217.346983 361.544124,210.123396 360.105737,208.86712 C357.588558,207.296775 356.509767,207.610844 354.711782,206.982706 C353.273394,205.412361 352.913797,202.58574 351.475409,199.759119 C349.677424,200.073188 348.598634,201.643533 347.519843,202.271671 C346.441052,202.899809 346.081455,202.899809 346.081455,204.470154 C346.081455,205.72643 345.002664,207.610844 343.564276,210.123396 C342.125888,212.635948 338.889515,211.693741 336.372337,215.1485 C331.337979,209.809327 331.337979,208.238982 330.978382,206.668637 C330.978382,205.098292 329.899591,204.784223 327.022815,202.58574 L327.022815,197.874705 C324.505637,196.30436 323.067249,196.618429 321.988458,197.874705 C320.909667,198.816912 320.190473,200.387257 318.392488,201.015395 C317.673294,202.271671 314.796518,204.784223 312.638937,208.238982 C314.796518,236.505192 321.988458,264.771402 343.923873,287.38437 Z" id="Path" stroke="#000000" stroke-width="0.5" fill="#5D3100"></path>
            <path d="M482.728303,186.254152 C482.728303,166.781874 481.649512,147.937734 482.009109,131.606146 C454.957744,122.443635 426.15725,117.860471 397.144224,118.101179 C378.085585,118.101179 340.6875,120.613731 312.27934,131.606146 C312.998534,147.937734 311.560146,166.781874 311.560146,186.254152 L482.728303,186.254152 Z" id="Path" stroke="#FFFFFF" stroke-width="4.93509501" fill="#FFFF00"></path>
            <path d="M316.296562,208.53 C317.258437,209.86 318.941719,212.03 319.102031,213.29 C319.743281,212.1 320.304375,211.61 320.384531,210.84 C320.464688,210.07 321.586875,208.74 321.186094,207.9 C320.785313,207.06 320.544844,206.5 321.506719,207.06 C322.54875,207.69 322.308281,208.67 322.147969,210.14 C321.506719,214.13 319.663125,214.9 319.3425,217.63 C322.067813,223.23 320.063906,225.33 323.029688,230.93 C323.510625,231.14 324.712969,230.72 325.11375,230.79 C326.716875,229.81 327.919219,230.09 330.163594,230.58 C332.407969,230.93 333.610313,232.33 333.610313,233.59 C333.610313,234.85 333.610313,235.13 334.09125,235.83 C334.572188,236.53 335.453906,237.72 335.293594,238.56 C335.053125,239.4 335.453906,239.89 335.774531,240.24 C336.095156,240.59 335.614219,241.64 335.37375,242.13 C335.133281,242.62 335.213438,243.46 336.335625,244.65 C337.457813,245.91 340.022813,251.02 340.022813,254.03 C340.022813,257.11 340.263281,258.51 341.625938,259.07 C343.06875,259.63 343.469531,260.12 343.309219,261.38 C343.148906,262.64 343.950469,269.5 344.110781,270.55 C344.271094,271.6 344.832188,271.39 345.393281,271.95 C345.954375,272.51 346.275,273.14 348.19875,273.14 C350.1225,273.14 351.885938,272.93 353.008125,273.14 C354.771563,275.17 355.813594,277.9 356.214375,279.65 C356.615156,281.4 356.535,283.71 357.17625,283.71 C357.8175,283.71 358.45875,283.71 358.298438,281.61 C358.138125,279.51 357.897656,279.23 357.096094,278.11 C356.214375,277.06 355.733438,276.57 356.214375,275.94 C356.695313,275.31 356.775469,274.26 356.615156,273.42 C356.454844,272.58 356.134219,271.32 357.737344,273 L360.222188,275.59 C360.703125,276.08 360.863438,277.27 360.783281,278.25 C360.703125,279.23 360.863438,279.65 361.584844,279.09 C362.226094,278.6 363.027656,279.44 362.626875,280.49 C362.226094,281.54 362.787188,282.24 363.909375,282.59 C365.031563,282.94 365.5125,283.15 365.752969,283.85 C365.993438,284.55 366.955313,284.9 366.955313,283.43 C366.955313,282.03 366.314063,278.88 365.833125,277.9 C365.352188,276.92 365.031563,274.82 364.87125,273.56 C364.710938,272.3 364.550625,272.02 363.909375,271.81 C363.268125,271.6 362.626875,271.11 362.546719,270.55 C362.466563,269.99 361.905469,269.78 361.504688,269.78 C361.103906,269.78 360.703125,269.5 360.462656,269.08 C360.222188,268.66 359.981719,268.66 359.500781,268.59 C359.019844,268.52 358.298438,268.8 358.057969,268.17 C357.8175,267.54 357.496875,266.56 357.015938,266.07 C356.535,265.58 356.214375,265.37 356.134219,263.48 C356.134219,261.66 356.054063,261.38 355.332656,260.75 C354.61125,260.12 353.569219,258.37 353.088281,257.67 C352.6875,256.97 352.206563,256.2 352.206563,257.74 C352.206563,259.28 352.206563,260.12 353.32875,260.68 C354.450938,261.24 354.691406,261.24 354.210469,262.08 C353.729531,262.92 354.210469,263.48 354.450938,264.04 C354.691406,264.6 355.012031,265.16 354.450938,265.72 C353.889844,266.28 353.32875,266.14 353.408906,265.23 C353.425133,264.29602 353.147902,263.376023 352.607344,262.57 C352.206563,261.87 351.805781,261.31 351.244688,261.73 C350.683594,262.15 350.202656,261.66 350.603438,261.31 C351.004219,260.96 350.843906,260.75 350.603438,260.54 C350.362969,260.33 350.202656,260.05 350.683594,259.56 C351.164531,259.07 351.164531,258.86 350.843906,257.67 C350.603438,256.55 348.519375,250.81 347.637656,249.48 C346.755938,248.15 346.836094,247.24 347.958281,248.5 C349.080469,249.76 350.202656,250.95 350.362969,252 C350.362969,253.12 350.683594,253.75 351.084375,254.1 C351.485156,254.45 351.725625,254.38 351.885938,253.47 C352.04625,252.56 352.847813,252.91 351.565313,251.23 C350.202656,249.48 347.797969,246.61 346.836094,241.43 C345.874219,236.25 345.553594,232.96 344.591719,231.56 C343.71,230.16 343.389375,229.81 343.309219,228.55 C343.229063,227.29 343.309219,225.89 342.667969,224.91 C342.026719,223.93 341.545781,223.79 341.465625,225.26 C341.385469,226.66 341.465625,230.02 342.026719,230.58 C342.587813,231.14 342.187031,232.61 342.026719,233.38 C341.866406,234.15 340.50375,235.06 343.629844,236.67 C344.832188,237.37 344.591719,238.21 344.431406,238.77 C344.271094,239.4 344.030625,239.33 343.389375,238.42 C342.748125,237.51 342.106875,236.74 341.465625,236.32 C340.824375,235.9 340.664063,235.48 340.824375,234.29 C340.984688,233.1 341.145,232.33 340.824375,231.98 C340.423594,231.56 340.263281,231.84 340.022813,232.54 C339.8625,233.17 339.702188,234.99 339.22125,235.48 C338.740313,235.97 338.740313,235.62 338.419688,234.57 C338.099063,233.52 338.58,231.84 339.22125,230.02 C339.8625,228.2 340.263281,226.17 339.702188,223.72 C339.141094,221.27 339.381563,220.5 337.2975,218.47 C335.133281,216.44 332.648438,214.48 331.686563,211.96 C330.644531,209.44 330.404063,207.2 329.281875,206.08 C328.248713,204.908009 327.003248,203.891286 325.594688,203.07 L325.594688,199.29 C325.594688,198.38 325.11375,197.89 323.911406,198.03 C322.709063,198.17 321.9075,199.08 321.186094,200.27 C320.384531,201.53 319.903594,200.97 318.781406,203.07 C317.659219,205.17 316.376719,206.22 316.376719,208.53 L316.296562,208.53 Z" id="Path" fill="#CF6200"></path>
            <path d="M323.029687,232.4 C323.83125,232.89 324.552656,233.1 325.674844,232.61 C326.797031,232.12 328.079531,230.72 329.682656,232.12 C331.125469,233.52 331.927031,235.83 331.927031,237.58 C331.927031,239.4 331.927031,242.76 334.331719,244.58 C336.65625,246.47 337.858594,248.43 337.93875,250.88 C338.156215,253.312922 338.612102,255.725087 339.301406,258.09 C339.622031,259.07 340.263281,260.19 340.984687,260.89 C341.706094,261.59 342.347344,263.41 342.4275,265.37 C342.507656,267.33 342.106875,268.66 342.4275,269.64 C342.748125,270.62 342.4275,271.46 341.625937,271.04 C340.824375,270.62 340.583906,270.27 340.022812,269.43 C339.461719,268.59 339.060937,268.73 339.541875,269.99 C340.022812,271.25 341.385469,272.37 342.587812,272.37 C343.790156,272.37 344.190937,272.51 344.9925,273.21 C345.713906,273.84 345.794062,274.19 347.076562,274.19 C348.359062,274.19 348.599531,274.19 349.801875,274.47 C351.004219,274.75 351.004219,274.68 351.645469,274.47 C352.286719,274.26 353.008125,274.82 353.408906,275.87 C353.809687,276.92 355.012031,279.86 355.012031,280.7 C355.012031,281.54 355.012031,282.31 355.653281,283.15 C356.294531,283.99 356.134219,284.76 355.412812,284.27 C354.691406,283.78 354.61125,283.92 354.130312,284.06 C353.649375,284.2 353.168437,283.85 352.447031,283.43 C351.645469,283.08 352.126406,283.15 351.405,282.17 C350.683594,281.19 350.202656,280.84 350.202656,281.61 C350.202656,282.38 350.042344,283.22 349.48125,282.8 C348.920156,282.38 348.679687,282.38 348.19875,282.8 C347.717812,283.22 347.5575,283.5 346.996406,282.73 C346.435312,281.96 345.794062,281.89 345.232969,281.75 C344.671875,281.61 344.671875,281.61 344.431406,280.84 C344.110781,280.14 343.229062,279.93 342.507656,279.93 C341.78625,279.93 341.385469,279.65 341.305312,279.16 C341.225156,278.67 340.744219,278.32 340.343437,278.11 C339.942656,277.9 340.183125,277.27 340.102969,276.71 C340.022812,276.15 339.461719,276.36 339.060937,276.22 C338.660156,276.08 338.419687,276.15 338.419687,275.31 C338.419687,274.47 338.018906,274.26 337.778437,273.7 C337.457812,273.07 337.778437,272.51 337.93875,271.88 C338.099062,271.18 338.018906,270.83 337.457812,270.27 C336.896719,269.71 337.377656,269.08 335.854687,267.96 C334.331719,266.84 333.610312,267.82 333.129375,265.16 C332.728594,262.36 331.766719,256.83 330.885,255.99 C330.003281,255.15 329.522344,254.38 328.640625,254.17 C327.758906,253.96 327.277969,254.1 327.197812,252.56 C327.117656,251.02 326.556562,249.06 325.434375,248.08 L323.270156,246.33 C322.709062,245.98 322.468594,245.21 323.270156,243.81 C324.071719,242.41 323.751094,240.52 323.670937,239.61 C323.510625,238.77 323.270156,237.58 323.430469,236.6 C323.590781,235.62 323.510625,234.43 323.270156,233.8 C323.029687,233.17 322.628906,232.96 323.109844,232.4 L323.029687,232.4 Z M345.553594,209.3 C344.324885,210.693619 342.866188,211.92031 341.225156,212.94 C339.461719,214.06 337.217344,214.9 338.499844,216.72 C339.702187,218.61 340.744219,218.82 340.904531,220.22 C341.225156,221.62 341.625937,222.88 342.828281,223.16 C344.110781,223.51 344.591719,223.3 344.591719,225.54 C344.591719,227.78 344.591719,228.76 345.713906,229.6 C346.836094,230.44 346.675781,231.35 347.156719,233.38 C347.717812,235.48 347.717812,239.96 349.160625,242.97 C350.603437,245.98 354.050156,251.79 353.649375,252.98 C353.248594,254.17 352.847812,255.08 354.290625,256.48 C355.813594,257.88 356.775469,259.98 356.935781,261.17 C357.015937,262.36 357.256406,262.78 358.779375,262.36 C360.302344,261.94 361.02375,261.45 361.504687,260.96 C361.985625,260.4 363.027656,260.54 364.390312,261.17 C365.752969,261.87 367.917187,262.43 369.199687,261.87 C370.402031,261.17 370.963125,260.19 372.085312,260.19 C373.84875,259.07 374.49,256.83 374.890781,256.13 C375.211406,255.5 374.970937,255.5 374.249531,254.87 C373.528125,254.24 373.84875,253.12 373.768594,252.07 C373.608281,250.95 373.127344,249.27 371.604375,246.89 C370.161562,244.51 369.199687,241.57 368.237812,240.8 C367.275937,240.1 366.795,238.21 366.634687,237.3 C366.554531,236.46 365.432344,235.69 364.630781,235.06 C363.829219,234.36 363.187969,233.38 362.226094,229.6 C361.424531,225.82 360.783281,223.09 360.783281,222.39 C360.783281,221.69 360.622969,221.69 359.901562,221.41 C359.180156,221.13 358.779375,220.15 359.1,219.59 C359.260312,219.03 358.779375,218.47 358.538906,217.84 C358.298437,217.21 358.538906,216.02 359.019844,215.32 C359.500781,214.62 359.420625,212.87 358.939687,211.33 C358.45875,209.79 357.897656,208.53 355.89375,208.25 C353.97,208.04 353.489062,207.55 352.847812,206.15 C352.04625,204.75 351.244687,202.3 351.084375,201.74 C350.843906,201.18 350.443125,201.04 348.920156,202.16 C347.477344,203.28 346.91625,203.56 346.91625,205.66 C346.91625,206.99 347.236875,207.41 347.717812,208.18 C348.19875,208.88 348.359062,209.16 348.679687,211.19 C349.000312,213.22 351.164531,216.51 348.439219,218.4 C345.713906,220.22 346.034531,220.71 346.194844,221.97 C346.355156,223.3 345.393281,224.14 344.9925,222.32 C344.431406,220.43 344.9925,219.38 346.435312,218.47 C347.958281,217.63 349.320937,216.51 348.359062,215.32 C347.317031,214.13 346.91625,211.33 346.755937,210 C346.595625,208.67 346.435312,208.25 345.553594,209.3 Z" id="Shape" fill="#CF6200" fill-rule="nonzero"></path>
            <path d="M323.350312,236.95 C323.350312,237.86 323.510625,238.84 323.590781,239.61 C323.670937,240.52 323.991562,242.41 323.19,243.81 C322.468594,245.21 322.628906,245.91 323.19,246.33 L323.270156,246.33 C324.873281,245.91 325.033594,244.44 324.632812,243.74 C324.211722,242.951644 324.271941,242.031334 324.793125,241.29 C325.274062,240.52 325.274062,240.1 324.873281,239.54 C324.392344,238.98 324.392344,238.98 324.873281,237.44 C325.354219,236.11 324.232031,236.11 323.350312,236.95 Z M339.381562,258.09 C339.060937,257.11 338.018906,253.33 337.93875,250.88 C337.858594,248.43 336.576094,246.47 334.251562,244.58 C332.488125,243.18 332.087344,240.8 331.927031,238.98 C330.564375,238.28 330.003281,238.56 330.163594,239.96 C330.24375,241.36 331.927031,242.06 331.766719,244.23 C331.446094,246.33 331.446094,245.84 332.568281,246.82 C333.690469,247.8 334.171406,248.92 333.610312,249.27 C332.969062,249.69 332.969062,250.46 333.770625,250.74 C334.652344,251.02 334.7325,251.86 334.572187,252.63 C334.492031,253.33 335.37375,253.54 335.774531,254.03 C336.335625,254.59 336.335625,255.92 335.854687,256.69 C335.37375,257.39 335.293594,258.65 336.175312,258.02 C336.976875,257.32 337.457812,257.95 338.099062,259 C338.660156,259.84 339.22125,259.56 339.8625,259.35 C339.628419,258.947158 339.440476,258.525109 339.301406,258.09 L339.381562,258.09 Z M351.405,277.06 C350.924062,278.04 350.282812,277.76 349.721719,277.27 C349.160625,276.78 348.519375,276.78 348.759844,275.87 C349.000312,274.96 348.920156,274.82 348.19875,274.33 L347.958281,274.12 L347.156719,274.12 C345.794062,274.12 345.713906,273.84 344.912344,273.14 C344.758824,273.016393 344.598311,272.89958 344.431406,272.79 L344.431406,273.42 C344.431406,274.33 344.431406,274.12 343.469531,274.4 C342.507656,274.68 342.667969,273.49 342.4275,272.79 C342.391674,272.622659 342.338003,272.458611 342.267188,272.3 C341.145,272.16 339.8625,271.11 339.541875,269.99 C339.060938,268.73 339.541875,268.59 340.102969,269.43 C340.664062,270.27 340.744219,270.48 341.545781,270.97 C342.347344,271.46 342.667969,270.62 342.347344,269.64 C342.297049,269.291378 342.297049,268.938622 342.347344,268.59 C342.106875,268.24 341.866406,268.03 341.545781,267.89 C339.942656,267.26 340.423594,267.19 340.50375,266.07 C340.664062,265.02 340.343437,265.02 339.381562,265.58 C338.499844,266.14 338.419688,265.51 338.419688,263.83 C338.419688,262.15 337.137187,262.22 336.896719,263.34 C336.576094,264.53 336.095156,263.76 335.614219,262.15 C335.133281,260.54 334.251563,260.05 334.171406,261.66 C334.171406,262.99 333.690469,263.27 332.728594,262.57 L333.129375,265.09 C333.610313,267.75 334.331719,266.77 335.854687,267.89 C337.377656,269.01 336.896719,269.64 337.457812,270.2 C338.018906,270.83 338.099063,271.18 337.93875,271.88 C337.698281,272.51 337.457812,273.07 337.698281,273.63 C338.018906,274.26 338.419687,274.47 338.419687,275.31 C338.419687,276.15 338.660156,276.01 339.060937,276.22 L339.8625,276.29 L340.50375,275.45 C341.625937,274.47 343.309219,275.52 343.870312,276.78 C344.431406,278.04 345.072656,278.32 345.954375,277.34 C346.836094,276.36 346.515469,276.5 347.477344,277.41 C348.439219,278.32 348.759844,278.11 348.759844,278.11 C348.759844,278.11 349.721719,277.83 350.362969,278.32 C351.004219,278.81 351.405,278.74 352.607344,277.2 C353.809687,275.59 352.04625,276.08 351.485156,277.06 L351.405,277.06 Z M354.771562,232.26 C355.172344,229.88 354.931875,227.5 356.054062,226.66 C357.17625,225.75 358.45875,224 358.45875,227.71 C358.298437,231.42 358.138125,231.21 357.256406,232.05 C356.454844,232.96 355.653281,233.17 356.454844,234.57 C357.416719,235.97 357.496875,236.11 357.416719,238.28 C357.256406,240.45 357.256406,241.36 358.218281,242.48 C359.260312,243.53 359.500781,243.6 359.821406,244.79 C359.981719,245.98 360.863437,247.59 361.985625,248.5 C363.107812,249.41 364.390312,251.86 364.470469,253.61 C364.630781,255.36 366.394219,255.78 367.997344,257.04 C369.600469,258.23 367.596562,259.07 366.394219,258.51 C365.111719,258.02 365.592656,258.51 364.87125,259.28 C364.069687,260.05 363.909375,260.19 363.268125,258.86 C362.626875,257.53 360.542812,256.69 359.500781,256.34 C358.45875,255.99 357.657187,254.59 356.775469,253.19 C356.041961,252.002758 354.700069,251.195472 353.168437,251.02 C353.569219,251.93 353.729531,252.63 353.649375,252.98 C353.248594,254.17 352.847813,255.08 354.290625,256.48 C355.813594,257.88 356.775469,259.98 356.935781,261.17 C357.015938,262.36 357.256406,262.78 358.779375,262.36 C360.222188,261.87 361.02375,261.45 361.504687,260.96 C361.985625,260.4 363.027656,260.47 364.390313,261.17 C365.752969,261.8 367.837031,262.43 369.119531,261.8 C370.321875,261.1 370.963125,260.19 372.085312,260.19 C373.84875,259.07 374.49,256.76 374.810625,256.13 C375.211406,255.43 374.970937,255.43 374.249531,254.8 C373.528125,254.17 373.84875,253.05 373.688437,252 C373.608281,250.88 373.127344,249.27 371.604375,246.89 C370.081406,244.51 369.199687,241.57 368.237813,240.8 C367.275937,240.03 366.714844,238.21 366.634687,237.3 C366.474375,236.46 365.352187,235.69 364.630781,234.99 C363.829219,234.36 363.107813,233.38 362.226094,229.6 C361.584844,226.59 361.02375,224.28 360.863438,223.09 C359.981719,224.35 359.340469,224.7 359.019844,223.79 C358.619062,222.81 358.218281,222.32 357.657188,222.95 C357.17625,223.65 357.015938,222.39 357.015938,221.83 C357.015938,221.27 356.935781,221.2 356.214375,221.2 C355.492969,221.2 356.214375,220.36 355.89375,218.68 C355.653281,217.07 355.2525,216.86 355.092188,218.82 C354.771563,220.78 353.489063,221.97 354.050156,222.39 C354.531094,222.81 354.290625,223.72 353.809687,224.98 C353.32875,226.31 353.569219,227.08 353.889844,227.92 C354.210469,228.76 353.649375,230.44 353.408906,231.84 C353.168437,233.24 354.450938,234.64 354.771562,232.33 L354.771562,232.26 Z M332.007187,212.8 C331.125469,212.87 330.404062,213.57 330.965156,216.09 C331.365937,217.63 330.003281,217.28 329.522344,216.51 C329.041406,215.74 328.640625,214.13 327.598594,212.73 C326.636719,211.33 327.117656,213.64 327.0375,214.97 C326.877187,216.3 327.839063,216.3 328.720781,217.35 C329.6025,218.47 328.881094,218.89 327.919219,218.89 C326.957344,218.89 327.358125,220.64 327.598594,221.83 C327.839063,223.02 327.358125,223.23 326.636719,222.25 C325.835156,221.27 326.39625,219.8 326.476406,217.91 C326.636719,216.09 326.797031,216.51 325.354219,216.09 C323.991563,215.6 324.232031,215.39 324.793125,214.34 C325.274063,213.22 325.755,212.66 325.11375,212.17 C324.552656,211.61 324.632813,211.26 325.674844,211.19 C326.636719,211.05 326.235938,210.42 327.117656,210.21 C327.999375,210 328.400156,210.28 328.480313,208.88 C328.640625,207.69 329.041406,206.99 330.083438,207.34 C330.724688,209.16 331.446094,211.96 332.007188,212.8 Z M344.591719,225.68 C344.591719,227.92 344.591719,228.83 345.713906,229.67 C346.836094,230.51 346.675781,231.42 347.156719,233.45 C347.717812,235.55 347.717812,240.03 349.160625,243.04 L350.843906,246.33 C351.625378,245.754894 352.254421,245.038364 352.6875,244.23 C353.008125,243.53 351.885938,241.99 351.084375,240.73 C350.202656,239.33 351.164531,238.91 352.04625,237.23 C352.927969,235.69 351.966094,235.55 350.523281,235.13 C349.160625,234.71 349.160625,233.59 348.439219,231.84 C347.717812,230.09 347.797969,229.32 348.278906,228.34 C348.759844,227.36 348.439219,226.59 347.477344,226.38 C346.435313,226.17 346.675781,225.54 347.076563,224.42 C347.477344,223.37 347.717813,223.16 346.194844,223.44 C345.072656,223.72 344.752031,223.93 344.431406,224.28 L344.591719,225.68 Z" id="Shape" fill="#00B800" fill-rule="nonzero"></path>
            <path d="M358.939687,230.16 C358.779375,231.42 358.779375,232.12 358.378594,232.54 C358.057969,232.96 358.298437,233.59 358.699219,234.29 C359.1,234.99 359.260312,235.76 358.939687,237.02 C358.619063,238.28 359.180156,239.12 359.901563,239.47 C360.622969,239.82 361.02375,239.47 360.783281,241.01 C360.613676,242.440082 361.204546,243.859091 362.386406,244.86 C363.268125,245.49 363.909375,246.54 363.749062,247.24 C363.668906,247.87 364.390312,248.5 365.272031,248.85 C366.15375,249.2 366.073594,249.27 366.073594,249.69 C366.073594,250.11 366.394219,250.18 367.356094,250.39 C368.317969,250.6 369.119531,251.09 370.241719,252.35 C371.363906,253.61 372.967031,254.17 372.726562,252.91 C372.486094,251.65 372.726562,250.67 371.28375,250.11 C369.760781,249.41 368.638594,246.26 368.0775,244.09 C367.356094,241.85 365.432344,238.98 364.310156,238.42 C364.149844,236.88 364.390312,236.11 363.268125,235.34 C362.32957,234.759987 361.763884,233.823966 361.745156,232.82 C361.745156,232.12 361.184063,231.14 360.622969,230.86 C360.142031,230.65 359.901563,230.16 359.901563,229.46 C359.901563,228.76 359.1,228.9 358.939688,230.16 Z" id="Path" fill="#5D3100"></path>
            <path d="M352.286719,288.54 C355.377706,288.136143 358.395481,287.38317 361.264219,286.3 C362.787188,287.21 365.352188,288.4 366.474375,288.4 C364.390312,288.82 362.9475,288.61 362.466563,288.26 C362.707031,288.82 363.428438,289.73 363.909375,289.8 C361.825312,289.8 359.500781,289.31 358.779375,288.68 C356.935781,289.38 353.97,289.52 352.366875,288.54 L352.286719,288.54 Z M356.294531,290.99 C357.096094,291.2 361.103906,291.69 361.584844,291.69 C360.302344,292.74 361.424531,293.65 363.58875,293.51 C362.546719,293.65 361.344375,294 362.145938,294.14 C364.069687,294.42 369.279844,293.23 370.321875,292.74 C368.558437,294.7 359.901562,296.59 356.294531,290.99 Z M359.901562,295.89 C360.943594,295.47 363.58875,295.61 364.87125,296.1 C363.508594,296.59 360.703125,296.59 359.901562,295.96 L359.901562,295.89 Z" id="Shape" fill="#00D860" fill-rule="nonzero"></path>
            <path d="M363.909375,295.89 C365.833125,295.61 371.203594,296.73 373.127344,295.68 C372.486094,297.22 369.119531,297.43 367.917187,297.08 C366.714844,296.8 365.592656,296.38 364.791094,296.38 C365.272031,296.17 364.550625,296.17 363.909375,295.89 Z" id="Path" fill="#000000"></path>
            <path d="M365.833125,298.2 C368.621655,298.256774 371.404291,297.950067 374.089219,297.29 C375.692344,297.78 379.058906,298.55 379.860469,298.48 C378.257344,299.32 375.211406,298.83 374.249531,298.48 C371.533187,299.470947 368.455267,299.368549 365.833125,298.2 Z" id="Path" fill="#00D860"></path>
            <path d="M368.317969,298.9 C370.402031,299.32 372.165469,299.04 374.249531,298.48 C374.890781,298.69 376.333594,298.97 377.776406,298.97 C378.738281,299.39 379.940625,300.02 381.223125,300.16 C379.940625,300.58 375.291562,300.16 374.329687,299.67 C372.005156,299.67 367.997344,300.16 367.035469,300.86 C367.035469,300.3 367.43625,299.46 368.317969,298.97 L368.317969,298.9 Z" id="Path" fill="#00D860"></path>
            <path d="M365.833125,289.8 C367.43625,290.22 373.367812,290.01 376.253437,288.75 C377.535937,288.26 378.257344,289.1 376.894687,289.45 C372.085312,290.99 368.157656,291.55 365.432344,290.22 C364.310156,289.73 364.149844,289.24 365.833125,289.73 L365.833125,289.8 Z" id="Path" fill="#000000"></path>
            <path d="M394.529063,282.8 C387.315,285.74 382.585781,286.65 372.56625,283.92 C371.684531,283.71 370.963125,283.92 372.005156,284.48 C373.047188,285.11 378.577969,286.37 379.860469,286.51 C381.142969,286.65 380.662031,287.07 379.860469,287.28 C379.058906,287.49 378.898594,287.98 379.940625,287.63 C380.982656,287.28 387.074531,287.14 389.559375,288.26 C390.601406,288.75 390.841875,288.61 390.761719,288.26 C390.681563,287.91 391.242656,287.63 392.044219,287.56 C392.845781,287.49 393.326719,287.28 392.685469,287.07 C392.044219,286.86 391.964063,286.72 392.445,286.51 C392.925938,286.3 393.006094,286.09 392.284688,285.95 C391.563281,285.81 391.082344,285.67 391.723594,285.39 C392.445,285.11 393.326719,284.9 394.128281,284.83 C394.288594,284.41 393.967969,283.22 394.529063,282.8 Z" id="Path" fill="#00D860"></path>
            <path d="M382.585781,283.5 C386.67375,283.78 394.288594,282.1 398.296406,278.74 C399.659063,279.44 401.662969,280.28 402.705,280.42 C403.747031,280.56 404.62875,281.4 403.025625,281.4 C401.4225,281.4 399.258281,280.84 398.21625,280.42 C392.845781,283.29 386.593594,284.27 382.665937,283.92 C381.54375,283.92 381.303281,283.5 382.585781,283.57 L382.585781,283.5 Z" id="Path" fill="#000000"></path>
            <path d="M370.402031,263.9 C371.844844,264.81 374.329687,266.21 377.535937,266 C379.090944,267.049164 380.858543,267.832855 382.746094,268.31 C380.581875,269.01 378.257344,269.71 377.616094,270.34 C376.654219,269.5 375.371719,269.64 375.051094,269.22 C374.089219,269.92 374.249531,270.27 374.890781,270.62 C375.532031,270.97 380.181094,271.6 381.303281,271.32 C382.425469,271.04 382.906406,271.88 381.864375,272.23 C379.379531,272.93 374.49,272.23 372.806719,269.85 C371.043281,267.54 369.600469,266.63 365.031562,268.8 C364.550625,267.61 364.550625,267.4 363.668906,267.4 C362.787188,267.4 361.103906,266.35 362.386406,266.35 C363.668906,266.35 367.356094,265.93 370.402031,263.97 L370.402031,263.9 Z" id="Path" fill="#00D860"></path>
            <path d="M371.524219,269.22 C370.722656,269.36 368.558438,270.41 367.756875,270.48 C366.955312,270.62 365.592656,271.6 366.955312,271.6 C368.478281,271.6 370.321875,270.2 371.363906,270.2 C372.405938,270.2 372.486094,269.01 371.524219,269.22 Z M376.093125,273.35 C375.532031,273.42 373.127344,273.91 372.486094,273.91 C371.844844,273.91 371.123438,273.98 371.203594,274.4 C371.28375,274.82 371.444062,275.1 370.402031,274.96 C369.36,274.82 368.638594,275.24 368.398125,275.45 C368.157656,275.66 367.997344,275.94 368.959219,276.01 C369.921094,276.08 370.482187,276.22 371.604375,275.73 C372.726562,275.24 373.768594,274.61 374.970937,274.54 C376.173281,274.54 377.375625,273.14 376.093125,273.35 Z" id="Shape" fill="#00D860" fill-rule="nonzero"></path>
            <path d="M372.726562,275.8 C373.768594,276.5 378.818438,277.9 380.581875,277.83 C382.345312,277.76 382.104844,278.46 380.742188,278.74 C377.571812,279.125703 374.36372,278.310689 371.925,276.5 C370.802812,275.73 371.925,275.38 372.646406,275.8 L372.726562,275.8 Z" id="Path" fill="#000000"></path>
            <path d="M396.613125,278.04 C392.765625,279.09 388.837969,278.74 387.234844,278.32 C385.631719,277.9 384.188906,277.9 385.311094,278.81 C386.353125,279.72 389.799844,280.28 391.723594,279.86 C384.830156,281.26 382.986562,281.12 381.303281,280.91 C379.539844,280.63 376.333594,280.7 374.890781,280.77 C373.928906,280.91 372.486094,280.77 371.844844,280.42 C371.203594,280.07 371.043281,279.51 372.886875,279.72 C374.730469,279.79 374.970937,279.51 373.367813,279.3 C371.764688,279.09 369.600469,279.65 371.764688,280.84 C373.928906,282.03 378.577969,280.77 381.623906,281.54 C386.984368,282.753615 392.685998,281.632643 396.93375,278.53 C397.254375,278.32 397.735313,277.69 396.613125,278.04 Z M377.616094,273.07 C377.776406,273.49 377.776406,273.91 377.616094,274.19 C377.455781,274.47 377.535937,274.89 378.097031,274.47 C378.658125,274.05 379.058906,273.56 379.700156,273.84 C380.341406,274.12 381.864375,274.12 382.585781,273.98 C383.227031,273.98 383.4675,273.77 382.425469,273.42 C381.463594,273.07 380.421563,272.93 379.860469,273 C379.299375,273.07 378.577969,272.93 378.097031,272.72 C377.616094,272.51 377.535938,272.72 377.616094,273.07 Z" id="Shape" fill="#00D860" fill-rule="nonzero"></path>
            <path d="M387.635625,274.61 C386.834063,274.61 385.39125,274.19 384.669844,273.91 C383.948438,273.63 382.82625,273.63 383.627813,274.61 C384.429375,275.59 387.876094,276.01 389.078438,275.59 C390.280781,275.17 389.88,274.61 391.002187,275.31 C392.204531,275.94 393.487031,276.36 394.36875,276.36 C395.250469,276.36 395.571094,276.36 394.609219,275.87 C393.647344,275.38 393.166406,275.31 393.006094,274.89 C392.845781,274.47 392.845781,274.19 393.807656,274.47 C394.769531,274.75 395.65125,275.17 396.372656,274.82 C397.094062,274.47 398.376562,273.77 399.578906,273.77 L399.819375,273.14 C398.136094,273.07 397.013906,273.49 396.613125,273.63 C396.212344,273.77 395.250469,273.91 394.36875,273.77 C393.487031,273.63 392.364844,273.56 392.044219,273.35 C391.723594,273.14 391.80375,273 392.525156,272.86 C393.246563,272.72 393.487031,272.3 392.525156,272.44 C391.563281,272.58 388.677656,272.58 387.234844,272.16 C385.792031,271.74 385.150781,271.67 384.589688,271.88 C383.948438,272.09 384.028594,272.65 384.910312,272.72 C385.792031,272.79 387.876094,272.93 388.517344,273.49 C389.158594,274.05 389.158594,274.12 388.357031,273.84 C387.555469,273.56 386.112656,273.7 387.555469,274.61 L387.635625,274.61 Z" id="Path" fill="#00D860"></path>
            <path d="M399.819375,273.14 L399.49875,273.77 C401.262187,273.77 405.430312,274.12 406.792969,274.82 C408.155625,273.91 407.915156,273.63 408.796875,273.84 C409.678594,274.05 410.961094,274.26 411.442031,274.05 C411.922969,273.84 412.32375,273.84 412.884844,273.91 C413.445937,273.98 414.648281,273.77 415.369687,273.42 C416.091094,273.07 417.533906,272.58 418.335469,272.58 C419.137031,272.58 420.179062,272.37 418.656094,272.16 C417.133125,271.95 414.808594,272.37 414.007031,272.65 C413.205469,272.86 410.800781,273.07 409.438125,273.07 C408.075469,273.07 406.151719,273.63 404.548594,273.28 C402.945469,272.93 400.701094,273.14 399.739219,273.14 L399.819375,273.14 Z" id="Path" fill="#00D860"></path>
            <path d="M421.461562,272.44 C418.656094,274.26 415.289531,274.61 411.281719,274.89 C410.079375,274.96 410.480156,275.24 411.442031,275.31 C415.690312,275.73 420.499687,274.33 422.102812,272.86 C422.58375,272.44 422.503594,271.74 421.461562,272.44 Z" id="Path" fill="#000000"></path>
            <path d="M402.384375,276.64 C404.667945,276.948961 406.919516,277.417124 409.1175,278.04 C410.159531,277.9 410.480156,277.69 410.239687,277.34 C409.999219,276.99 409.919062,276.64 411.842812,276.78 L418.73625,276.78 C419.457656,276.57 420.900469,275.59 421.541719,275.59 C419.858438,275.59 412.804688,275.94 411.922969,275.87 C411.04125,275.8 410.560313,275.87 409.999219,276.15 C409.438125,276.43 409.197656,276.57 408.396094,276.29 C407.594531,276.01 406.472344,275.73 405.750938,276.15 C405.109688,276.5 403.586719,276.15 402.384375,276.64 Z" id="Path" fill="#00D860"></path>
            <path d="M418.73625,276.78 C419.3775,276.57 420.820312,275.59 421.541719,275.52 C422.744062,275.45 424.106719,275.87 424.747969,276.01 C425.389219,276.15 426.110625,275.94 425.709844,275.52 C425.309062,275.1 425.629687,274.26 427.553437,274.47 C429.477187,274.68 430.439062,274.96 432.362812,274.82 C434.286562,274.68 435.007969,275.87 438.534844,274.61 C438.294375,275.87 438.935625,275.94 439.576875,275.73 C440.218125,275.52 441.019687,275.52 442.141875,276.29 C443.264063,277.06 450.077344,277.06 451.680469,276.85 C453.283594,276.57 454.085156,277.34 452.882812,277.69 C451.680469,277.97 451.359844,278.46 451.680469,278.81 C451.920937,279.16 452.241562,279.51 450.718594,279.37 C449.195625,279.23 448.955156,279.65 448.23375,280.07 C447.512344,280.49 447.271875,280.77 445.187812,280.42 C443.183906,280.14 442.783125,280.35 441.660937,280.49 C440.53875,280.63 440.218125,280.7 439.095937,280.35 C437.97375,280 435.569062,279.65 434.046094,280.14 C432.523125,280.63 431.481094,280.91 430.118438,280.63 C428.755781,280.35 428.755781,280.42 429.557344,279.72 C430.358906,279.02 430.599375,279.02 432.2025,278.88 C433.805625,278.74 435.007969,278.32 433.885781,277.76 C432.763594,277.2 432.442969,277.27 430.92,277.9 C429.397031,278.53 428.675625,278.95 426.912187,278.18 C425.309062,277.34 424.5075,277.48 423.305156,277.76 C422.102812,278.04 420.339375,277.41 418.73625,276.78 Z M424.347187,279.23 C422.182969,279.51 421.621875,278.32 419.3775,278.53 C418.656094,278.67 417.373594,279.44 419.137031,279.3 C420.820312,279.23 422.744062,280 424.427344,279.93 C426.110625,279.86 425.389219,279.16 424.427344,279.23 L424.347187,279.23 Z M421.9425,280.63 C422.984531,280.28 425.309062,280.98 426.351094,280.84 C427.393125,280.7 428.274844,281.19 427.152656,281.54 C426.030469,281.89 423.705938,280.98 422.58375,281.26 C421.461562,281.54 420.339375,281.12 421.862344,280.63 L421.9425,280.63 Z M399.49875,285.95 C401.101875,285.95 406.712812,285.74 408.877031,281.75 C409.037344,281.4 409.197656,281.26 409.838906,281.68 C410.480156,282.1 413.125313,283.43 417.934687,283.78 C419.297344,283.85 420.740156,284.48 418.014844,284.34 C415.289531,284.2 411.04125,283.5 409.598437,282.73 C407.19375,286.09 402.785156,286.44 399.578906,286.37 C397.575,286.37 398.055938,285.88 399.578906,285.95 L399.49875,285.95 Z" id="Shape" fill="#00D860" fill-rule="nonzero"></path>
            <path d="M411.602344,280.35 C410.800781,281.26 408.235781,282.8 407.113594,282.94 C405.91125,282.94 402.384375,282.73 401.502656,282.45 C400.620937,282.17 399.578906,282.24 400.78125,283.01 C401.983594,283.78 405.189844,284.27 406.392187,284.06 C407.754844,283.78 409.197656,283.43 410.159531,283.99 C411.121406,284.55 412.965,285.53 414.007031,285.32 C415.129219,285.11 417.293437,285.11 418.014844,285.39 C418.73625,285.67 419.938594,286.58 418.095,286.09 C416.251406,285.6 414.808594,285.95 413.926875,285.67 C414.88875,286.79 416.972812,288.61 418.73625,288.61 C419.217187,288.61 419.537812,289.31 418.656094,289.66 C419.457656,290.01 421.541719,290.36 422.663906,289.45 C422.343281,289.8 422.503594,290.01 422.984531,290.15 C423.465469,290.29 424.026562,290.64 423.144844,290.78 C422.263125,290.92 420.419531,291.06 419.858437,290.78 C421.621875,291.83 426.351094,293.51 431.160469,292.67 C432.122344,292.53 432.603281,292.18 431.160469,292.25 C427.954219,292.25 427.793906,292.25 427.232812,291.97 C426.671719,291.69 426.832031,291.41 427.71375,291.2 C428.515312,290.99 430.839844,290.64 431.721563,290.64 C432.603281,290.64 433.645312,290.36 431.721563,290.36 C429.797813,290.36 427.473281,290.36 426.511406,290.08 C425.549531,289.8 424.908281,289.38 425.870156,288.82 C426.832031,288.26 427.874063,288.4 428.274844,287.91 C425.228906,287.91 421.461563,286.44 423.545625,285.11 C424.026563,284.83 423.86625,284.76 423.144844,284.69 C422.423438,284.62 419.938594,283.99 418.976719,283.57 C418.014844,283.15 418.656094,282.66 419.457656,282.52 C417.614063,282.8 414.007031,281.96 411.602344,280.42 L411.602344,280.35 Z M438.935625,280.35 C437.3325,281.4 434.12625,281.89 432.763594,281.89 C431.400937,281.89 431.160469,282.31 432.282656,282.38 C433.404844,282.45 434.527031,282.66 435.007969,282.52 C435.488906,282.38 435.809531,282.38 436.450781,282.66 C437.172187,282.94 438.615,283.08 439.977656,282.73 C441.340312,282.38 443.424375,282.17 444.306094,282.24 C445.187812,282.31 446.149687,282.31 444.38625,281.89 C442.622812,281.47 439.737187,281.75 439.015781,281.89 C438.294375,282.03 436.370625,281.89 437.412656,281.68 C438.454687,281.47 439.336406,280.98 439.817344,280.56 L439.015781,280.35 L438.935625,280.35 Z M438.134063,283.5 C436.483272,284.5927 434.50804,285.248671 432.442969,285.39 C434.366719,286.02 435.969844,287.77 437.252344,287.7 C436.611094,288.05 435.889687,288.54 435.088125,288.61 C436.370625,288.89 438.374531,288.61 440.057812,287.77 C442.863281,288.47 446.470312,287.98 447.752813,287.07 C445.909219,287.07 443.745,286.51 442.702969,285.74 C443.584688,285.74 444.466406,285.32 444.867188,284.83 C442.783125,285.18 439.25625,284.27 438.134063,283.43 L438.134063,283.5 Z" id="Shape" fill="#00D860" fill-rule="nonzero"></path>
            <path d="M435.088125,288.61 C435.889687,288.54 436.69125,288.05 437.252344,287.7 C433.675495,287.950712 430.096183,287.242524 426.992344,285.67 C424.988438,284.13 424.988438,285.32 426.351094,286.37 C427.71375,287.42 430.27875,289.17 435.168281,288.61 L435.088125,288.61 Z M440.057812,292.32 C439.25625,292.74 435.248437,293.02 433.885781,292.74 C432.523125,292.46 432.042187,292.6 432.282656,293.09 C432.523125,293.58 432.84375,293.93 431.721562,293.79 C430.599375,293.65 428.755781,293.93 427.954219,294.14 C427.152656,294.35 426.190781,294.98 427.874062,294.77 C429.557344,294.56 431.080312,294.21 432.362812,294.49 C433.645312,294.77 438.053906,294.84 438.935625,294.49 C439.817344,294.14 439.25625,294.21 438.855469,294.21 C438.454687,294.21 438.214219,294 438.855469,293.72 C439.496719,293.44 439.8975,292.81 440.057812,292.32 Z M401.182031,287.63 C399.49875,288.26 393.887812,289.59 392.364844,289.66 C390.52125,290.36 388.998281,290.78 388.116563,290.78 C388.757813,291.27 391.322812,291.76 392.284688,291.48 C391.723594,292.04 390.441094,292.6 389.960156,292.88 C391.483125,292.67 393.166406,293.02 393.967969,293.09 C392.098933,293.95759 389.987034,294.345866 387.876094,294.21 C388.357031,294.77 388.998281,295.33 389.88,295.33 C388.235357,295.737728 386.501101,295.785808 384.830156,295.47 C385.311094,296.24 385.711875,296.73 386.433281,296.87 C384.910313,297.01 383.066719,297.22 381.463594,296.45 C382.665938,297.85 385.39125,298.27 389.399063,297.85 C393.406875,297.5 396.773438,295.96 397.735312,295.26 C396.052031,295.47 393.7275,295.54 392.685469,295.33 C394.929844,294.84 399.739219,293.09 400.620937,292.32 C399.704143,292.320894 398.809018,292.07661 398.055937,291.62 C400.513614,291.703207 402.971819,291.467302 405.350156,290.92 C404.061903,290.677428 402.920752,290.029664 402.143906,289.1 C407.230278,290.388087 412.606943,290.532561 417.774375,289.52 C418.575937,289.31 418.575937,288.47 417.133125,288.61 C414.568125,288.75 409.518281,288.12 408.155625,287.56 C409.276696,288.265317 410.563673,288.743577 411.922969,288.96 C409.518281,289.59 406.151719,290.01 401.182031,287.56 L401.182031,287.63 Z" id="Shape" fill="#00D860" fill-rule="nonzero"></path>
            <path d="M389.960156,292.88 C390.441094,292.6 391.723594,292.04 392.284688,291.48 C391.242656,291.76 388.757812,291.27 388.116563,290.78 C388.998281,290.78 390.52125,290.43 392.364844,289.66 C388.998281,289.59 386.753906,289.59 385.471406,288.96 C384.188906,288.33 382.024687,288.61 381.142969,288.75 C380.26125,288.89 380.581875,290.15 384.188906,289.8 C381.991349,290.702674 379.537718,291.019216 377.135156,290.71 C377.535937,291.76 377.776406,292.81 377.455781,293.44 C379.379531,294.42 384.509531,295.61 387.074531,295.47 C384.830156,294.77 383.627812,293.93 385.471406,293.72 C387.315,293.51 388.357031,293.23 389.960156,292.88 Z" id="Path" fill="#00D860"></path>
            <path d="M384.188906,298.2 C388.5975,297.85 394.609219,297.78 399.418594,294.21 C400.620937,293.37 401.4225,293.65 400.220156,294.56 C397.735312,296.52 391.402969,299.18 385.471406,299.32 C383.066719,299.32 381.944531,298.34 384.188906,298.13 L384.188906,298.2 Z" id="Path" fill="#000000"></path>
            <path d="M417.614062,291.69 C416.572031,292.04 413.445937,292.53 412.484062,292.39 C411.522187,292.25 410.159531,292.25 409.438125,292.6 C408.716719,292.95 408.636562,293.3 409.678594,293.3 L412.644375,293.51 C412.018872,293.802203 411.472248,294.207961 411.04125,294.7 C412.644375,294.42 415.369687,294.98 416.17125,295.4 C415.53,295.54 414.808594,295.33 414.327656,295.05 C416.8125,297.43 424.347188,297.43 425.549531,297.01 C424.988438,297.36 424.427344,297.71 423.946406,297.85 C426.030469,298.2 428.435156,298.13 430.839844,296.94 C430.038281,297.01 427.633594,296.87 426.992344,296.8 C427.514972,296.372602 428.147094,296.060586 428.835938,295.89 C427.874063,295.68 424.988438,295.75 424.267031,296.1 C424.5075,295.61 425.068594,294.98 425.629688,294.77 C421.9425,294.77 417.45375,294.77 415.850625,294 C418.415625,294.21 421.30125,292.88 422.503594,292.88 C420.499687,292.88 418.255313,292.46 417.694219,291.69 L417.614062,291.69 Z M408.315937,293.44 C406.472344,293.79 403.747031,294.49 402.945469,294.84 C402.143906,295.19 401.4225,295.4 403.025625,295.4 C403.212501,295.35286 403.399533,295.306193 403.586719,295.26 C402.945469,295.26 402.224063,295.26 403.426406,294.91 C404.62875,294.56 406.231875,293.86 408.235781,293.51 L408.315937,293.44 Z M404.62875,297.29 C405.27,297.29 408.075469,297.29 409.197656,296.45 C410.4,297.15 412.644375,298.27 414.007031,298.27 C415.53,298.27 415.369687,298.62 414.087188,298.76 C412.884844,298.83 410.4,298.2 409.1175,297.36 C407.434219,297.92 406.071563,297.5 404.548594,297.29 L404.62875,297.29 Z M382.986562,308.28 C385.872187,309.26 389.639531,309.96 392.445,309.19 C394.048125,310.38 397.334531,310.45 399.097969,310.17 C400.861406,309.82 402.464531,309.68 404.468437,310.17 C406.392187,310.8 410.4,310.87 411.522187,311.64 C410.480156,311.64 408.315937,311.64 407.754844,311.78 C407.273906,311.92 407.514375,312.2 408.556406,312.62 C405.350156,312.48 399.819375,313.67 398.136094,314.93 C399.098773,313.063955 401.243544,311.879547 403.586719,311.92 C401.983594,311.43 396.532969,311.36 394.769531,312.34 C394.265154,311.854631 393.882873,311.282326 393.647344,310.66 C390.761719,312.06 385.150781,310.03 382.906406,308.28 L382.986562,308.28 Z M375.532031,303.66 C378.003211,303.503746 380.369662,302.725729 382.345312,301.42 C382.986562,301.91 385.551562,302.4 388.276875,301.63 C387.715781,301.98 387.635625,302.68 387.876094,303.03 C385.667372,303.198141 383.503071,303.670659 381.463594,304.43 C380.26125,304.92 376.814531,305.34 375.692344,304.78 C374.570156,304.29 374.570156,303.8 375.532031,303.66 Z" id="Shape" fill="#00D860" fill-rule="nonzero"></path>
            <path d="M387.876094,303.1 C385.667372,303.268141 383.503071,303.740659 381.463594,304.5 L381.864375,305.9 C386.421281,304.773586 391.167662,304.347244 395.891719,304.64 C394.448906,304.71 391.80375,306.04 390.280781,306.11 C393.967969,305.9 397.494844,306.53 398.456719,306.81 C399.338437,306.95 399.578906,307.51 398.8575,308.21 C398.136094,308.91 397.815469,308.77 399.338437,308.91 C400.78125,308.91 403.907344,308.7 405.27,307.51 C404.708906,307.02 403.266094,307.23 402.865312,306.81 C403.799507,306.539096 404.649745,306.08401 405.350156,305.48 C403.929689,305.523572 402.507639,305.453277 401.101875,305.27 C400.300312,305.06 399.659062,304.85 400.701094,304.36 C401.367695,304.061402 401.965509,303.657987 402.464531,303.17 C400.701094,303.59 397.815469,304.01 395.410781,302.33 C396.2925,302.54 398.456719,302.4 399.178125,302.12 C398.548695,301.77186 397.835251,301.556191 397.094062,301.49 C399.017812,300.65 402.705,299.95 407.514375,301.56 C409.75875,301.42 412.32375,301.56 414.087187,301.91 C414.88875,301.21 416.411719,299.67 417.293437,299.32 C411.6825,299.67 401.823281,298.83 402.06375,296.24 C400.220156,298.34 396.132187,299.46 394.36875,299.11 C394.208437,299.81 394.929844,300.79 395.571094,301.21 C393.7275,301.56 390.52125,301.84 388.998281,301.56 C389.88,302.26 391.402969,302.96 392.364844,302.89 C390.441094,302.89 389.399062,303.24 387.876094,303.1 Z" id="Path" fill="#00D860"></path>
            <path d="M399.258281,308.84 C400.861406,308.84 403.907344,308.7 405.27,307.51 C404.708906,307.02 403.266094,307.23 402.865312,306.81 C403.799507,306.539096 404.649745,306.08401 405.350156,305.48 C409.357969,305.2 412.804688,305.34 414.487969,304.92 C416.17125,304.5 420.499687,304.71 421.30125,304.5 C417.533906,305.06 416.8125,305.34 416.652188,305.9 C416.491875,306.46 417.854531,306.81 418.73625,306.81 C417.133125,306.81 414.968906,308.28 414.728438,308.91 C412.484063,307.79 411.522188,309.12 411.201563,309.61 C410.319844,309.26 407.19375,309.33 405.590625,310.52 C403.586719,309.96 402.224063,309.68 400.14,309.96 C401.4225,309.75 401.182031,308.98 399.338438,308.84 L399.258281,308.84 Z M417.213281,299.25 C418.495781,299.25 421.221094,299.39 422.263125,299.25 C421.636775,299.512435 421.067252,299.867693 420.579844,300.3 C423.786094,299.95 428.114531,299.74 429.397031,299.95 C427.793906,299.74 426.190781,300.65 425.389219,301.07 C424.587656,301.49 425.068594,301.77 426.190781,301.91 C427.312969,302.05 428.675625,302.75 426.751875,302.54 C424.828125,302.33 420.900469,302.26 419.938594,302.4 C418.976719,302.54 418.495781,302.12 419.938594,301.91 C421.381406,301.7 422.182969,301.35 422.824219,301.07 C421.702031,301.28 419.537812,301.28 418.816406,301.07 C418.095,300.86 417.774375,300.65 418.575938,300.44 C419.3775,300.23 418.816406,300.09 418.014844,300.16 C417.213281,300.23 415.209375,300.93 414.007031,301.91 C415.289531,300.79 416.411719,299.81 417.213281,299.32 L417.213281,299.25 Z" id="Shape" fill="#00D860" fill-rule="nonzero"></path>
            <path d="M403.025625,301.14 C404.584753,302.7327 406.878898,303.631691 409.277813,303.59 C409.838906,303.59 411.04125,304.29 409.518281,304.36 C405.590625,304.5 403.666875,303.66 401.903438,301.49 C401.582813,301 402.224063,300.37 403.025625,301.14 Z M426.43125,272.58 C428.515313,273.42 432.603281,274.19 435.889688,274.05 C436.450781,274.05 437.492813,274.54 436.130156,274.68 C432.523125,274.96 429.236719,274.54 426.190781,273.07 C425.389219,272.65 425.629687,272.23 426.43125,272.58 Z" id="Shape" fill="#000000" fill-rule="nonzero"></path>
            <path d="M428.515312,272.58 C431.721563,272.51 434.12625,272.58 435.007969,273.28 C436.851562,272.86 440.137969,272.58 440.859375,272.72 C441.580781,272.86 442.4625,272.51 440.699062,272.16 C438.935625,271.81 435.007969,271.67 433.725469,271.88 C432.442969,272.09 428.515312,272.23 427.312969,272.09 C427.793906,272.09 428.114531,272.23 428.515312,272.58 Z M440.859375,273.63 C442.302187,272.93 446.630625,273.63 447.913125,273.14 C447.031406,274.12 450.959062,274.19 454.325625,273.42 C453.043125,274.12 450.237656,274.26 449.035312,274.75 C447.832969,275.24 447.111562,274.82 446.229844,274.47 C445.348125,274.12 442.863281,273.35 440.859375,273.63 Z" id="Shape" fill="#00D860" fill-rule="nonzero"></path>
            <path d="M454.325625,273.42 C450.959062,274.12 447.031406,274.12 447.913125,273.14 C446.630625,273.63 442.302187,272.93 440.859375,273.63 C442.4625,272.86 443.584687,273.49 444.706875,271.81 C445.428281,271.95 447.031406,272.02 447.5925,271.39 C448.554375,271.6 450.317812,271.95 450.79875,272.37 C451.279688,272.86 452.08125,272.23 451.44,271.6 C453.043125,271.11 452.001094,272.16 455.608125,271.39 C456.409687,271.18 458.173125,270.9 458.814375,270.9 C457.440036,271.895089 455.932825,272.741243 454.325625,273.42 Z" id="Path" fill="#00D860"></path>
            <path d="M388.1543,259.746298 L387.435106,190.02298 C387.435106,186.88229 385.637121,187.510428 385.637121,190.02298 L385.637121,259.11816 L388.1543,259.746298 Z M414.045282,186.254152 L416.922058,259.746298 L416.562461,260.374436 L414.764476,260.374436 L412.966491,186.254152 L414.045282,186.254152 Z M438.497876,248.439814 L437.059488,188.766704 C437.059488,186.88229 435.261503,187.196359 435.261503,189.080773 L436.699891,248.439814 L438.497876,248.439814 Z" id="Shape" stroke="#000000" stroke-width="0.5" fill="#FFFF00" fill-rule="nonzero"></path>
            <path d="M399.661403,198.502843 L374.489615,198.188774 C373.410824,202.58574 379.523973,202.271671 381.681555,201.329464 C384.55833,202.899809 386.715912,202.899809 388.1543,201.329464 C390.311882,202.899809 393.188658,202.58574 394.267449,201.329464 C397.144224,203.527947 400.380597,201.329464 399.661403,198.188774 L399.661403,198.502843 Z M401.459388,209.181189 L376.2876,209.181189 C371.61284,212.950017 377.366391,214.834431 382.400749,212.321879 C383.119942,213.578155 385.996718,214.206293 388.1543,213.264086 C390.311882,214.520362 393.188658,213.578155 394.627046,212.321879 C397.144224,213.264086 400.380597,213.578155 401.818985,209.181189 L401.459388,209.181189 Z M400.740194,223.314294 L376.2876,223.314294 C375.928003,226.769053 380.962361,226.454984 382.760346,225.512777 C384.55833,228.025329 388.873494,227.397191 390.311882,225.826846 C392.829061,227.397191 394.986642,227.083122 396.065433,225.826846 C398.582612,227.71126 401.099791,225.198708 400.740194,223.314294 Z M402.178582,237.13333 L374.489615,236.819261 C373.051227,240.902158 377.366391,241.530296 379.164376,240.588089 C379.88357,242.786572 383.479539,242.158434 384.55833,240.588089 C385.996718,241.530296 387.794703,240.902158 388.513897,239.959951 C388.873494,242.158434 392.109867,242.472503 394.627046,240.588089 C399.661403,243.728779 404.336164,239.959951 401.818985,237.13333 L402.178582,237.13333 Z M426.271579,231.480088 L403.61697,231.480088 C404.695761,235.248916 406.853342,236.191123 410.449312,233.99264 C413.326088,236.505192 417.641251,235.562985 418.720042,234.306709 C423.7544,237.761468 426.271579,233.678571 426.271579,231.166019 L426.271579,231.480088 Z M424.113997,217.661052 L401.818985,217.032914 C402.178582,222.058018 407.572536,221.743949 410.449312,219.859535 C412.247297,222.058018 415.843267,221.42988 417.641251,219.859535 C420.15843,222.372087 424.833191,220.801742 424.113997,217.661052 Z M426.990773,202.271671 L403.257373,202.271671 C403.257373,205.72643 408.651327,207.610844 412.606894,204.470154 C413.685685,208.553051 418.000848,207.296775 419.798833,205.72643 C422.675609,208.86712 428.788758,205.098292 426.990773,202.58574 L426.990773,202.271671 Z M425.552385,191.907394 L403.976567,192.221463 C403.976567,195.362153 409.010924,196.618429 410.808909,194.105877 C411.8877,195.676222 415.48367,195.362153 416.562461,194.105877 C418.000848,196.30436 420.15843,194.734015 420.877624,194.105877 C423.394803,195.676222 425.911982,194.734015 425.552385,191.907394 Z M450.364576,198.816912 L424.473594,198.502843 C424.473594,200.701326 426.990773,201.643533 428.788758,200.701326 C428.788758,203.213878 432.384727,203.842016 434.901906,201.957602 C436.340294,204.156085 441.015054,204.470154 442.813039,201.957602 C446.409009,204.784223 450.724173,202.58574 450.004979,198.816912 L450.364576,198.816912 Z M450.004979,217.346983 L424.833191,217.346983 C424.833191,220.487673 428.788758,221.42988 431.305936,219.859535 C431.665533,222.372087 434.901906,222.686156 436.699891,221.115811 C439.21707,223.314294 442.813039,223.628363 444.970621,221.115811 C447.847397,222.058018 450.364576,219.859535 450.004979,217.346983 Z M448.566591,233.99264 L428.429161,233.99264 C428.429161,237.13333 432.744324,237.13333 434.542309,235.562985 C436.699891,237.761468 439.576667,237.761468 441.374651,236.191123 C443.89183,238.075537 448.206994,237.447399 448.566591,233.99264 Z" id="Shape" stroke="#000000" stroke-width="0.5" fill="#FFFFFF" fill-rule="nonzero"></path>
            <path d="M416.562461,260.374436 C405.774552,260.374436 394.627045,260.374436 387.075509,259.746298 C379.523973,259.11816 377.366391,257.861884 371.972436,255.035263 L351.835006,244.356917 C350.037021,243.728779 348.239037,244.670986 350.756215,245.927262 L370.893646,257.547815 C376.2876,260.688505 379.88357,263.515126 383.119942,266.969885 C387.435106,271.052782 390.311882,271.052782 392.469464,270.424644 C394.627046,269.796506 397.503821,268.854299 400.740194,269.482437 C403.61697,270.110575 407.932133,270.424644 410.089715,270.110575 C411.8877,271.68092 416.562461,271.366851 419.079639,270.738713 C421.596818,270.110575 423.394803,270.110575 425.192788,270.424644 C426.990773,270.738713 429.507951,270.424644 431.305936,270.424644 C433.103921,270.424644 437.778682,269.482437 441.015054,269.796506 C444.611024,270.424644 447.847397,269.796506 450.004979,269.796506 C452.353516,269.269316 454.799884,269.162484 457.196918,269.482437 C459.3545,268.226161 460.073694,266.655816 460.792888,265.085471 C462.95047,264.771402 463.669664,264.457333 464.02926,263.515126 L466.186842,258.490022 L466.906036,258.490022 L466.906036,256.605608 L465.467648,254.721194 L466.186842,251.580504 L467.984827,250.952366 L467.265633,247.811676 L435.6211,248.439814 C434.496784,249.35983 433.740459,250.570871 433.463518,251.894573 L424.113997,253.150849 C423.035206,253.464918 421.956415,253.464918 420.877624,254.721194 L416.562461,260.374436 Z" id="Path" stroke="#000000" stroke-width="0.5" fill="#000000"></path>
            <path d="M454.320142,248.125745 L458.994903,232.736364 C459.714097,231.166019 457.916112,230.85195 457.196918,232.736364 L452.522157,248.125745 L454.320142,248.125745 Z" id="Path" stroke="#000000" stroke-width="0.5" fill="#000000"></path>
            <path d="M472.659588,230.85195 C468.704021,232.422295 466.546439,233.364502 464.748454,232.736364 C462.95047,232.108226 460.792888,231.794157 459.3545,232.422295 C459.366517,232.526722 459.366517,232.631937 459.3545,232.736364 C458.054247,236.719173 456.735714,240.697412 455.398933,244.670986 C458.275709,245.613193 463.310067,245.613193 464.388857,244.670986 C465.827245,243.41471 469.063618,243.728779 470.861603,243.728779 C471.940394,242.472503 472.299991,240.902158 471.940394,240.27402 C471.580797,239.645882 471.940394,238.075537 471.940394,237.13333 C471.940394,236.191123 473.378782,232.736364 472.659588,230.85195 Z" id="Path" stroke="#000000" stroke-width="0.5" fill="#FFFFFF"></path>
            <path d="M382.041152,201.329464 C375.065495,217.177483 365.364845,232.004301 353.273394,245.299124 M360.465333,249.067952 C376.414841,237.830084 390.247607,224.476933 401.459388,209.495258 M376.2876,223.000225 C375.208809,231.480088 372.332033,246.5554 370.893646,254.407125 M380.243167,241.844365 C376.647197,244.985055 371.972436,250.010159 368.01687,252.83678 M413.685685,224.884639 C410.808909,227.397191 407.572536,230.537881 404.336164,231.166019 M415.48367,225.512777 C418.128995,228.149545 421.457952,230.195551 425.192788,231.480088 M413.685685,212.00781 C410.545143,214.412574 406.873639,216.229682 402.897776,217.346983 M415.124073,212.321879 C417.281655,214.206293 419.798833,216.404776 423.035206,217.661052 M403.61697,202.271671 C407.214593,201.352304 410.531706,199.742783 413.326088,197.560636 M414.404879,197.560636 C416.922058,199.759119 421.596818,201.957602 424.113997,202.58574 M404.336164,192.221463 C407.722076,191.703562 410.783684,190.143739 412.966491,187.824497 M414.045282,187.196359 C416.562461,189.080773 421.237221,191.593325 423.7544,191.907394 M435.261503,194.419946 C433.823115,195.990291 429.867548,198.502843 427.35037,198.502843 M437.059488,194.419946 C438.138279,195.990291 441.015054,198.502843 442.813039,198.502843 M425.552385,217.346983 C429.403732,216.084718 432.855283,214.039127 435.6211,211.379672 M437.419085,211.693741 C439.153293,214.023047 441.494682,215.960367 444.251427,217.346983 M429.507951,233.678571 C430.946339,233.678571 434.901906,231.794157 435.980697,229.595674 M438.138279,228.653467 C440.128673,230.81335 442.568879,232.624918 445.330218,233.99264 M378.085585,236.819261 C382.760346,235.562985 391.75027,230.537881 396.42503,225.826846 M387.794703,231.794157 C391.390673,233.99264 396.065433,236.505192 399.301806,237.13333 M377.006794,223.000225 C379.523973,222.058018 383.119942,220.487673 385.637121,218.28919 M387.435106,217.975121 C388.513897,219.231397 396.065433,223.314294 399.301806,223.314294 M385.637121,204.784223 C382.903312,206.626642 379.874302,208.108128 376.647197,209.181189 M387.435106,204.784223 C389.952285,206.354568 395.346239,209.181189 398.582612,209.181189 M385.637121,192.221463 C383.479539,194.105877 379.88357,197.246567 377.006794,198.188774 M387.435106,192.535532 C388.873494,194.734015 393.188658,197.874705 396.065433,198.188774 M424.833191,206.354568 C431.665533,216.718845 443.89183,229.595674 456.118127,236.505192 M405.414955,194.734015 C415.48367,207.296775 434.901906,234.620778 453.600948,244.670986 M457.196918,233.99264 C452.388852,239.712335 446.415814,244.60974 439.576667,248.439814 M455.75853,237.447399 C449.645382,228.653467 446.409009,217.661052 441.374651,202.899809 M391.031076,241.844365 L398.223015,260.688505 M389.592688,241.530296 L396.42503,260.374436 M387.794703,240.588089 L394.267449,260.060367 M387.075509,240.902158 L392.109867,260.060367 M392.109867,259.432229 L398.223015,259.432229 M397.503821,257.547815 L391.75027,257.547815 M396.784627,255.97747 L391.031076,255.97747 M396.065433,254.407125 L390.311882,254.407125 M394.986642,252.522711 L390.311882,252.522711 M389.952285,250.952366 L394.627045,250.952366 M389.592688,249.69609 L394.267449,249.69609 M389.233091,248.125745 L393.548255,248.125745 M388.873494,246.869469 L392.829061,246.869469 M388.513897,245.299124 L392.109867,245.299124 M388.1543,244.042848 L391.75027,244.042848 M387.794703,243.100641 L391.390673,243.100641 M387.794703,241.844365 L391.031076,241.844365 M381.681555,241.844365 L377.366391,257.547815 M382.760346,241.844365 L379.164376,258.175953 M383.839136,241.216227 L380.962361,258.490022 M385.277524,240.902158 L383.119942,259.11816 M385.637121,257.861884 L378.445182,257.861884 M385.637121,256.291539 L377.366391,256.291539 M385.637121,254.407125 L378.085585,254.407125 M385.277524,252.83678 L378.445182,252.83678 M385.637121,251.266435 L378.804779,251.266435 M385.637121,249.382021 L379.523973,249.382021 M385.637121,247.811676 L379.523973,247.811676 M385.277524,246.241331 L379.88357,246.241331 M385.277524,244.670986 L380.602764,244.670986 M385.277524,243.100641 L380.962361,243.100641 M385.277524,242.158434 L381.321958,242.158434 M384.917927,259.432229 L384.917927,240.902158 M408.29173,234.620778 L393.907852,260.060367 M409.370521,234.306709 L397.144224,260.374436 M410.089715,233.99264 L400.380597,260.374436 M411.168506,234.620778 L403.257373,260.374436 M403.61697,259.432229 L394.627046,259.432229 M404.336164,256.919677 L395.705836,256.919677 M404.695761,255.035263 L397.503821,255.035263 M406.134148,253.150849 L398.942209,253.150849 M406.493745,251.266435 L399.661403,251.266435 M407.212939,249.382021 L400.740194,249.382021 M407.932133,247.183538 L402.178582,247.183538 M408.29173,245.613193 L402.897776,245.613193 M409.010924,243.728779 L403.976567,243.728779 M409.370521,242.472503 L404.695761,242.472503 M409.730118,241.216227 L404.695761,241.216227 M409.370521,239.959951 L405.774552,239.959951 M409.370521,239.017744 L406.134149,239.017744 M409.730118,237.761468 L406.853342,237.761468 M410.449312,236.505192 L407.572536,236.505192 M410.449312,235.562985 L407.932133,235.562985 M420.15843,235.248916 L426.271579,252.83678 M421.237221,235.562985 L428.788758,252.522711 M422.316012,235.562985 L431.305936,252.208642 M433.463518,250.638297 L423.394803,235.248916 M433.463518,250.952366 L426.271579,250.952366 M432.744324,248.439814 L425.552385,248.439814 M431.665533,246.5554 L424.833191,246.5554 M430.227145,244.356917 L424.113997,244.356917 M428.788758,242.472503 L423.394803,242.472503 M427.35037,240.27402 L422.675609,240.27402 M426.271579,238.075537 L421.956415,238.075537 M424.833191,236.191123 L421.237221,236.191123 M432.744324,236.505192 L426.271579,252.83678 M434.542309,235.877054 L428.788758,252.522711 M431.305936,252.208642 L435.6211,236.505192 M436.699891,237.13333 L433.103921,251.894573 M426.990773,250.952366 L433.103921,250.952366 M427.709967,249.067952 L433.823115,249.067952 M428.429161,246.869469 L434.182712,246.869469 M429.507951,244.985055 L434.901906,244.985055 M430.227145,242.786572 L435.261503,242.786572 M430.946339,240.902158 L435.6211,240.902158 M432.02513,238.703675 L436.340294,238.703675 M432.744324,236.819261 L436.340294,236.819261 M439.576667,237.13333 L442.453442,248.439814 M440.655457,236.505192 L444.611024,248.125745 M442.093845,236.505192 L446.409009,248.125745 M443.89183,237.13333 L448.566591,248.125745 M448.206994,247.183538 L442.093845,247.183538 M447.4878,245.613193 L441.734248,245.613193 M446.768606,244.042848 L441.374651,244.042848 M446.049412,242.158434 L440.655457,242.158434 M444.970621,240.588089 L439.936264,240.588089 M444.251427,239.017744 L439.576667,239.017744 M443.532233,237.447399 L439.21707,237.447399" id="Shape" stroke="#000000" stroke-width="0.5"></path>
            <path d="M384.429375,266.21 C387.315,264.6 392.284688,264.88 394.849688,266.56 C397.815469,265.09 403.266094,265.51 405.750938,267.47 C409.598438,265.16 412.884844,264.81 416.572031,267.05 C419.888157,265.12011 424.223572,265.175788 427.473281,267.19 C430.839844,265.79 434.527031,264.67 437.813438,267.68 C434.594941,265.786392 430.32147,266.016053 427.393125,268.24 C424.186875,265.44 418.495781,266.49 416.572031,268.45 C415.20913,267.117371 413.250801,266.367191 411.205033,266.394057 C409.159265,266.420922 407.227651,267.222186 405.91125,268.59 C402.544688,266.14 397.575,266.07 394.849688,267.89 C392.685469,266.49 389.479219,265.23 384.429375,266.21 Z" id="Path" fill="#00B800"></path>
            <path d="M435.488906,262.71 C420.66,264.95 388.196719,263.41 381.142969,261.8 C378.738281,261.31 379.379531,260.54 381.463594,260.96 C389.639531,262.57 407.113594,262.57 416.732344,262.15 C418.575937,260.05 421.541719,256.34 422.423437,255.29 C423.305156,254.24 423.705937,254.17 425.629687,253.89 L433.645312,252.7 L433.645312,253.68 C433.485,253.89 433.244531,254.17 433.004062,254.24 C433.004062,255.92 433.404844,259.98 433.805625,261.45 L434.847656,261.24 C435.488906,261.1 436.130156,262.57 435.488906,262.71 Z" id="Path" fill="#CF6200"></path>
            <path d="M459.856406,263.34 L461.860312,263.34 C462.421406,263.34 463.303125,262.92 463.62375,262.15 L465.627656,257.04 L464.104688,255.08 L464.90625,250.81 L466.83,250.11 C466.910156,249.83 466.749844,248.78 466.349063,248.5 L437.3325,249.34 C436.450781,249.34 436.05,249.34 435.729375,250.32 C433.995698,257.243187 436.842629,264.431574 443.10375,268.94 C443.584688,269.29 444.225937,268.94 443.424375,268.38 C441.854717,267.031874 440.506012,265.500713 439.416563,263.83 L444.225938,263.76 C444.546563,265.16 445.748906,267.96 445.989375,268.52 C446.229844,269.08 446.790938,269.08 446.470313,268.31 C445.829063,266.63 445.508438,264.67 445.267969,263.69 L450.077344,263.69 L450.478125,267.89 C450.478125,268.45 451.039219,268.45 451.039219,267.82 L451.039219,263.62 L455.447813,263.48 L455.047031,267.68 C454.966875,268.38 455.367656,268.66 455.527969,267.68 L456.169219,263.48 L459.215156,263.34 C459.135,264.25 458.173125,266.84 457.932656,267.54 C457.692188,268.24 458.092969,268.24 458.413594,267.61 C458.734219,266.91 459.77625,264.32 459.856406,263.41 L459.856406,263.34 Z" id="Path" fill="#CF6200"></path>
            <path d="M438.615,262.71 C438.134063,261.8 436.530937,258.58 436.370625,256.27 L442.783125,256.2 C443.023594,257.95 443.584688,261.73 443.985469,262.57 L438.615,262.71 Z M443.905313,256.13 C444.065625,257.53 444.867188,262.08 445.0275,262.57 L450.1575,262.5 L449.836875,255.99 L443.905313,256.13 Z M436.69125,250.46 C436.448207,252.03719 436.367728,253.630246 436.450781,255.22 L442.622813,255.08 L442.141875,250.32 L436.69125,250.46 Z M443.344219,250.32 C443.344219,251.44 443.664844,254.24 443.745,255.08 L449.836875,254.94 L449.51625,250.11 L443.344219,250.32 Z M450.718594,250.11 L450.959063,254.94 C452.401875,254.94 455.2875,254.94 456.169219,254.8 C456.249375,253.75 456.409687,250.67 456.329531,249.9 L450.718594,250.11 Z M457.371563,249.9 L457.21125,254.8 L462.902344,254.59 C463.142812,253.54 463.703906,250.81 463.703906,249.69 L457.371563,249.9 Z M463.142813,255.71 L457.131094,255.85 L456.57,262.29 L462.34125,262.15 C463.148764,260.554974 463.84473,258.918635 464.425313,257.25 C464.024531,256.55 463.62375,256.27 463.142813,255.71 Z M450.959063,255.99 L451.119375,262.43 L455.527969,262.29 L456.089063,255.85 L450.959063,255.99 Z M426.110625,254.73 L423.705938,255.08 C421.857017,257.482575 419.932535,259.840139 417.934687,262.15 L426.43125,261.94 L426.190781,254.73 L426.110625,254.73 Z M427.232812,254.52 L427.553437,261.87 L432.683437,261.52 L431.881875,253.82 L427.232812,254.52 Z" id="Shape" fill="#000000" fill-rule="nonzero"></path>
            <path d="M402.178582,237.13333 L374.489615,237.13333 L374.489615,236.505192 L402.178582,236.819261 L402.178582,237.13333 Z M423.7544,217.661052 C424.113997,217.661052 424.113997,217.661052 423.7544,217.661052 L402.178582,217.346983 C401.818985,217.346983 401.818985,217.346983 402.178582,217.346983 L423.7544,217.346983 L423.7544,217.661052 Z M400.740194,223.000225 C401.099791,223.000225 401.099791,223.314294 400.740194,223.314294 L376.2876,223.314294 C375.928003,223.314294 376.2876,223.000225 376.2876,223.000225 L400.740194,223.000225 Z M401.459388,209.181189 C401.818985,209.181189 401.818985,209.495258 401.459388,209.495258 L375.928003,209.495258 C375.568406,209.495258 375.568406,209.181189 375.928003,209.181189 L401.459388,209.181189 Z M399.661403,198.188774 C400.021,198.188774 400.021,198.502843 399.661403,198.502843 L374.849212,198.502843 C374.489615,198.502843 374.849212,197.874705 374.849212,197.874705 L400.021,198.188774 L399.661403,198.188774 Z" id="Shape" stroke="#000000" stroke-width="0.5" fill="#000000" fill-rule="nonzero"></path>
            <path d="M425.552385,191.907394 L403.976567,192.221463 L425.552385,191.907394 Z" id="Path" stroke="#000000" stroke-width="0.5" fill="#FFFFFF"></path>
            <path d="M426.631176,202.58574 C426.990773,202.58574 426.990773,202.58574 426.631176,202.58574 L403.257373,202.58574 C402.897776,202.58574 402.897776,202.58574 403.257373,202.58574 L426.631176,202.58574 Z M450.004979,217.032914 L450.004979,217.346983 L424.833191,217.346983 C424.113997,217.346983 424.113997,217.346983 424.833191,217.346983 L450.004979,217.346983 L450.004979,217.032914 Z M450.004979,198.502843 C450.724173,198.502843 450.724173,198.816912 450.004979,198.816912 L424.473594,198.816912 C424.113997,198.816912 424.113997,198.502843 424.473594,198.502843 L450.364576,198.502843 L450.004979,198.502843 Z M426.271579,231.166019 C426.631176,231.166019 426.631176,231.480088 426.271579,231.480088 L403.257373,231.480088 L403.257373,231.166019 L426.271579,231.166019 Z M448.566591,233.99264 C448.926188,233.99264 448.926188,233.99264 448.566591,233.99264 L428.429161,233.99264 L448.566591,233.99264 Z" id="Shape" stroke="#000000" stroke-width="0.5" fill="#000000" fill-rule="nonzero"></path>
            <path d="M466.906036,237.13333 C467.303077,235.688186 467.303077,234.181508 466.906036,232.736364 C466.200737,232.910984 465.453753,232.910984 464.748454,232.736364 C464.403602,232.508284 464.043354,232.298526 463.669663,232.108226 C463.669663,233.364502 462.95047,236.819261 462.231276,238.075537 C461.152485,238.075537 458.635306,238.075537 457.556515,237.447399 L456.477724,240.588089 C458.254581,240.928546 460.094822,240.928546 461.871679,240.588089 C461.871679,242.472503 461.512082,244.042848 460.433291,245.299124 C462.231276,245.299124 464.02926,245.299124 464.388857,244.356917 C465.467648,243.100641 465.467648,241.216227 465.827245,240.27402 L467.62523,239.959951 L469.423215,239.331813 L471.940394,239.017744 L471.940394,237.13333 L472.659588,235.877054 L466.906036,237.447399 L466.906036,237.13333 Z" id="Path" stroke="#000000" stroke-width="0.5" fill="#EF072D"></path>
            <path d="M377.725988,130.978008 C374.849212,130.978008 368.376467,130.978008 366.938079,131.606146 C365.859288,132.234284 365.499691,132.548353 367.657273,132.862422 C369.814855,133.176491 373.770421,134.432767 375.928003,135.374974 C378.085585,136.63125 379.523973,138.515664 379.523973,141.656354 C377.907724,149.587771 382.243062,157.539312 390.311882,161.442701 C390.671479,161.75677 391.031076,162.070839 390.671479,163.327115 L389.592688,166.781874 C389.592688,167.410012 389.233091,168.03815 390.311882,167.724081 C389.204408,169.447592 388.004416,171.124493 386.715912,172.749185 C380.962361,172.121047 375.928003,172.749185 375.928003,178.402427 C375.928003,179.030565 375.928003,179.658703 376.647197,178.402427 C377.725988,177.146151 378.804779,175.889875 381.321958,175.261737 C379.88357,177.46022 379.164376,179.344634 379.523973,180.60091 C379.523973,181.543117 380.243167,182.171255 380.962361,180.60091 C381.321958,179.344634 382.760346,178.088358 383.839136,177.146151 C384.55833,176.832082 384.55833,176.832082 384.198733,177.774289 C383.839136,178.716496 384.55833,180.60091 385.277524,181.229048 C385.996718,181.857186 386.356315,181.543117 385.996718,180.60091 C385.996718,179.344634 385.996718,177.146151 387.794703,176.518013 C389.952285,175.261737 392.109867,175.889875 392.829061,177.146151 C393.907852,178.716496 394.627046,177.146151 393.548255,175.889875 C392.469464,174.633599 391.390673,173.063254 389.952285,173.063254 L393.548255,167.724081 C393.548255,167.095943 394.267449,166.781874 394.986642,167.095943 C394.986642,167.410012 395.705836,167.410012 396.065433,166.467805 L398.582612,162.070839 L400.740194,161.442701 L404.336164,166.153736 L404.336164,168.03815 C404.336164,169.294426 402.897776,172.121047 402.538179,173.063254 C398.223015,173.063254 396.065433,173.063254 394.627046,175.261737 C393.907852,176.203944 394.986642,176.518013 396.065433,176.203944 C397.144224,175.575806 398.582612,175.261737 399.661403,175.261737 C400.380597,175.261737 400.740194,175.889875 399.661403,176.203944 C397.144224,177.146151 395.346239,178.716496 395.346239,180.914979 C395.346239,181.543117 396.065433,181.857186 396.42503,180.914979 C397.503821,179.344634 399.301806,178.088358 401.099791,177.774289 C401.099791,179.344634 401.459388,181.857186 402.897776,182.485324 C403.976567,183.113462 403.976567,182.485324 403.61697,181.543117 C402.897776,179.972772 403.61697,178.402427 404.695761,177.46022 C406.493745,175.575806 410.808909,178.088358 411.8877,178.716496 C412.606894,179.344634 413.326088,179.658703 412.606894,177.774289 C412.247297,175.575806 408.651327,174.633599 405.414955,174.005461 L409.730118,160.814563 C411.528103,161.75677 413.326088,159.244218 416.202864,160.186425 C421.237221,162.070839 428.788758,166.153736 429.867548,167.095943 C431.305936,168.03815 431.665533,167.724081 432.384727,167.095943 C433.103921,166.781874 434.182712,167.095943 435.261503,167.095943 C435.980697,167.410012 436.699891,167.724081 435.6211,165.839667 C433.566819,162.533117 430.600471,159.726434 426.990773,157.673873 C429.867548,157.673873 433.463518,157.673873 433.463518,157.045735 C433.463518,156.417597 429.148355,155.161321 427.35037,155.161321 C429.496504,154.802435 431.487512,153.932971 433.103921,152.648769 C433.823115,152.020631 433.103921,151.706562 430.227145,151.706562 C422.675609,151.706562 418.720042,151.706562 414.764476,149.822148 C408.29173,146.681458 404.336164,142.91263 401.099791,141.656354 C399.661403,140.714147 398.582612,138.829733 397.503821,137.259388 C395.705836,132.548353 395.705836,130.035801 391.031076,128.465456 C386.356315,126.895111 380.243167,128.779525 377.725988,130.978008 Z" id="Path" stroke="#000000" stroke-width="0.5" fill="#000000"></path>
            <path d="M378.085585,132.234284 L371.972436,132.234284 C371.972436,132.234284 371.253243,132.234284 371.972436,132.234284 L377.366391,133.49056 C378.445182,133.49056 378.085585,134.432767 377.366391,134.118698 C376.647197,133.804629 375.928003,134.118698 376.647197,134.746836 C380.243167,136.945319 380.962361,137.887526 380.243167,146.367389 L382.041152,147.623665 C382.760346,147.623665 382.400749,148.251803 382.041152,147.937734 C381.681555,147.623665 380.243167,147.937734 381.321958,148.565872 C382.400749,149.19401 383.119943,149.19401 382.041152,149.19401 C380.962361,149.19401 379.88357,149.822148 382.041152,149.508079 C383.839136,149.508079 384.917927,150.136217 382.041152,150.450286 C379.88357,150.450286 380.602764,151.078424 382.041152,151.078424 C384.55833,151.078424 383.839136,151.706562 383.119943,151.706562 C382.400749,151.706562 382.041152,152.3347 383.839136,152.3347 L386.356315,152.3347 C386.715912,152.3347 387.075509,152.3347 386.356315,152.648769 C385.637121,152.648769 385.637121,153.276907 386.715912,153.276907 C387.794703,153.276907 388.513897,153.276907 387.435106,153.590976 C387.075509,153.590976 386.356315,153.905045 387.435106,154.219114 C389.952285,154.219114 390.311882,154.847252 389.592688,155.161321 C388.873494,155.47539 388.513897,155.47539 389.592688,155.47539 C390.671479,155.47539 391.75027,155.789459 390.671479,156.103528 C389.952285,156.103528 389.592688,156.731666 390.671479,156.731666 C391.75027,156.731666 392.469464,157.359804 391.75027,157.673873 C391.031076,157.987942 390.671479,158.302011 391.75027,158.302011 C392.829061,158.302011 393.188658,158.61608 392.469464,158.930149 C391.75027,159.558287 391.390673,159.558287 390.671479,158.930149 C390.671479,158.302011 389.952285,158.302011 389.952285,158.930149 L389.233091,157.987942 C388.873494,157.045735 388.1543,157.045735 388.1543,157.987942 C388.1543,158.930149 387.435106,158.302011 386.715912,157.987942 C390.272786,161.623278 396.215631,162.661364 401.099791,160.500494 C401.459388,160.500494 401.818985,160.500494 402.178582,161.442701 L404.336164,164.89746 C404.695761,165.525598 405.414955,164.89746 405.414955,164.269322 L407.572536,158.930149 C407.572536,157.987942 409.010924,157.359804 408.651327,159.872356 C409.730118,159.244218 414.045282,158.930149 417.641252,159.872356 C421.093073,161.077105 424.355585,162.660133 427.35037,164.583391 C427.86642,164.91636 428.525371,165.031464 429.148355,164.89746 C430.227145,164.89746 430.586742,164.89746 428.788758,163.327115 C426.990773,161.75677 427.709967,161.128632 428.788758,161.75677 C429.867548,162.384908 430.586742,162.070839 429.507951,161.128632 L425.911982,158.302011 C425.552385,158.302011 425.552385,157.673873 423.7544,157.673873 L418.360445,157.673873 C417.641252,157.673873 416.922058,157.673873 419.079639,158.302011 C421.237221,158.930149 425.192788,161.442701 426.271579,162.070839 C427.35037,162.698977 427.709967,163.955253 425.911982,162.698977 C424.113997,161.442701 417.281655,157.987942 412.966491,156.417597 C403.257373,157.359804 395.346239,158.302011 389.592688,152.962838 C386.715912,150.136217 386.715912,144.168906 391.390673,141.656354 C390.671479,141.028216 390.671479,140.400078 391.031076,140.400078 C391.390673,140.400078 391.390673,140.086009 391.031076,139.457871 L391.031076,138.515664 C390.311882,138.201595 389.592688,137.573457 389.592688,136.945319 C388.513897,136.945319 387.794703,135.374974 385.996718,136.003112 C384.198733,136.63125 383.839136,136.003112 383.119943,135.689043 C382.760346,135.060905 382.400749,135.060905 381.321958,135.060905 C380.243167,135.060905 379.523973,135.060905 379.523973,134.432767 C379.523973,133.804629 380.243167,133.804629 381.681555,134.432767 C384.198733,135.374974 386.356315,136.003112 388.1543,133.804629 C389.592688,131.920215 387.435106,130.34987 384.55833,129.721732 C381.321958,129.093594 379.164376,131.292077 377.725988,132.234284 L378.085585,132.234284 Z" id="Path" stroke="#000000" stroke-width="0.5" fill="#FFFFFF"></path>
            <path d="M393.907852,131.292077 C392.873911,130.45047 391.648684,129.808408 390.311882,129.407663 C389.233091,129.407663 389.233091,130.035801 389.592688,130.34987 L389.592688,132.234284 C390.311882,132.548353 390.671479,133.176491 389.592688,133.176491 C388.873494,133.804629 389.592688,136.003112 390.671479,135.374974 L391.390673,135.374974 C391.390673,135.374974 391.390673,136.317181 392.109867,136.317181 C392.829061,136.317181 392.109867,136.945319 392.109867,137.259388 L392.829061,137.259388 C393.548255,137.259388 393.188658,138.515664 392.469464,138.829733 C393.548255,138.829733 393.907852,138.829733 393.907852,139.457871 C394.267449,140.086009 395.346239,140.400078 395.346239,141.342285 C395.346239,142.284492 395.346239,142.284492 393.907852,141.970423 C392.469464,141.656354 392.469464,141.970423 392.109867,142.598561 C391.75027,143.226699 391.390673,143.540768 392.109867,143.540768 C392.829061,143.540768 393.548255,143.854837 392.469464,144.168906 C391.390673,144.482975 390.311882,144.168906 389.952285,145.111113 C389.952285,146.05332 389.952285,146.367389 390.671479,146.05332 L393.188658,144.797044 L394.986642,145.111113 C395.705836,145.425182 394.986642,146.681458 394.267449,146.05332 C393.548255,145.425182 392.829061,146.05332 392.469464,146.367389 L390.671479,146.995527 C389.952285,146.995527 389.233091,146.995527 389.592688,148.565872 C389.592688,152.962838 393.548255,156.103528 400.740194,156.103528 L412.606894,156.103528 C410.449312,154.847252 409.010924,154.219114 407.932133,154.219114 C406.853342,154.219114 406.493745,154.533183 406.853342,154.219114 C407.212939,153.905045 406.853342,153.276907 406.493745,153.276907 C406.134148,153.276907 405.414955,152.648769 404.695761,153.276907 L401.099791,154.847252 C400.380597,154.847252 399.301806,154.847252 400.380597,154.219114 L403.61697,152.962838 C404.336164,152.962838 403.976567,152.3347 403.976567,152.3347 C403.976567,152.3347 403.976567,151.392493 405.055358,151.706562 C407.212939,152.962838 410.449312,154.533183 411.528103,154.533183 C412.606894,154.533183 412.966491,153.905045 412.247297,153.590976 C411.528103,153.276907 411.168506,152.648769 411.168506,152.3347 C411.168506,152.020631 411.528103,151.706562 412.966491,152.3347 C414.404879,153.276907 416.562461,153.905045 417.641251,154.219114 C418.720042,154.533183 419.439236,154.533183 417.641251,153.590976 L409.370521,148.251803 C408.29173,147.309596 408.29173,148.251803 408.651327,148.879941 C409.010924,149.508079 407.572536,149.822148 406.853342,149.19401 C406.134148,148.565872 405.774552,148.251803 406.853342,147.937734 C407.932133,147.623665 407.572536,147.309596 406.493745,146.367389 C405.055358,145.425182 404.695761,145.425182 405.055358,146.367389 C405.414955,147.309596 405.414955,147.937734 404.336164,147.623665 C403.257373,147.309596 402.178582,146.681458 403.257373,146.367389 C403.976567,145.739251 405.055358,145.425182 403.257373,144.482975 C401.459388,143.540768 402.538179,144.482975 402.178582,145.111113 C401.818985,145.739251 400.740194,145.739251 400.380597,145.111113 C400.021,144.482975 399.301806,144.168906 399.661403,143.854837 C400.021,143.540768 400.021,143.226699 400.740194,143.854837 C401.459388,144.482975 402.178582,143.854837 401.099791,142.91263 C400.021,141.970423 399.661403,142.284492 400.021,142.91263 C400.380597,143.540768 399.301806,144.168906 397.863418,142.91263 C397.144224,142.598561 397.144224,141.970423 397.863418,141.656354 C398.582612,141.656354 398.582612,141.342285 397.863418,140.714147 C395.346239,136.945319 396.42503,134.118698 393.548255,131.292077 L393.907852,131.292077 Z" id="Path" stroke="#000000" stroke-width="0.5" fill="#FFFFFF"></path>
            <path d="M394.048125,131.88 C393.807656,132.23 393.7275,132.16 393.246562,132.44 C392.765625,132.79 392.605312,133.7 393.567187,133.63 C394.208438,133.49 394.609219,133.21 394.849688,132.93 C394.619245,132.559639 394.350967,132.208211 394.048125,131.88 Z M391.1625,129.85 C390.441094,130.48 390.360937,130.76 390.681562,130.76 C391.1625,130.76 390.922031,130.76 390.681562,131.25 C390.280781,131.67 391.242656,131.88 391.643437,131.53 C392.044219,131.18 392.044219,131.11 392.284687,131.53 C392.364844,131.88 393.08625,131.53 393.406875,131.25 C392.765625,130.69 391.883906,130.2 391.1625,129.85 Z M389.88,133.35 C388.918125,133.77 389.23875,135.94 390.681562,135.31 C391.1625,135.1 391.483125,135.24 391.483125,135.52 C391.402969,135.73 391.402969,135.87 391.483125,136.08 C392.096158,135.864488 392.644546,135.529255 393.08625,135.1 C393.887812,134.19 393.08625,134.26 391.80375,134.26 C390.52125,134.26 390.200625,134.05 391.402969,133.42 C392.525156,132.79 391.723594,132.44 390.200625,132.58 C390.441094,132.86 390.360937,133.14 389.88,133.35 Z M395.250469,138.18 C394.529062,137.48 395.01,137.2 395.731406,136.85 C395.891574,136.79009 396.0301,136.693311 396.132187,136.57 L395.490937,134.47 C395.170312,134.61 394.689375,135.38 394.529062,135.73 C394.36875,136.29 394.208437,136.57 393.567187,136.43 C393.006094,136.29 392.445,136.85 392.364844,137.41 L392.765625,137.41 C393.006094,137.48 393.08625,137.83 393.006094,138.11 C394.689375,138.11 395.01,139.09 395.330625,139.79 C395.65125,140.56 395.971875,140.49 396.212344,140 C396.452812,139.58 395.891719,138.81 395.250469,138.18 Z" id="Shape" fill="#CF6200" fill-rule="nonzero"></path>
            <path d="M395.731406,146.72 C395.410781,147.35 395.410781,147.28 394.36875,147.28 C393.406875,147.35 392.124375,147.49 391.563281,147.98 C391.322812,148.26 389.559375,148.4 389.559375,149.03 C389.559375,149.73 389.559375,150.22 390.360937,150.29 C391.082344,150.29 391.1625,150.43 390.922031,150.92 C390.601406,151.41 390.441094,152.18 391.723594,152.32 C393.006094,152.32 393.967969,152.04 394.288594,152.67 C394.609219,153.37 394.288594,154.35 394.529062,154.77 C394.769531,155.19 395.65125,155.4 397.013906,155.75 C397.975781,155.96 401.4225,156.17 402.464531,156.03 C403.506563,155.89 403.105781,155.33 402.06375,155.33 C401.021719,155.19 400.220156,155.05 399.979688,154.42 C399.739219,153.72 399.49875,153.37 400.14,152.81 C400.701094,152.18 401.262187,151.76 400.941562,150.78 C400.620938,149.87 400.059844,148.75 398.777344,148.47 C397.575,148.12 397.975781,146.65 396.693281,146.51 C396.212344,146.51 395.891719,146.51 395.731406,146.72 Z" id="Path" fill="#FFFF00"></path>
            <path d="M389.639531,155.54 C390.761719,155.68 391.643438,155.96 390.761719,156.17 C389.960156,156.38 389.399063,156.8 390.52125,156.87 C391.643437,156.94 392.605313,157.36 391.723594,157.57 C390.841875,157.78 390.761719,158.27 391.80375,158.27 C392.845781,158.27 393.326719,158.69 392.605313,159.11 C391.80375,159.46 391.322812,159.67 390.841875,159.04 C390.360937,158.34 390.040313,158.2 389.960156,158.69 C389.799844,159.18 389.479219,158.83 389.158594,158.13 C388.837969,157.43 388.036406,157.15 388.276875,157.71 C388.517344,158.27 387.635625,158.41 386.834062,158.13 C387.635625,158.83 388.437187,159.53 389.479219,160.02 C390.601406,159.67 391.883906,160.02 392.284687,160.02 C392.765625,160.02 394.208437,160.37 395.01,160.72 C395.811562,161.07 396.372656,160.44 396.052031,159.67 C395.65125,158.97 395.65125,159.18 395.250469,159.67 C394.769531,160.02 394.689375,159.46 394.769531,158.62 C394.769531,157.92 394.208437,158.06 394.048125,158.48 C393.887812,158.9 393.406875,158.2 393.647344,157.78 C393.887812,157.36 393.647344,157.15 393.246562,157.29 C392.845781,157.43 392.765625,157.29 392.685469,156.45 C392.605313,155.61 392.204531,155.75 392.124375,156.1 C392.044219,156.45 391.563281,155.96 391.002187,155.33 C390.52125,154.77 389.960156,155.12 388.998281,155.4 L389.639531,155.54 Z" id="Path" fill="#CF6200"></path>
            <path d="M401.021719,160.65 C395.891719,162.4 392.204531,161.63 389.479219,160.02 C390.601406,159.67 391.883906,160.02 392.364844,160.02 C392.765625,160.02 394.288594,160.37 395.01,160.72 C395.731406,161.07 396.372656,160.44 396.052031,159.67 C396.693281,160.44 397.254375,161 398.055938,160.93 C398.8575,160.93 400.300313,160.79 401.021719,160.65 Z M390.120469,140 C389.799844,139.09 389.479219,138.88 388.918125,138.95 C388.357031,138.95 388.116562,138.88 387.475312,138.67 C386.914219,138.46 386.112656,138.67 385.952344,139.72 C385.792031,140.77 385.150781,141.12 384.188906,141.82 C383.307187,142.38 382.746094,142.87 382.746094,143.85 C382.746094,144.83 382.505625,145.04 381.864375,145.81 L380.822344,146.86 L381.944531,147.42 C382.665937,147.7 382.425469,148.12 381.784219,147.98 C381.142969,147.84 380.421562,148.12 381.54375,148.33 C382.665937,148.54 383.146875,149.03 382.104844,149.03 C380.982656,148.89 379.700156,149.73 381.864375,149.52 C383.948437,149.31 384.75,150.22 382.345312,150.22 C379.860469,150.22 380.742187,150.92 382.104844,150.92 C384.429375,150.92 383.707969,151.55 383.066719,151.55 C382.505625,151.55 382.265156,152.25 383.788125,152.11 L384.349219,151.34 C384.589687,150.64 384.830156,148.75 385.711875,148.26 C386.513437,147.7 386.994375,146.86 386.994375,146.37 C386.994375,145.88 388.357031,143.43 389.158594,142.87 C389.960156,142.31 390.441094,140.98 390.120469,140.07 L390.120469,140 Z" id="Shape" fill="#FFFF00" fill-rule="nonzero"></path>
            <path d="M388.276875,140.14 C387.475312,139.58 386.593594,139.93 386.593594,140.84 C386.593594,141.75 385.952344,142.1 385.230937,142.45 C384.404784,142.843951 383.818595,143.535037 383.627812,144.34 C383.627812,145.11 383.788125,145.6 383.227031,146.23 C382.585781,146.79 382.505625,147.28 382.906406,147.63 C383.387344,147.98 383.387344,147.98 383.547656,148.47 C383.788125,148.96 384.830156,148.47 384.830156,147.91 C384.830156,147.35 385.070625,147.35 385.711875,147 C386.433281,146.72 387.555469,145.11 387.315,144.69 C387.074531,144.27 386.433281,143.85 387.315,143.29 C388.116562,142.66 388.918125,142.59 388.918125,142.03 C388.918125,141.4 389.158594,141.19 389.399063,140.98 C389.639531,140.77 388.837969,140.42 388.276875,140.14 Z" id="Path" fill="#CF6200"></path>
            <path d="M388.276875,139.3 C387.715781,139.16 387.395156,140.21 388.196719,140.35 C388.998281,140.49 389.078438,139.65 388.276875,139.37 L388.276875,139.3 Z M388.196719,140.7 C387.555469,140.77 386.834063,141.47 387.876094,141.4 C388.918125,141.33 389.318906,140.63 388.116562,140.7 L388.196719,140.7 Z M386.914219,142.03 C386.272969,142.31 386.433281,143.08 387.395156,142.52 C388.357031,141.96 388.517344,141.33 386.914219,142.03 Z M385.952344,143.15 C385.311094,143.43 385.39125,144.2 386.353125,143.64 C387.315,143.15 387.555469,142.45 385.952344,143.15 Z" id="Shape" fill="#000000" fill-rule="nonzero"></path>
            <path d="M384.669844,143.71 C384.028594,143.99 384.429375,144.69 385.311094,144.2 C386.192813,143.71 386.192813,143.01 384.669844,143.71 Z M385.471406,144.41 C384.75,144.69 385.150781,145.39 386.112656,144.9 C387.074531,144.41 386.994375,143.71 385.39125,144.41 L385.471406,144.41 Z" id="Shape" fill="#000000" fill-rule="nonzero"></path>
            <path d="M384.269062,144.69 C383.707969,144.97 384.10875,145.67 385.070625,145.18 C386.0325,144.69 385.872187,143.99 384.269062,144.69 Z M385.070625,145.46 C384.349219,145.74 384.75,146.44 385.711875,145.95 C386.67375,145.39 386.593594,144.76 384.990469,145.46 L385.070625,145.46 Z" id="Shape" fill="#000000" fill-rule="nonzero"></path>
            <path d="M383.948437,145.95 C383.307187,146.23 383.707969,146.93 384.669844,146.44 C385.631719,145.95 385.471406,145.25 383.948437,145.95 Z" id="Path" fill="#000000"></path>
            <path d="M383.948438,146.65 C383.387344,146.93 383.788125,147.7 384.75,147.14 C385.711875,146.58 385.551562,145.95 383.948438,146.65 Z" id="Path" fill="#000000"></path>
            <path d="M383.547656,153.51 C382.906406,153.58 382.425469,154.42 383.227031,154.56 C384.028594,154.7 384.269063,154.77 384.269063,155.26 C384.269063,155.75 384.509531,156.66 385.39125,156.66 C386.192812,156.73 386.994375,155.89 386.192812,155.61 C385.471406,155.33 384.830156,155.12 384.75,154.49 C384.75,153.93 383.948438,153.51 383.547656,153.51 Z" id="Path" fill="#CF6200"></path>
            <path d="M406.392187,148.82 L406.873125,149.24 C407.514375,149.66 408.636562,149.24 408.47625,148.89 C408.315937,148.54 407.674687,147.28 409.277812,148.26 L417.774375,153.44 C419.537812,154.56 418.415625,154.7 417.614062,154.35 C416.8125,154 414.407812,153.16 413.045156,152.46 C411.6825,151.76 411.442031,152.04 411.281719,152.25 C411.121406,152.46 411.281719,152.95 411.762656,153.37 C410.961094,153.44 409.598437,153.37 409.197656,152.53 C408.716719,151.62 407.594531,150.43 406.792969,149.59 C406.472344,149.24 406.392187,149.03 406.472344,148.89 L406.392187,148.82 Z" id="Path" fill="#FFFF00"></path>
            <path d="M452.802656,282.52 C451.680469,283.22 450.077344,284.48 451.119375,286.16 L451.520156,286.02 C455.974186,281.283769 459.918546,276.198903 463.303125,270.83 L463.383281,270.34 C462.124538,271.239491 460.71985,271.970797 459.215156,272.51 C459.77625,273.84 457.131094,275.52 455.768438,276.01 C456.329531,276.85 456.169219,278.11 454.966875,278.32 C455.207344,279.02 454.245469,279.02 453.123281,279.44 C452.001094,279.86 451.520156,280.14 451.119375,280.7 C451.680469,280.35 452.562187,280.14 452.962969,280.28 C453.36375,280.42 453.524063,280.98 452.7225,281.19 C451.920938,281.4 451.359844,281.75 451.039219,282.03 C452.241562,281.68 454.005,281.82 452.802656,282.52 Z" id="Path" fill="#00D860"></path>
            <path d="M397.503821,147.309596 C396.065433,146.367389 395.705836,146.995527 396.065433,147.309596 C396.42503,147.623665 396.065433,148.565872 394.986642,148.879941 L391.390673,148.879941 C390.671479,148.879941 389.592688,150.136217 391.390673,149.822148 L397.144224,148.879941 C397.863418,148.879941 398.582612,148.251803 397.144224,147.309596 L397.503821,147.309596 Z M400.021,149.19401 C398.942209,148.251803 398.582612,148.565872 398.942209,149.19401 C399.301806,149.822148 398.582612,150.136217 397.863418,150.136217 L392.829061,151.392493 C391.390673,151.392493 391.390673,152.3347 393.188658,152.3347 C394.986642,152.3347 398.582612,150.764355 398.942209,150.764355 C399.301806,150.764355 399.661403,149.822148 400.021,150.136217 C400.380597,150.450286 401.099791,150.136217 400.021,149.19401 Z M401.099791,151.706562 L397.503821,153.276907 C396.42503,153.276907 395.705836,154.219114 397.503821,154.219114 C399.301806,154.219114 401.099791,152.648769 401.818985,152.3347 L403.257373,151.706562 C403.257373,151.706562 404.695761,151.392493 403.257373,150.450286 C401.818985,149.508079 400.380597,150.450286 401.099791,150.764355 C401.818985,151.078424 401.099791,151.706562 401.099791,151.706562 Z" id="Shape" stroke="#000000" stroke-width="0.5" fill="#000000" fill-rule="nonzero"></path>
            <path d="M386.353125,131.25 C384.10875,129.92 381.54375,132.65 384.028594,134.19 C386.272969,135.52 388.5975,132.51 386.433281,131.25 L386.353125,131.25 Z" id="Path" fill="#000000"></path>
            <path d="M383.547656,132.44 L384.188906,132.44 C384.10875,133.14 384.830156,134.05 385.792031,133.84 C384.990469,134.4 383.387344,133.7 383.547656,132.44 Z M392.364844,162.19 C393.08625,162.4 395.490937,162.61 396.372656,162.61 L395.250469,164.36 C395.01,164.92 394.929844,164.99 394.849688,164.15 C394.849688,163.31 394.288594,162.75 393.807656,163.66 L392.845781,165.2 C392.605312,165.55 392.204531,165.69 392.364844,164.78 C392.525156,163.87 392.445,162.96 392.364844,162.19 Z" id="Shape" fill="#FFFFFF" fill-rule="nonzero"></path>
            <path d="M482.728303,186.254152 C482.728303,237.447399 473.378782,292.723543 397.144224,319.105339 C321.269264,292.723543 311.919743,237.447399 311.560146,186.254152 L482.728303,186.254152 Z M482.728303,186.254152 C482.728303,166.781874 481.649512,147.937734 482.009109,131.606146 C454.957744,122.443635 426.15725,117.860471 397.144224,118.101179 C378.085585,118.101179 340.6875,120.613731 312.27934,131.606146 C312.998534,147.937734 311.560146,166.781874 311.560146,186.254152 L482.728303,186.254152 Z" id="Shape" stroke="#000000" stroke-width="1.345935"></path>
        </g>
    </g>
</svg>