<?xml version="1.0" encoding="UTF-8"?>
<svg width="15px" height="15px" viewBox="0 0 15 15" version="1.1" xmlns="http://www.w3.org/2000/svg" xmlns:xlink="http://www.w3.org/1999/xlink">
    <!-- Generator: Sketch 52.4 (67378) - http://www.bohemiancoding.com/sketch -->
    <title>close_white</title>
    <desc>Created with Sketch.</desc>
    <g id="homepage" stroke="none" stroke-width="1" fill="none" fill-rule="evenodd">
        <g id="Cookies_ribbon_mobile(576)-" transform="translate(-541.000000, -825.000000)" fill="#FFFFFF">
            <g id="Group-4" transform="translate(0.000000, 805.000000)">
                <g id="delete-cross" transform="translate(541.000000, 20.000000)">
                    <path d="M0.132603426,14.8674148 C0.220981573,14.9557566 0.336803651,14.9999638 0.452625729,14.9999638 C0.568447807,14.9999638 0.684269885,14.9557566 0.772648032,14.8674148 L7.49999547,8.14003517 L14.2273791,14.867451 C14.3157211,14.9557929 14.4316156,15 14.5474376,15 C14.6632235,15 14.7790456,14.9557929 14.8674599,14.867451 C15.04418,14.690731 15.04418,14.4041629 14.8674599,14.2273705 L8.14004008,7.49999095 L14.8674599,0.77261136 C15.04418,0.595855172 15.04418,0.309323328 14.8674599,0.13256714 C14.6907036,-0.0441890467 14.4041716,-0.0441890467 14.2273791,0.13256714 L7.49999547,6.85994673 L0.772611826,0.132639552 C0.595855532,-0.0441166353 0.309323514,-0.0441166353 0.13256722,0.132639552 C-0.0441890734,0.309359533 -0.0441890734,0.595927584 0.13256722,0.772683771 L6.85995087,7.50002715 L0.132603426,14.2273705 C-0.0441528677,14.4041267 -0.0441528677,14.6906948 0.132603426,14.8674148 Z" id="close_white"></path>
                </g>
            </g>
        </g>
    </g>
</svg>