<?xml version="1.0" encoding="utf-8"?>
<!-- Generator: Adobe Illustrator 23.0.3, SVG Export Plug-In . SVG Version: 6.00 Build 0)  -->
<svg version="1.1" id="Layer_1" xmlns="http://www.w3.org/2000/svg" xmlns:xlink="http://www.w3.org/1999/xlink" x="0px" y="0px"
	 viewBox="0 0 15 13" style="enable-background:new 0 0 15 13;" xml:space="preserve">
<style type="text/css">
	.st0{fill:#FF625A;}
</style>
<path class="st0" d="M14.3,11l-2.8-4.9L8.6,1.2c-0.5-0.9-1.8-0.9-2.3,0L3.5,6.1L0.7,11c-0.5,0.9,0.1,2,1.1,2h5.7h5.7
	C14.2,13,14.8,11.9,14.3,11z M6.9,4.1c0.3-0.3,0.8-0.3,1.1,0c0.2,0.2,0.2,0.4,0.2,0.6L8.2,8.6c0,0.4-0.3,0.7-0.7,0.7
	C7.1,9.3,6.8,9,6.8,8.6L6.7,4.7C6.7,4.5,6.8,4.3,6.9,4.1z M7.5,11.2c-0.5,0-0.8-0.4-0.8-0.8S7,9.5,7.5,9.5s0.8,0.4,0.8,0.8
	S8,11.2,7.5,11.2z"/>
</svg>
