<?xml version="1.0" encoding="UTF-8"?>
<svg width="30px" height="30px" viewBox="0 0 30 30" version="1.1" xmlns="http://www.w3.org/2000/svg" xmlns:xlink="http://www.w3.org/1999/xlink">
    <!-- Generator: Sketch 52.5 (67469) - http://www.bohemiancoding.com/sketch -->
    <g id="homepage" stroke="none" stroke-width="1" fill="none" fill-rule="evenodd" opacity="0.9">
        <g id="User-Account(1200)-" transform="translate(-1136.000000, -810.000000)">
            <g id="arrow-copy-2" transform="translate(1136.000000, 810.000000)">
                <path d="M15,30 C6.71572875,30 1.01636601e-15,23.2842712 0,15 C-1.01636601e-15,6.71572875 6.71572875,1.52454902e-15 15,0 C23.2842712,-1.51513823e-15 30,6.71572875 30,15 C29.9925226,23.281172 23.281172,29.9925226 15,30 Z" id="Shape" fill="#FFFFFF" opacity="0.8"></path>
                <path d="M12.509254,20.3333277 C12.3739677,20.3339674 12.2441298,20.2799979 12.1490642,20.1836084 C11.9503119,19.9843336 11.9503119,19.6615082 12.1490642,19.4622335 L16.7703666,14.8345453 L12.1490642,10.2068571 C11.9503119,10.0075823 11.9503119,9.68475691 12.1490642,9.48548216 C12.2437247,9.38820013 12.3736136,9.33333333 12.509254,9.33333333 C12.6448943,9.33333333 12.7747832,9.38820013 12.8694437,9.48548216 L17.8509358,14.4738578 C18.0496881,14.6731326 18.0496881,14.995958 17.8509358,15.1952327 L12.8694437,20.1836084 C12.7743782,20.2799979 12.6445402,20.3339674 12.509254,20.3333277 Z" id="Shape" fill="#000000" fill-rule="nonzero"></path>
            </g>
        </g>
    </g>
</svg>