<?xml version="1.0" encoding="UTF-8"?>
<svg width="24px" height="19px" viewBox="0 0 24 19" version="1.1" xmlns="http://www.w3.org/2000/svg" xmlns:xlink="http://www.w3.org/1999/xlink">
    <!-- Generator: Sketch 52.6 (67491) - http://www.bohemiancoding.com/sketch -->
    <g id="homepage" stroke="#000000" stroke-width="1" fill="none" fill-rule="evenodd">
        <g id="menu">
            <path d="M0.822846154,1.06055769 L22.3334038,1.06055769 C22.4679538,1.06055769 22.5765962,0.951915317 22.5765962,0.817365385 C22.5765962,0.683016609 22.4677896,0.574173077 22.3334038,0.574173077 L0.822846154,0.574173077 C0.68846042,0.574173077 0.579653846,0.683016609 0.579653846,0.817365385 C0.579653846,0.95171416 0.68846042,1.06055769 0.822846154,1.06055769 Z" id="Path"></path>
            <path d="M22.3334038,9.27471154 L0.822846154,9.27471154 C0.688606058,9.27471154 0.579653846,9.38377477 0.579653846,9.51826923 C0.579653846,9.65241682 0.688624534,9.76146154 0.822846154,9.76146154 L22.3334038,9.76146154 C22.4676255,9.76146154 22.5765962,9.65241682 22.5765962,9.51826923 C22.5765962,9.38377477 22.4676439,9.27471154 22.3334038,9.27471154 Z" id="Path"></path>
            <path d="M22.3334038,17.9931538 L0.822846154,17.9931538 C0.688296221,17.9931538 0.579653846,18.1017962 0.579653846,18.2363462 C0.579653846,18.3706949 0.68846042,18.4795385 0.822846154,18.4795385 L22.3334038,18.4795385 C22.4677896,18.4795385 22.5765962,18.3706949 22.5765962,18.2363462 C22.5765962,18.1017962 22.4679538,17.9931538 22.3334038,17.9931538 Z" id="Path"></path>
        </g>
    </g>
</svg>