<?xml version="1.0" encoding="UTF-8"?>
<svg width="512px" height="370px" viewBox="0 0 512 370" version="1.1" xmlns="http://www.w3.org/2000/svg" xmlns:xlink="http://www.w3.org/1999/xlink">
    <!-- Generator: Sketch 52.5 (67469) - http://www.bohemiancoding.com/sketch -->
    <title>guyana</title>
    <desc>Created with Sketch.</desc>
    <g id="menu" stroke="none" stroke-width="1" fill="none" fill-rule="evenodd">
        <g id="guyana">
            <g id="Group" transform="translate(25.000000, 0.000000)" fill="#009E49">
                <path d="M31.889,369.889 L430.111,369.889 C461.528,369.889 487,344.417 487,313 L487,185 L0.74,360.594 C9.69,366.464 20.387,369.889 31.889,369.889 Z" id="Path"></path>
                <path d="M430.111,0.111 L31.889,0.111 C20.388,0.111 9.691,3.536 0.742,9.405 L486.998,184.997 L486.995,184.998 L487,185 L487,57 C487,25.583 461.528,0.111 430.111,0.111 Z" id="Path"></path>
            </g>
            <path d="M25.742,9.405 C23.539,10.85 21.445,12.444 19.47,14.171 L45.054,32.648 L462.22,184.996 L462.217,184.997 L462.222,184.999 L45.058,337.347 L45.056,337.348 L19.469,355.828 C21.443,357.555 23.535,359.148 25.736,360.591 L511.995,184.998 L511.998,184.997 L25.742,9.405 Z" id="Path" fill="#FFFFFF"></path>
            <polygon id="Path" fill="#FCD116" points="45.058 337.347 462.221 185 462.216 184.998 45.058 32.653 256 185"></polygon>
            <path d="M45.058,337.347 L256,185 L45.058,32.653 L45.056,32.652 L19.469,14.172 C15.064,18.024 11.248,22.535 8.2,27.566 L227.556,184.995 L227.552,184.998 L227.556,185.001 L136.729,250.186 L8.201,342.436 C11.249,347.467 15.064,351.976 19.469,355.828 L45.056,337.348 L45.058,337.347 Z" id="Path" fill="#141414"></path>
            <path d="M227.552,184.997 L227.556,184.994 L8.2,27.565 C2.997,36.153 0,46.227 0,57 L0,313 C0,323.774 2.997,333.848 8.201,342.436 L136.729,250.185 L227.552,184.997 Z" id="Path" fill="#CE1126"></path>
        </g>
    </g>
</svg>