<?xml version="1.0" encoding="UTF-8"?>
<svg width="514px" height="335px" viewBox="0 0 514 335" version="1.1" xmlns="http://www.w3.org/2000/svg" xmlns:xlink="http://www.w3.org/1999/xlink">
    <!-- Generator: Sketch 52.5 (67469) - http://www.bohemiancoding.com/sketch -->
    <title>new-caledonia</title>
    <desc>Created with Sketch.</desc>
    <g id="menu" stroke="none" stroke-width="1" fill="none" fill-rule="evenodd">
        <g id="new-caledonia">
            <g id="Group" transform="translate(257.000000, 167.822581) scale(-1, 1) rotate(-180.000000) translate(-257.000000, -167.822581) translate(0.000000, 0.322581)">
                <g id="Path">
                    <g>
                        <path d="M513,51.7096774 C513,-0.677419355 514,0.326290323 456.11125,0.326290323 L57.88875,0.326290323 C-2.18980389e-12,0.326290323 -3.24495986e-12,2.73114864e-14 1,51.7096774 L1,282.935484 C1,311.312581 26.4725,334.318871 57.88875,334.318871 L456.11125,334.318871 C487.52875,334.318871 513,311.311452 513,282.935484 L513,51.7096774 Z" fill="#009543"></path>
                        <polygon fill="#ED4135" points="513 103.093065 1 103.093065 1 231.552097 513 231.552097"></polygon>
                        <path d="M57.88875,334.318871 C9.59232693e-13,335.322581 1,335.322581 1,282.935484 L0.998884757,231.552097 L513,231.552097 L513,282.935484 C514,334.318871 514,334.318871 456.11125,334.318871 L57.88875,334.318871 Z" fill="#0035AD"></path>
                        <path d="M319.60625,167.322581 C319.60625,100.627258 259.745,46.5454839 185.88875,46.5454839 C112.0325,46.5454839 52.1575,100.627258 52.1575,167.322581 C52.1575,234.031452 112.0325,288.099677 185.88875,288.099677 C259.745,288.099677 319.60625,234.031452 319.60625,167.322581" fill="#141414"></path>
                        <path d="M313.88875,167.322581 C313.88875,103.465645 256.5875,51.7096774 185.88875,51.7096774 C115.19,51.7096774 57.88875,103.465645 57.88875,167.322581 C57.88875,231.179516 115.19,282.935484 185.88875,282.935484 C256.5875,282.935484 313.88875,231.179516 313.88875,167.322581" fill="#FAE600"></path>
                        <g transform="translate(133.500000, 50.806452)" fill="#141414">
                            <polygon points="55.12 1.00596774 50.54 1.00596774 50.54 232.02629 55.12 232.02629"></polygon>
                            <path d="M70.16625,158.662903 C70.16625,150.017903 62.40125,143.003226 52.82875,143.003226 C43.25625,143.003226 35.49125,150.016774 35.49125,158.662903 C35.49125,167.309032 43.25625,174.322581 52.82875,174.322581 C62.40125,174.322581 70.16625,167.309032 70.16625,158.662903"></path>
                            <path d="M67.0375,61.7151613 C67.0375,51.6182258 60.66625,43.4485484 52.815,43.4485484 C44.96375,43.4485484 38.5925,51.6182258 38.5925,61.7151613 C38.5925,71.8120968 44.96375,79.9817742 52.815,79.9817742 C60.66625,79.9817742 67.0375,71.8120968 67.0375,61.7151613"></path>
                            <path d="M70.16625,112.906613 C70.16625,107.691613 62.40125,103.478065 52.82875,103.478065 C43.25625,103.478065 35.49125,107.691613 35.49125,112.906613 C35.49125,118.121613 43.25625,122.335161 52.82875,122.335161 C62.40125,122.335161 70.16625,118.121613 70.16625,112.906613"></path>
                            <path d="M33.72875,180.745645 C33.72875,180.745645 31.95125,191.98629 35.50625,196.802742 C39.06125,201.620323 48.39125,206.039355 55.94375,207.644839 C63.51,209.250323 73.73625,219.282903 73.73625,219.282903 C73.73625,219.282903 72.39875,204.432742 59.955,195.197258 C47.51125,185.960645 33.72875,180.745645 33.72875,180.745645"></path>
                            <path d="M22.835,157.879355 C22.835,157.879355 29.71875,153.87129 31.49625,147.846774 C33.27375,141.822258 38.16625,135.399194 52.38875,135.399194 L52.38875,128.166613 C52.38875,128.166613 40.385,127.370645 33.72875,129.772097 C27.05875,132.187097 25.28125,143.427742 25.28125,147.448226 C25.28125,151.457419 22.835,157.879355 22.835,157.879355"></path>
                            <path d="M82.3975,157.879355 C82.3975,157.879355 75.51375,153.87129 73.73625,147.846774 C71.95875,141.822258 67.06625,135.399194 52.84375,135.399194 L52.84375,128.166613 C52.84375,128.166613 64.8475,127.370645 71.50375,129.772097 C78.17375,132.187097 79.95125,143.427742 79.95125,147.448226 C79.95125,151.457419 82.3975,157.879355 82.3975,157.879355"></path>
                            <path d="M79.95125,75.5762903 C79.95125,79.5843548 77.94625,90.823871 71.29,93.238871 C64.62,95.6414516 52.4025,96.5785484 52.4025,96.5785484 C52.4025,96.5785484 40.39875,95.6403226 33.72875,93.238871 C27.05875,90.823871 25.28125,79.5832258 25.28125,75.5762903 C25.28125,71.5693548 22.835,52.2990323 22.835,52.2990323 C22.835,52.2990323 32.17875,66.3904839 33.95625,72.416129 C35.73375,78.4417742 43.05875,85.9430645 52.4025,85.9430645 C61.945,85.9430645 69.51125,78.7104839 71.29,72.6859677 C73.0675,66.673871 82.28375,52.2990323 82.28375,52.2990323 C82.28375,52.2990323 79.95125,71.5682258 79.95125,75.5762903"></path>
                            <g>
                                <path d="M52.38875,39.4404839 L52.38875,0.903225806 C52.38875,0.903225806 39.94375,-0.30483871 22.16625,3.90870968 C4.38875,8.12225806 1.06,9.72774194 1.06,9.72774194 C1.06,9.72774194 19.15125,26.0930645 27.05875,32.2214516 C36.38875,39.4404839 52.38875,39.4404839 52.38875,39.4404839"></path>
                                <path d="M52.38875,39.4404839 L52.38875,0.903225806 C52.38875,0.903225806 64.83375,-0.30483871 82.61125,3.90870968 C100.38875,8.12225806 103.7175,9.72774194 103.7175,9.72774194 C103.7175,9.72774194 85.62625,26.0930645 77.71875,32.2214516 C68.38875,39.4404839 52.38875,39.4404839 52.38875,39.4404839"></path>
                            </g>
                        </g>
                    </g>
                </g>
            </g>
        </g>
    </g>
</svg>