<?xml version="1.0" encoding="iso-8859-1"?>
<!-- Generator: Adobe Illustrator 19.0.0, SVG Export Plug-In . SVG Version: 6.00 Build 0)  -->
<svg version="1.1" id="Capa_1" xmlns="http://www.w3.org/2000/svg" xmlns:xlink="http://www.w3.org/1999/xlink" x="0px" y="0px"
	 viewBox="100 88 350 350" style="enable-background:new 0 0 512 512;" xml:space="preserve">
<g transform="matrix(1.25 0 0 -1.25 0 45)">
	<path style="fill:#0092C8;" d="M364.089-20.889H45.511C20.378-20.889,0-41.267,0-66.4v-204.8c0-25.133,20.378-45.511,45.511-45.511
		h318.578c25.133,0,45.511,20.378,45.511,45.511v204.8C409.6-41.267,389.222-20.889,364.089-20.889z"/>
	<g>
		<path style="fill:#CA0000;" d="M45.511-316.711h68.267v295.822H45.511C20.378-20.889,0-41.267,0-66.4v-204.8
			C0-296.333,20.378-316.711,45.511-316.711z"/>
		<path style="fill:#DC241F;" d="M113.778-20.889H45.511C20.378-20.889,0-41.267,0-66.4v-68.267h113.778V-20.889z"/>
		<path style="fill:#009543;" d="M113.778-140.238v22.756L69.531-77.661l44.247,39.822v16.95h-6.451L56.889-66.283L17.329-30.68
			c-4.45-3.515-8.226-7.841-11.107-12.76l38.024-34.221L0-117.483v-22.756l56.889,51.2L113.778-140.238z"/>
		<path style="fill:#EEEEEE;" d="M113.778-66.161H71.111v45.272h-25.6c-0.956,0-1.903-0.039-2.844-0.097V-66.16H0v-22.995h42.667
			v-34.133h28.444v34.133h42.667V-66.161z"/>
	</g>
	<g>
		<path style="fill:#EEEEEE;" d="M113.778-214.311H0v91.022h113.778V-214.311z"/>
		<g>
			<path style="fill:#292F33;" d="M22.33-162.776c1.445,0,2.025,0.764,1.32,1.845l-3.131,4.688
				c-0.114,4.001-0.742,6.995-1.493,6.995s-1.38-3.054-1.493-7.054l-3.121-4.629c-0.717-1.081-0.136-1.845,1.308-1.845h2.158
				c0.279-2.008,0.69-2.927,1.148-2.927s0.87,0.919,1.148,2.927H22.33z"/>
			<path style="fill:#292F33;" d="M19.026-146.774c0.831,0,1.513-0.262,1.513,2.435c0,2.685-0.683,4.87-1.513,4.87
				s-1.513-2.184-1.513-4.87C17.513-147.036,18.195-146.774,19.026-146.774z"/>
			<path style="fill:#292F33;" d="M22.739-146.774c-2.696,0-2.435-0.683-2.435-1.513c0-0.831-0.262-1.513,2.435-1.513
				c2.685,0,4.87,0.683,4.87,1.513C27.608-147.457,25.423-146.774,22.739-146.774z"/>
			<path style="fill:#292F33;" d="M15.316-149.8c2.696,0,2.435,0.683,2.435,1.513c0,0.831,0.262,1.513-2.435,1.513
				c-2.685,0-4.87-0.683-4.87-1.513C10.447-149.117,12.632-149.8,15.316-149.8z"/>
			<path style="fill:#292F33;" d="M59.423-160.932l-3.132,4.69c-0.114,4-0.742,6.993-1.493,6.993s-1.38-3.055-1.493-7.056
				l-3.121-4.627c-0.717-1.081-0.136-1.845,1.308-1.845h2.157c0.279-2.008,0.69-2.927,1.148-2.927s0.87,0.919,1.148,2.927h2.157
				C59.548-162.776,60.128-162.013,59.423-160.932z"/>
			<path style="fill:#292F33;" d="M54.797-146.774c0.831,0,1.513-0.262,1.513,2.435c0,2.685-0.683,4.87-1.513,4.87
				s-1.513-2.184-1.513-4.87C53.285-147.036,53.967-146.774,54.797-146.774z"/>
			<path style="fill:#292F33;" d="M56.077-148.287c0-0.831-0.262-1.513,2.435-1.513c2.685,0,4.87,0.683,4.87,1.513
				s-2.184,1.513-4.87,1.513C55.815-146.774,56.077-147.457,56.077-148.287z"/>
			<path style="fill:#292F33;" d="M53.523-148.287c0,0.831,0.262,1.513-2.435,1.513c-2.685,0-4.87-0.683-4.87-1.513
				c0-0.831,2.184-1.513,4.87-1.513C53.785-149.8,53.523-149.117,53.523-148.287z"/>
			<path style="fill:#292F33;" d="M96.044-160.932l-3.131,4.688c-0.114,4.001-0.742,6.995-1.493,6.995
				c-0.751,0-1.38-3.054-1.493-7.054l-3.121-4.629c-0.717-1.081-0.136-1.845,1.308-1.845h2.158c0.279-2.008,0.69-2.927,1.148-2.927
				s0.87,0.919,1.148,2.927h2.156C96.17-162.776,96.75-162.013,96.044-160.932z"/>
			<path style="fill:#292F33;" d="M91.42-146.774c0.831,0,1.513-0.262,1.513,2.435c0,2.685-0.683,4.87-1.513,4.87
				s-1.513-2.184-1.513-4.87C89.907-147.036,90.59-146.774,91.42-146.774z"/>
			<path style="fill:#292F33;" d="M92.698-148.287c0-0.831-0.262-1.513,2.435-1.513c2.685,0,4.87,0.683,4.87,1.513
				s-2.184,1.513-4.87,1.513C92.436-146.774,92.698-147.457,92.698-148.287z"/>
			<path style="fill:#292F33;" d="M87.711-149.8c2.696,0,2.435,0.683,2.435,1.513c0,0.831,0.262,1.513-2.435,1.513
				c-2.685,0-4.87-0.683-4.87-1.513C82.842-149.117,85.026-149.8,87.711-149.8z"/>
			<path style="fill:#292F33;" d="M110.83-126.477c-0.033,1.158-0.109,2.519-0.218,3.188h-2.55c-0.11-0.669-0.186-2.071-0.218-3.234
				l-3.121-4.773c-0.717-1.081-0.136-2.032,1.308-2.032h2.158c0.279-1.339,0.69-2.927,1.148-2.927s0.87,1.589,1.148,2.927h2.156
				c0.485,0,0.863,0.233,1.137,0.407v1.966L110.83-126.477z"/>
			<path style="fill:#292F33;" d="M69.409-133.328h2.158c0.279-1.339,0.69-2.927,1.148-2.927s0.87,1.589,1.148,2.927h2.157
				c1.445,0,2.025,0.951,1.32,2.032l-3.132,4.789c-0.033,1.157-0.108,2.549-0.218,3.218h-2.55c-0.11-0.669-0.185-2.062-0.218-3.219
				l-3.121-4.788C67.384-132.377,67.964-133.328,69.409-133.328z"/>
			<path style="fill:#292F33;" d="M33.675-133.328h2.158c0.279-1.339,0.69-2.927,1.148-2.927s0.87,1.589,1.148,2.927h2.156
				c1.445,0,2.025,0.951,1.32,2.032l-3.131,4.787c-0.033,1.158-0.108,2.551-0.218,3.22h-2.55c-0.11-0.669-0.185-2.061-0.218-3.218
				l-3.121-4.79C31.649-132.377,32.23-133.328,33.675-133.328z"/>
			<path style="fill:#292F33;" d="M2.493-136.255c0.458,0,0.87,1.589,1.148,2.927h2.156c1.445,0,2.025,0.951,1.32,2.032
				l-3.131,4.787c-0.033,1.158-0.108,2.551-0.218,3.22h-2.55c-0.11-0.669-0.185-2.03-0.218-3.186l-1-1.528v-5.326h1.344
				C1.623-134.667,2.035-136.255,2.493-136.255z"/>
			<path style="fill:#292F33;" d="M3.986-185.617c-0.113,4.006-0.741,7.052-1.493,7.052S1.113-181.634,1-185.64l-1-1.526v-5.059
				h1.344c0.279-2.008,0.69-2.927,1.148-2.927s0.87,0.919,1.148,2.927h2.156c1.445,0,2.025,0.821,1.32,1.902L3.986-185.617z"/>
			<path style="fill:#292F33;" d="M2.493-168.803c-0.831,0-1.513-2.184-1.513-4.87c0-2.696,0.683-2.435,1.513-2.435
				s1.513-0.262,1.513,2.435C4.006-170.987,3.324-168.803,2.493-168.803z"/>
			<path style="fill:#292F33;" d="M6.205-179.134c2.685,0,4.87,0.683,4.87,1.513s-2.184,1.513-4.87,1.513
				c-2.696,0-2.435-0.683-2.435-1.513C3.771-178.45,3.509-179.134,6.205-179.134z"/>
			<path style="fill:#292F33;" d="M1.219-177.62c0,0.676,0.172,1.254-1.219,1.446v-2.891C1.391-178.874,1.219-178.296,1.219-177.62z
				"/>
			<path style="fill:#292F33;" d="M38.652-185.616c-0.113,4.006-0.741,7.05-1.493,7.05s-1.38-3.069-1.493-7.076l-3.121-4.677
				c-0.717-1.081-0.136-1.906,1.308-1.906h2.157c0.279-2.008,0.69-2.927,1.148-2.927s0.87,0.919,1.148,2.927h2.157
				c1.445,0,2.025,0.821,1.32,1.902L38.652-185.616z"/>
			<path style="fill:#292F33;" d="M37.158-168.803c-0.831,0-1.513-2.184-1.513-4.87c0-2.696,0.683-2.435,1.513-2.435
				c0.831,0,1.513-0.262,1.513,2.435C38.672-170.987,37.989-168.803,37.158-168.803z"/>
			<path style="fill:#292F33;" d="M40.872-176.107c-2.696,0-2.435-0.683-2.435-1.513s-0.262-1.513,2.435-1.513
				c2.685,0,4.87,0.683,4.87,1.513S43.558-176.107,40.872-176.107z"/>
			<path style="fill:#292F33;" d="M35.884-177.62c0,0.831,0.262,1.513-2.435,1.513c-2.685,0-4.87-0.683-4.87-1.513
				s2.184-1.513,4.87-1.513C36.146-179.134,35.884-178.45,35.884-177.62z"/>
			<path style="fill:#292F33;" d="M74.564-185.617c-0.113,4.006-0.741,7.052-1.493,7.052s-1.38-3.069-1.493-7.074l-3.121-4.679
				c-0.717-1.081-0.136-1.906,1.308-1.906h2.158c0.279-2.008,0.69-2.927,1.148-2.927s0.87,0.919,1.148,2.927h2.156
				c1.445,0,2.025,0.821,1.32,1.902L74.564-185.617z"/>
			<path style="fill:#292F33;" d="M73.07-168.803c-0.831,0-1.513-2.184-1.513-4.87c0-2.696,0.683-2.435,1.513-2.435
				s1.513-0.262,1.513,2.435C74.584-170.987,73.901-168.803,73.07-168.803z"/>
			<path style="fill:#292F33;" d="M76.783-176.107c-2.696,0-2.435-0.683-2.435-1.513s-0.262-1.513,2.435-1.513
				c2.685,0,4.87,0.683,4.87,1.513C81.652-176.79,79.468-176.107,76.783-176.107z"/>
			<path style="fill:#292F33;" d="M71.796-177.62c0,0.831,0.262,1.513-2.435,1.513c-2.685,0-4.87-0.683-4.87-1.513
				s2.184-1.513,4.87-1.513C72.058-179.134,71.796-178.45,71.796-177.62z"/>
			<path style="fill:#292F33;" d="M109.937-178.582c-0.753,0-1.382-3.069-1.494-7.083l-3.121-4.658
				c-0.717-1.081-0.136-1.902,1.308-1.902h2.158c0.279-2.008,0.69-2.927,1.148-2.927s0.87,0.919,1.148,2.927h2.156
				c0.197,0,0.373-0.114,0.537-0.083v3.103l-2.348,3.554C111.317-181.644,110.688-178.582,109.937-178.582z"/>
			<path style="fill:#292F33;" d="M109.937-176.107c0.831,0,1.513-0.262,1.513,2.435c0,2.686-0.683,4.87-1.513,4.87
				c-0.831,0-1.513-2.184-1.513-4.87C108.424-176.369,109.106-176.107,109.937-176.107z"/>
			<path style="fill:#292F33;" d="M111.215-177.62c0-0.831-0.262-1.513,2.435-1.513c0.043,0,0.084,0.002,0.127,0.002v3.023
				c-0.043,0-0.084,0.002-0.127,0.002C110.953-176.107,111.215-176.79,111.215-177.62z"/>
			<path style="fill:#292F33;" d="M108.662-177.62c0,0.831,0.262,1.513-2.435,1.513c-2.685,0-4.87-0.683-4.87-1.513
				s2.184-1.513,4.87-1.513C108.924-179.134,108.662-178.45,108.662-177.62z"/>
			<path style="fill:#292F33;" d="M91.625-208.982c-0.638,0-1.189-2.21-1.409-5.329h2.818
				C92.813-211.191,92.264-208.982,91.625-208.982z"/>
			<path style="fill:#292F33;" d="M91.625-199.197c-0.831,0-1.513-2.184-1.513-4.87c0-2.708,0.683-2.446,1.513-2.446
				s1.513-0.262,1.513,2.446C93.139-201.381,92.456-199.197,91.625-199.197z"/>
			<path style="fill:#292F33;" d="M95.339-206.507c-2.696,0-2.435-0.683-2.435-1.513s-0.262-1.513,2.435-1.513
				c2.685,0,4.87,0.683,4.87,1.513S98.024-206.507,95.339-206.507z"/>
			<path style="fill:#292F33;" d="M90.352-208.021c0,0.831,0.262,1.513-2.435,1.513c-2.685,0-4.87-0.683-4.87-1.513
				s2.184-1.513,4.87-1.513C90.614-209.533,90.352-208.851,90.352-208.021z"/>
			<path style="fill:#292F33;" d="M55.181-208.982c-0.638,0-1.189-2.21-1.409-5.329h2.818
				C56.369-211.191,55.82-208.982,55.181-208.982z"/>
			<path style="fill:#292F33;" d="M55.181-199.197c-0.831,0-1.513-2.184-1.513-4.87c0-2.708,0.683-2.446,1.513-2.446
				s1.513-0.262,1.513,2.446C56.694-201.381,56.011-199.197,55.181-199.197z"/>
			<path style="fill:#292F33;" d="M58.895-206.507c-2.696,0-2.435-0.683-2.435-1.513s-0.262-1.513,2.435-1.513
				c2.685,0,4.87,0.683,4.87,1.513S61.58-206.507,58.895-206.507z"/>
			<path style="fill:#292F33;" d="M53.906-208.021c0,0.831,0.262,1.513-2.435,1.513c-2.685,0-4.87-0.683-4.87-1.513
				s2.184-1.513,4.87-1.513C54.168-209.533,53.906-208.851,53.906-208.021z"/>
			<path style="fill:#292F33;" d="M18.598-208.982c-0.638,0-1.189-2.21-1.409-5.329h2.818
				C19.786-211.191,19.237-208.982,18.598-208.982z"/>
			<path style="fill:#292F33;" d="M18.598-199.197c-0.831,0-1.513-2.184-1.513-4.87c0-2.708,0.683-2.446,1.513-2.446
				c0.831,0,1.513-0.262,1.513,2.446C20.111-201.381,19.428-199.197,18.598-199.197z"/>
			<path style="fill:#292F33;" d="M22.31-206.507c-2.696,0-2.435-0.683-2.435-1.513s-0.262-1.513,2.435-1.513
				c2.685,0,4.87,0.683,4.87,1.513S24.996-206.507,22.31-206.507z"/>
			<path style="fill:#292F33;" d="M17.324-208.021c0,0.831,0.262,1.513-2.435,1.513c-2.685,0-4.87-0.683-4.87-1.513
				s2.184-1.513,4.87-1.513C17.585-209.533,17.324-208.851,17.324-208.021z"/>
		</g>
	</g>
	<g>
		<g>
			<path style="fill:#FFCC4D;" d="M17.422-235.649c-1.957,1.775-5.154,0.705-5.154,6.394s1.069,5.427,5.416,5.427
				c4.358,0,9.341,0.353,9.341-5.905c0-6.269,4.437-4.141,4.437-4.141s0.182,7.999,8.897,7.999c9.956,0,10.661-8.704,10.661-8.704
				s4.301-1.695,7.999-1.252c5.189,0.626,13.335,3.231,19.023-3.277c5.689-6.497,9.956-7.032,14.575-5.256
				c4.631,1.786,11.378-7.635,3.561-10.843c-7.828-3.197-10.843,2.491-9.603,4.801c1.24,2.31-9.068-2.662-12.8,0
				c0.888-4.084-0.888-7.111-4.801-7.111c-3.914,0-8.966-1.195-11.731,1.775c-1.331,1.434-2.127,4.449-0.705,5.689
				c-5.689,0.364-10.49-1.058-10.49-1.058s-0.535-6.406-10.854-6.406c-10.309,0-17.59-1.957-17.59,4.984
				c0,6.929,3.663,6.292,8.704,5.154c3.391-0.774,5.518-0.182,5.518-0.182s-0.193,2.412-0.717,3.379
				C19.38-245.605,17.422-235.649,17.422-235.649"/>
			<path style="fill:#FFCC4D;" d="M65.244-238.378c0,7.532,13.153,9.671,20.264,7.714c7.111-1.957,9.785-4.096,9.785-4.096
				s-5.871-4.267-11.742-3.732c-5.86,0.535-13.858,5.108-13.858,0.717C69.693-242.177,65.244-245.91,65.244-238.378"/>
		</g>
		<path d="M41.599-239.911c0-1.866-1.467-3.379-3.288-3.379s-3.288,1.513-3.288,3.379s1.467,3.379,3.288,3.379
			S41.599-238.046,41.599-239.911"/>
		<path d="M38.311-233.6c0-0.831-1.138-1.513-2.537-1.513c-1.4,0-2.526,0.683-2.526,1.513c0,0.831,1.126,1.513,2.526,1.513
			S38.311-232.769,38.311-233.6"/>
		<path d="M44.133-233.6c0-0.831-1.138-1.513-2.537-1.513c-1.4,0-2.526,0.683-2.526,1.513c0,0.831,1.126,1.513,2.526,1.513
			C42.995-232.086,44.133-232.769,44.133-233.6"/>
		<g>
			<path style="fill:#FFCC4D;" d="M17.422-275.645c-1.957,1.775-5.154,0.705-5.154,6.394s1.069,5.427,5.416,5.427
				c4.358,0,9.341,0.353,9.341-5.905c0-6.27,4.437-4.141,4.437-4.141s0.182,7.999,8.897,7.999c9.956,0,10.661-8.704,10.661-8.704
				s4.301-1.695,7.999-1.252c5.189,0.626,13.335,3.231,19.023-3.277c5.689-6.497,9.956-7.032,14.575-5.256
				c4.631,1.786,11.378-7.635,3.561-10.843c-7.828-3.197-10.843,2.491-9.603,4.801c1.24,2.31-9.068-2.662-12.8,0
				c0.888-4.084-0.888-7.111-4.801-7.111c-3.914,0-8.966-1.195-11.731,1.775c-1.331,1.434-2.127,4.449-0.705,5.689
				c-5.689,0.364-10.49-1.058-10.49-1.058s-0.535-6.406-10.854-6.406c-10.309,0-17.59-1.957-17.59,4.984
				c0,6.929,3.663,6.292,8.704,5.154c3.391-0.774,5.518-0.182,5.518-0.182s-0.193,2.412-0.717,3.379
				C19.38-285.601,17.422-275.645,17.422-275.645"/>
			<path style="fill:#FFCC4D;" d="M65.244-278.378c0,7.532,13.153,9.671,20.264,7.714c7.111-1.957,9.785-4.096,9.785-4.096
				s-5.871-4.267-11.742-3.732c-5.86,0.535-13.858,5.108-13.858,0.717C69.693-282.179,65.244-285.911,65.244-278.378"/>
		</g>
		<path d="M41.599-279.912c0-1.866-1.467-3.379-3.288-3.379s-3.288,1.513-3.288,3.379s1.467,3.379,3.288,3.379
			C40.132-276.532,41.599-278.045,41.599-279.912"/>
		<path d="M38.311-273.599c0-0.831-1.138-1.513-2.537-1.513c-1.4,0-2.526,0.683-2.526,1.513c0,0.831,1.126,1.513,2.526,1.513
			C37.174-272.087,38.311-272.769,38.311-273.599"/>
		<path d="M44.133-273.599c0-0.831-1.138-1.513-2.537-1.513c-1.4,0-2.526,0.683-2.526,1.513c0,0.831,1.126,1.513,2.526,1.513
			C42.995-272.087,44.133-272.769,44.133-273.599"/>
		<path style="fill:#FFCC4D;" d="M264.533-204.711c-11.321,0-20.662,1.524-28.49,3.88l5.825,20.184
			c1.138-0.182,2.219-0.25,3.47-0.591c18.068-4.972,37.376-22.232,37.478-22.323C277.311-204.29,271.258-204.711,264.533-204.711
			 M384-120.095c-13.505,4.631-28.797,5.336-28.797,5.336l-9.956-19.558c0,0,29.514-0.614,29.514-2.435
			c0-1.263-6.713-12.379-10.911-19.217c-2.162,0.66-4.79,1.036-7.942,1.036c-12.8,0-17.772-2.844-23.109-10.661
			c-5.336-7.828,0-11.025,0-11.025s-6.599-14.643-31.311-22.778l8.113,28.024c9.25,1.548,17.158-3.117,17.158-3.117
			s-6.053,17.784,1.422,44.442c7.464,26.669,35.203,46.58,35.203,46.58l-31.016-9.159l7.896,27.295c0,0,3.914,8.533,0,11.025
			c-2.537,1.615-3.868-1.843-4.494-4.494c-2.731,0.774-7.475,1.479-12.572-0.842c-7.816-3.55-25.953,1.581-25.953,1.581
			s7.111-7.976,12.447-9.398c-5.689-2.844-16.714-1.786-16.714-1.786s13.517-7.816,22.573-4.972
			c6.03,1.889,12.686,2.048,16.52,1.946c-1.718-5.78-4.005-13.505-6.633-22.414l-28.194-8.328c0,0-12.8-10.319-17.067-40.539
			s11.025-52.622,11.025-52.622s-1.605,14.598,10.627,21.811c-3.311-11.185-6.132-20.719-8.033-27.193
			c-3.402-0.796-6.997-1.491-10.968-2.003c-0.079,0.205-14.723,33.075-12.254,60.712c2.491,27.739,26.669,56.07,26.669,56.07
			l-31.642-11.503l11.128,38.639c0,0,6.997,4.62,0.955,7.464c-6.042,2.844-4.87-6.258-4.87-6.258
			c-2.81,0.546-6.781,0.717-11.014-1.206c-7.828-3.55-25.953,1.581-25.953,1.581s7.111-7.976,12.436-9.398
			c-5.689-2.844-16.703-1.786-16.703-1.786s13.505-7.816,22.573-4.972c5.848,1.832,11.105,2.105,14.12,2.06l-9.444-28.581
			l-28.786-10.456c0,0-4.984-7.111-15.291-27.739c-10.309-20.616,4.267-50.131,4.267-50.131s4.301,6.531,13.403,8.397l-5.53-16.714
			c-22.835,10.49-27.784,28.593-27.784,28.593s3.914,0.705,3.914,4.972c0,4.108-1.764,6.213-13.608,6.372l2.879,10.24
			c5.165-3.049,8.954-7.725,8.954-7.725s-4.984,18.489,5.325,36.978c10.319,18.489,34.486,34.486,35.556,34.486
			c0.569,0-17.658-5.177-34.759-10.012l7.145,25.452c0,0,5.211,7.68-0.467,9.455c-5.689,1.775-4.767-8.044-4.767-8.044v-0.012
			c-2.674,0.341-6.099,0.239-9.705-1.4c-7.816-3.561-25.953,1.57-25.953,1.57s7.111-7.976,12.447-9.398
			c-5.689-2.844-16.714-1.775-16.714-1.775s13.505-7.828,22.573-4.984c5.245,1.65,10.115,2.025,13.324,2.06l-4.244-14.712
			c-12.254-3.459-22.516-6.326-22.516-6.326s-4.631-7.111-9.967-24.189c-5.325-17.067,3.914-30.925,3.914-30.925
			s2.844,12.083,11.742,12.083c0.842,0,1.661-0.159,2.481-0.33l-3.641-12.641c-8.511-0.614-9.864-2.947-9.864-6.577
			c0-4.267,4.62-4.631,4.62-4.631s-1.069-7.464,1.775-16.714c2.844-9.239-3.55-7.464-14.222-2.127
			c-0.694,0.341-1.388,0.535-2.093,0.785l0.069,0.069l-26.772,11.947c0,0-5.689,8.18-8.533,2.491
			c-2.844-5.689,6.394-6.997,6.394-6.997l15.348-7.737c-2.993-1.559-4.483-4.062-2.901-6.599c3.561-5.689,11.378,0,27.386-15.644
			c10.365-10.149,44.442-47.65,95.277-47.65h57.606c44.806,0,38.047,38.4,15.644,47.297c17.067,15.281,18.136,33.064,18.136,33.064
			s4.62,0,8.533,7.828c1.957,3.914,1.775,7.384-0.5,9.876c5.427,10.559,18.808,36.466,22.187,42.382
			C395.378-109.07,391.111-105.509,384-120.095"/>
		<path d="M394.661-226.047c-8.886,6.406-17.067,4.267-18.842-1.934c-1.775-6.201-9.956-3.391-18.842,3.003
			c-8.886,6.394-14.939,5.336-16.714-1.775s-11.731-6.406-20.98,0.353c-9.239,6.758-18.489,1.775-22.039-3.3
			s-6.394-5.587-17.818,1.524c-11.423,7.111-19.513,2.844-22.71-3.197c-3.208-6.053-7.828-4.631-17.431,1.923
			c-9.592,6.565-18.489,4.119-23.109,0c-4.62-4.108-11.025-5.484-19.558,0c-8.533,5.496-15.291,5.177-19.558,0.785
			c-4.267-4.403-9.239-10.888-22.744-0.41c-13.517,10.479-20.628,1.605-27.386-3.015c-6.758-4.62-13.153,7.111-13.153,7.111v-84.37
			H389.06c12.368,8.031,20.539,22.239,20.539,38.149v41.603C409.6-229.597,403.558-232.442,394.661-226.047z"/>
		<path style="fill:#BBDDF5;" d="M394.661-233.514c-8.886,6.406-17.067,4.267-18.842-1.934c-1.775-6.201-9.956-3.391-18.842,3.003
			c-8.886,6.394-14.939,5.336-16.714-1.775s-11.731-6.406-20.98,0.353c-9.239,6.758-18.489,1.775-22.039-3.3
			s-6.394-5.587-17.818,1.524c-11.423,7.111-19.513,2.844-22.71-3.197c-3.208-6.053-7.828-4.631-17.431,1.923
			c-9.592,6.565-18.489,4.119-23.109,0c-4.62-4.108-11.025-5.484-19.558,0c-8.533,5.496-15.291,5.177-19.558,0.785
			c-4.267-4.403-9.239-10.888-22.744-0.41c-13.517,10.479-20.628,1.605-27.386-3.015c-6.758-4.62-13.153,7.111-13.153,7.111v-84.264
			h250.401c25.091,0,45.421,20.408,45.421,45.511v34.136C409.6-237.064,403.558-239.909,394.661-233.514z"/>
		<path style="fill:#0091C8;" d="M394.661-240.626c-8.886,6.406-17.067,4.267-18.842-1.934c-1.775-6.201-9.956-3.391-18.842,3.003
			s-14.939,5.336-16.714-1.775s-11.731-6.406-20.98,0.353c-9.239,6.758-18.489,1.775-22.039-3.3s-6.394-5.587-17.818,1.524
			c-11.423,7.111-19.513,2.844-22.71-3.197c-3.208-6.053-7.828-4.631-17.431,1.923c-9.592,6.565-18.489,4.119-23.109,0
			c-4.62-4.108-11.025-5.484-19.558,0c-8.533,5.496-15.291,5.177-19.558,0.785c-4.267-4.403-9.239-10.888-22.744-0.41
			c-13.517,10.479-20.628,1.605-27.386-3.015c-6.758-4.62-13.153,7.111-13.153,7.111v-77.153h250.401
			c25.091,0,45.421,20.408,45.421,45.511v27.025C409.6-244.175,403.558-247.02,394.661-240.626z"/>
		<g>
			<path style="fill:#BBDDF5;" d="M138.311-259.469c6.03,6.838,15.291,6.042,22.403,0c7.111-6.042,10.309-1.467,17.067,2.469
				c6.747,3.925,16.35,4.175,18.489-1.457c2.127-5.632-8.897,2.036-15.644-3.937c-6.758-5.962-17.704-7.737-25.6,0
				C147.118-254.656,132.975-265.51,138.311-259.469"/>
			<path style="fill:#BBDDF5;" d="M217.595-260.834c6.497-2.207,15.291-2.901,23.109,2.082c7.828,4.972,13.517,2.639,22.05-4.198
				c8.533-6.827,14.927-4.539,22.756,0c7.816,4.551,14.222,10.24,25.247,5.256c11.014-4.972,16.35-5.484,20.616-3.812
				c4.267,1.684,0-5.78-10.661-4.005c-10.673,1.775-18.136,8.533-27.739,2.127c-9.603-6.394-22.05-12.379-31.994-3.868
				c-9.956,8.499-15.291,7.316-21.345,3.641c-6.042-3.675-12.8-4.039-16.35-2.253C219.722-264.088,212.361-259.059,217.595-260.834"
				/>
			<path style="fill:#BBDDF5;" d="M354.493-260.834c4.119-2.491,8.533-3.141,12.8,0s8.533,0.591,13.869-2.401
				c5.336-2.993,6.394-6.349,0-4.312c-6.406,2.036-8.897,6.565-13.869,3.766c-4.984-2.799-10.309-3.596-12.8,0
				C352.001-260.174,351.41-258.968,354.493-260.834"/>
			<path style="fill:#BBDDF5;" d="M171.376-277.6c5.848,3.106,15.291,7.464,22.039,0c6.758-7.464,9.967-3.55,15.291,0
				c5.336,3.55,9.956,7.816,18.136,2.491c8.18-5.336,12.083-3.868,15.291-2.117c3.197,1.752,6.042,0.694,0-2.867
				c-6.053-3.55-12.095-3.197-16.714,0.364c-4.62,3.55-8.533,5.325-14.575-0.717c-6.042-6.042-13.869-7.839-19.558-2.15
				c-5.689,5.701-7.464,6.178-13.153,3.277C172.445-282.219,165.516-280.705,171.376-277.6"/>
			<path style="fill:#BBDDF5;" d="M280.178-279.323c7.156,3.777,16.714,10.252,24.531,2.788c7.828-7.464,12.447-3.96,18.853,0.33
				c6.394,4.289,12.436,10.49,21.686,3.129c9.239-7.373,15.281-6.656,19.911-4.529c4.62,2.139,2.481-1.957-3.208-3.288
				s-13.505-1.331-18.842,3.288c-5.336,4.631-10.309,4.38-15.997-1.718c-5.689-6.099-19.911-7.816-25.247-2.332
				c-5.336,5.473-12.083,2.276-17.067,0.148C279.825-283.646,273.032-283.1,280.178-279.323"/>
			<path style="fill:#BBDDF5;" d="M130.844-284.967c4.255,3.914,9.956,2.389,17.067-4.722s10.309-5.689,16.714-2.127
				c6.394,3.55,14.927,4.267,18.489,0.353c3.55-3.914,2.127-5.154-2.139-3.288c-4.267,1.866-8.363,2.936-14.131-2.048
				c-5.78-4.972-16.088-6.042-21.071,0c-4.972,6.042-7.816,9.603-11.731,8.18C130.139-290.042,125.156-290.201,130.844-284.967"/>
			<path style="fill:#BBDDF5;" d="M229.337-291.899c4.141,4.449,12.447,8.101,20.616,0c8.18-8.101,9.603-7.032,16.008-2.765
				c6.394,4.267,13.858,9.159,21.686,1.912c7.816-7.247,11.025-5.825,17.772-1.912c6.758,3.914,12.8,7.373,20.275,1.912
				c7.464-5.473,13.153-6.895,19.558-2.981c6.394,3.914,7.805,2.173,1.775-2.844c-4.984-4.13-14.017-5.689-20.264,0.353
				c-7.839,7.566-12.812,5.336-19.206,0.717c-6.406-4.62-16.361-5.689-22.05,0.353s-9.592,4.267-14.927,0
				c-5.336-4.267-14.495-8.625-20.98,0.353c-6.474,8.977-12.8,4.984-15.997,3.208C230.407-295.381,223.296-298.374,229.337-291.899"
				/>
		</g>
	</g>
</g>
<g>
</g>
<g>
</g>
<g>
</g>
<g>
</g>
<g>
</g>
<g>
</g>
<g>
</g>
<g>
</g>
<g>
</g>
<g>
</g>
<g>
</g>
<g>
</g>
<g>
</g>
<g>
</g>
<g>
</g>
</svg>
