<?xml version="1.0" encoding="UTF-8"?>
<svg width="512px" height="335px" viewBox="0 0 512 335" version="1.1" xmlns="http://www.w3.org/2000/svg" xmlns:xlink="http://www.w3.org/1999/xlink">
    <!-- Generator: Sketch 52.5 (67469) - http://www.bohemiancoding.com/sketch -->
    <title>french-southern-and-antarctic-lands</title>
    <desc>Created with Sketch.</desc>
    <g id="menu" stroke="none" stroke-width="1" fill="none" fill-rule="evenodd">
        <g id="french-southern-and-antarctic-lands">
            <g id="Group" transform="translate(256.500000, 167.774799) scale(-1, 1) rotate(-180.000000) translate(-256.500000, -167.774799) translate(0.000000, 0.225201)">
                <g id="Path">
                    <g>
                        <path d="M512.001946,52.4718499 C512.001946,-2.29705094 513,2.08710927 455.223874,1.22621984 L57.776126,1.22621984 C2.05974127e-13,-0.121041072 2.06085149e-13,-0.121041072 0.998054475,52.4718499 L0.998054475,283.077748 C-0.998054475,334.323378 -3.9922179,335.324397 57.776126,334.323378 L455.223874,334.323378 C512.001946,334.323378 512.001946,335.099196 512.001946,283.077748 C512.001946,165.853083 512.001946,88.9844504 512.001946,52.4718499 Z" fill="#002395"></path>
                        <polygon fill="#EEEEEE" points="86.1657855 334.323378 86.1657855 180.586488 0.998054475 180.586488 0.998054475 167.774799 270.69483 167.774799 270.69483 334.323378"></polygon>
                        <polygon fill="#ED2939" points="256.5 180.586488 171.332269 180.586488 171.332269 334.323378 256.5 334.323378"></polygon>
                        <polygon fill="#EEEEEE" points="171.332269 180.586488 86.1657855 180.586488 86.1657855 334.323378 171.333517 334.323378 171.333517 180.586488"></polygon>
                        <g transform="translate(295.424125, 14.412869)" fill="#FFFFFF">
                            <polygon points="130.899835 126.534853 106.754402 92.827882 106.754402 153.848365 138.947896 153.848365 150.843458 166.160107 95.7683171 166.160107 40.7081469 166.160107 52.5887378 153.848365 84.7959557 153.848365 84.7959557 92.827882 60.6505229 126.534853 25.5190054 76.9928686 43.0772787 76.9928686 60.6505229 103.064397 95.7683171 47.257319 130.899835 103.064397 148.473079 76.9928686 166.046323 76.9928686"></polygon>
                            <polygon points="88.969071 140.486059 133.24152 140.486059 123.48928 128.431046 91.2820623 128.431046"></polygon>
                            <polygon points="78.2087962 81.0926542 43.0635554 81.0926542 43.0635554 88.9972118 78.2087962 88.9972118"></polygon>
                            <polygon points="148.471831 81.0926542 113.340314 81.0926542 113.340314 88.9972118 148.471831 88.9972118"></polygon>
                            <polygon points="95.7683171 35.4196247 100.012544 22.262252 114.690182 22.262252 103.10776 13.8070777 107.338264 0.803967828 95.7695647 8.74680965 84.1871425 1.0089008 88.4313692 13.8205898 76.848947 22.263378 91.1423346 22.263378"></polygon>
                            <polygon points="19.9835457 153.36193 24.2277724 140.216944 38.905411 140.216944 27.3367121 132.119839 31.5672155 119.30815 19.9847933 127.341072 8.41609436 119.653834 12.6465978 132.119839 1.07789883 140.216944 15.3575632 140.216944"></polygon>
                            <polygon points="171.510671 153.36193 175.768621 140.216944 190.431289 140.216944 178.86259 132.119839 183.093093 119.30815 171.510671 127.341072 159.955696 119.653834 164.171228 132.119839 152.602529 140.216944 166.895917 140.216944"></polygon>
                            <polygon points="54.2068337 61.7602681 58.4373371 48.6152815 73.1149757 48.6152815 61.5462768 40.3898123 65.7618093 27.513941 54.2068337 35.5209651 42.6244115 27.8337265 46.8686381 40.4021984 35.286216 48.6141555 49.5658804 48.6141555"></polygon>
                            <polygon points="137.343524 61.7602681 141.601474 48.6152815 156.264142 48.6152815 144.681719 40.3898123 148.925946 27.513941 137.343524 35.5209651 125.788548 27.8337265 130.004081 40.4021984 118.435382 48.6141555 132.728769 48.6141555"></polygon>
                        </g>
                    </g>
                </g>
            </g>
        </g>
    </g>
</svg>