<?xml version="1.0" encoding="UTF-8"?>
<svg width="513px" height="335px" viewBox="0 0 513 335" version="1.1" xmlns="http://www.w3.org/2000/svg" xmlns:xlink="http://www.w3.org/1999/xlink">
    <!-- Generator: Sketch 52.5 (67469) - http://www.bohemiancoding.com/sketch -->
    <title>mayotte</title>
    <desc>Created with Sketch.</desc>
    <g id="menu" stroke="none" stroke-width="1" fill="none" fill-rule="evenodd">
        <g id="mayotte" transform="translate(-1.000000, 0.000000)">
            <g id="Group" transform="translate(257.000000, 167.822581) scale(-1, 1) rotate(-180.000000) translate(-257.000000, -167.822581) translate(0.000000, 0.322581)">
                <path d="M456.11125,334.318871 L57.88875,334.318871 C-8.05799871e-13,335.322581 1,334.318871 1,282.935484 L1,51.7096774 C0.998768646,0.324923305 1.41664458e-13,0.326290323 57.88875,0.326290323 L456.11125,0.326290323 C513,0.326290323 513,-0.677419355 513,51.7096774 L513,282.935484 C514,335.322581 514,335.322581 456.11125,334.318871 Z" id="Path" fill="#EEEEEE"></path>
                <g transform="translate(124.750000, 256.290323)" fill="#D42E11">
                    <path d="M1.0725,0.954032258 L1.0725,37.7356452 L9.18375,37.7356452 L18.8225,11.6922581 C19.71125,9.26709677 20.36,7.45274194 20.76625,6.24806452 C21.22875,7.58596774 21.95125,9.55048387 22.93375,12.143871 L32.68375,37.7356452 L39.93375,37.7356452 L39.93375,0.954032258 L34.73875,0.954032258 L34.73875,31.7393548 L22.90625,0.954032258 L18.045,0.954032258 L6.2675,32.2654839 L6.2675,0.954032258 L1.0725,0.954032258 Z" id="Path"></path>
                    <path d="M49.8475,0.954032258 L65.48625,37.7356452 L71.2925,37.7356452 L87.95875,0.954032258 L81.82,0.954032258 L77.07,12.0941935 L60.0425,12.0941935 L55.57,0.954032258 L49.8475,0.954032258 Z M61.5975,16.0570968 L75.40375,16.0570968 L71.15375,26.2432258 C69.8575,29.3379032 68.895,31.8793548 68.265,33.8698387 C67.74625,31.5112903 67.015,29.1696774 66.07,26.845 L61.5975,16.0570968 Z" id="Shape" fill-rule="nonzero"></path>
                    <path d="M99.525,0.954032258 L99.525,16.5346774 L83.83,37.7356452 L90.38625,37.7356452 L98.41375,26.6462903 C99.895,24.5722581 101.275,22.4982258 102.5525,20.4241935 C103.775,22.3480645 105.25625,24.5135484 106.9975,26.9217742 L114.88625,37.7356452 L121.16375,37.7356452 L104.91375,16.5346774 L104.91375,0.954032258 L99.525,0.954032258 Z" id="Path"></path>
                    <path d="M124.36,18.8672581 C124.36,24.9719355 126.175,29.7522581 129.80375,33.2059677 C133.43375,36.6596774 138.11875,38.3870968 143.85875,38.3870968 C147.6175,38.3870968 151.0075,37.5753226 154.02625,35.9540323 C157.04375,34.3316129 159.345,32.0690323 160.92875,29.1674194 C162.51125,26.2646774 163.30375,22.9735484 163.30375,19.2940323 C163.30375,15.5637097 162.47125,12.2274194 160.80375,9.28290323 C159.13625,6.33951613 156.77625,4.10967742 153.72125,2.59677419 C150.665,1.08274194 147.36875,0.326290323 143.8325,0.326290323 C139.99875,0.326290323 136.5725,1.16290323 133.55375,2.835 C130.535,4.50709677 128.2475,6.79112903 126.6925,9.68370968 C125.1375,12.5785484 124.36,15.6393548 124.36,18.8672581 Z M129.915,18.7927419 C129.915,14.3601613 131.23375,10.8680645 133.8725,8.31758065 C136.51125,5.76709677 139.82125,4.49129032 143.80375,4.49129032 C147.86,4.49129032 151.1975,5.77951613 153.8175,8.35483871 C156.4375,10.9301613 157.74875,14.5848387 157.74875,19.318871 C157.74875,22.3130645 157.18875,24.9256452 156.0675,27.158871 C154.9475,29.3920968 153.30875,31.1229032 151.15125,32.3524194 C148.9925,33.5819355 146.5725,34.1972581 143.88625,34.1972581 C140.07125,34.1972581 136.79,33.0140323 134.04,30.6464516 C131.29,28.28 129.915,24.3283871 129.915,18.7927419 Z" id="Shape" fill-rule="nonzero"></path>
                    <polygon id="Path" points="180.61875 0.954032258 180.61875 33.3945161 167.20125 33.3945161 167.20125 37.7356452 199.48 37.7356452 199.48 33.3945161 186.0075 33.3945161 186.0075 0.954032258"></polygon>
                    <polygon id="Path" points="217.65375 0.954032258 217.65375 33.3945161 204.2375 33.3945161 204.2375 37.7356452 236.51625 37.7356452 236.51625 33.3945161 223.04375 33.3945161 223.04375 0.954032258"></polygon>
                    <polygon id="Path" points="245.58125 0.954032258 245.58125 37.7356452 275.025 37.7356452 275.025 33.3945161 250.96875 33.3945161 250.96875 22.1290323 273.4975 22.1290323 273.4975 17.813871 250.96875 17.813871 250.96875 5.29403226 275.96875 5.29403226 275.96875 0.952903226 245.58125 0.952903226"></polygon>
                </g>
                <g transform="translate(64.750000, 14.677419)">
                    <path d="M149.58,78.2137097 L178.02375,78.2137097 C185.3025,78.2137097 188.745,74.758871 190.3525,71.8606452 C192.1,68.7095161 192.12125,65.5120968 192.12125,65.4804839 C192.12125,65.4183871 192.1775,65.3675806 192.24625,65.3675806 C192.315,65.3675806 192.37125,65.4183871 192.37125,65.4804839 C192.37125,65.6080645 192.5325,78.2137097 206.46875,78.2137097 L234.9125,78.2137097 C242.39625,78.2137097 248.65,80.8319355 253,85.783871 C257.01625,90.3587097 259.23,96.8348387 259.23,104.017742 L259.23,212.552742 C259.23,212.614839 259.17375,212.665645 259.105,212.665645 L125.09,212.665645 C125.02125,212.665645 124.965,212.614839 124.965,212.552742 L124.965,104.017742 C124.965,96.8619355 127.2325,90.3858065 131.35,85.7827419 C135.78,80.8319355 142.08375,78.2137097 149.58,78.2137097 Z M125.215,212.439839 L258.98125,212.439839 L258.98125,104.017742 C258.98125,88.7182258 249.30875,78.4395161 234.915,78.4395161 L206.47125,78.4395161 C195.08125,78.4395161 192.7325,70.1670968 192.24875,66.8409677 C191.765,70.1670968 189.41625,78.4395161 178.02625,78.4395161 L149.5825,78.4395161 C135.00875,78.4395161 125.21625,88.7193548 125.21625,104.017742 L125.215,212.439839 Z" id="Shape" fill="#231F20" fill-rule="nonzero"></path>
                    <path d="M246.86375,146.217581 C247.16875,145.802097 247.44125,145.36629 247.69,144.919194 C248.60875,146.761774 249.13875,148.747742 249.13875,150.714516 C249.13875,154.670645 246.92,158.859355 243.64875,161.158065 C246.92,163.444355 249.13875,167.631935 249.13875,171.589194 C249.13875,175.545323 246.92,178.924516 243.64875,181.223226 C246.92,183.523065 249.13875,186.901129 249.13875,190.857258 C249.13875,197.768065 242.7675,203.381613 234.91625,203.381613 C230.735,203.381613 227.065,201.724194 224.4625,199.206452 C221.86,202.084355 218.04875,204.024032 213.5825,204.024032 C209.245,204.024032 205.50375,202.199516 202.8875,199.47629 C200.285,202.211935 196.55875,204.024032 192.24875,204.024032 C187.925,204.024032 184.185,202.199516 181.5825,199.451452 C178.965,202.200645 175.225,204.024032 170.91625,204.024032 C166.5925,204.024032 162.8525,202.199516 160.25,199.451452 C157.6325,202.200645 153.8925,204.024032 149.58375,204.024032 C141.71875,204.024032 135.36125,198.281774 135.36125,191.177903 C135.36125,187.286129 137.395,183.906935 140.42375,181.543871 C137.395,179.193226 135.36125,175.814032 135.36125,171.909839 C135.36125,168.018065 137.395,164.638871 140.42375,162.275806 C137.395,159.925161 135.36125,156.547097 135.36125,152.641774 C135.36125,150.357742 136.02375,147.880645 137.18125,145.569516 C137.3225,145.789677 137.4675,146.007581 137.6225,146.21871 L246.86375,146.217581 Z M192.25,165.49129 C205.49125,165.49129 216.5125,173.699355 219.685,184.760484 C220.2825,182.692097 220.695,180.572903 220.695,178.337419 C220.695,164.155645 207.96625,152.645161 192.25,152.645161 C176.54875,152.645161 163.805,164.154516 163.805,178.337419 C163.805,180.572903 164.2175,182.692097 164.8,184.760484 C167.98625,173.699355 179.00875,165.49129 192.25,165.49129 Z" id="Shape" fill="#171796" fill-rule="nonzero"></path>
                    <path d="M135.34625,100.935484 C135.34625,94.0246774 141.7175,88.411129 149.5825,88.411129 C153.84875,88.411129 157.6325,90.1069355 160.24875,92.7274194 C162.85125,90.1069355 166.635,88.411129 170.915,88.411129 C175.18125,88.411129 178.965,90.1069355 181.58125,92.7274194 C184.18375,90.1069355 187.9675,88.411129 192.2475,88.411129 C196.51375,88.411129 200.2975,90.1069355 202.91375,92.7274194 C205.51625,90.1069355 209.3,88.411129 213.58,88.411129 C217.84625,88.411129 221.63,90.1069355 224.24625,92.7274194 C226.84875,90.1069355 230.6325,88.411129 234.9125,88.411129 C242.76375,88.411129 249.135,94.0246774 249.135,100.935484 C249.135,104.840806 247.0725,108.270806 243.8875,110.569516 C247.07375,112.869355 249.135,116.299355 249.135,120.203548 C249.135,124.107742 247.0725,127.538871 243.8875,129.837581 C247.07375,132.137419 249.135,135.56629 249.135,139.471613 C249.135,141.430484 248.6025,143.274194 247.68625,144.916935 C247.43625,145.364032 247.16375,145.799839 246.86,146.215323 L137.61875,146.215323 C137.46375,146.004194 137.31875,145.78629 137.1775,145.566129 C136.02375,143.767581 135.34375,141.692419 135.34375,139.471613 C135.34375,135.56629 137.42,132.13629 140.59125,129.837581 C137.42,127.537742 135.34375,124.107742 135.34375,120.203548 C135.34375,116.299355 137.42,112.868226 140.59125,110.569516 C137.42375,108.270806 135.34625,104.840806 135.34625,100.935484 Z M176.16625,118.899516 C180.2475,116.780323 182.92125,114.057097 182.14,112.823065 C181.34375,111.602581 177.40375,112.321774 173.3225,114.442097 C171.9,115.199677 170.73375,116.009194 169.73875,116.81871 C170.00875,115.636613 170.2075,114.326935 170.2075,112.824194 C170.2075,108.559839 168.9275,105.11629 167.3625,105.11629 C165.78375,105.11629 164.5175,108.55871 164.5175,112.824194 C164.5175,114.326935 164.71625,115.637742 164.98625,116.81871 C163.99125,116.022742 162.825,115.199677 161.3875,114.454516 C157.30625,112.321774 153.3525,111.602581 152.57,112.823065 C151.7875,114.043548 154.46125,116.766774 158.54375,118.899516 C159.98,119.644677 161.345,120.158387 162.61125,120.530968 C161.345,120.903548 159.98,121.417258 158.54375,122.162419 C154.4625,124.295161 151.78875,127.004839 152.57,128.238871 C153.3525,129.459355 157.30625,128.740161 161.3875,126.607419 C162.82375,125.862258 163.99,125.040323 164.98625,124.243226 C164.71625,125.425323 164.5175,126.735 164.5175,128.237742 C164.5175,132.502097 165.78375,135.945645 167.3625,135.945645 C168.9275,135.945645 170.2075,132.503226 170.2075,128.237742 C170.2075,126.735 170.00875,125.424194 169.73875,124.243226 C170.73375,125.052742 171.88625,125.862258 173.3225,126.607419 C177.40375,128.740161 181.34375,129.459355 182.14,128.238871 C182.9225,127.005968 180.24875,124.282742 176.16625,122.162419 C174.73,121.417258 173.37875,120.903548 172.1125,120.530968 C173.37875,120.158387 174.73,119.644677 176.16625,118.899516 Z M231.9175,112.823065 C231.12125,111.602581 227.18125,112.321774 223.1,114.442097 C221.6775,115.199677 220.51125,116.009194 219.51625,116.80629 C219.78625,115.624194 219.985,114.314516 219.985,112.824194 C219.985,108.559839 218.705,105.11629 217.14,105.11629 C215.575,105.11629 214.295,108.55871 214.295,112.824194 C214.295,114.326935 214.49375,115.637742 214.76375,116.81871 C213.76875,116.022742 212.6025,115.199677 211.165,114.454516 C207.08375,112.321774 203.13,111.602581 202.3475,112.823065 C201.565,114.043548 204.23875,116.766774 208.32125,118.899516 C209.7575,119.644677 211.10875,120.158387 212.38875,120.530968 C211.10875,120.903548 209.7575,121.417258 208.32125,122.162419 C204.24,124.295161 201.56625,127.004839 202.3475,128.238871 C203.13,129.459355 207.08375,128.740161 211.165,126.607419 C212.60125,125.862258 213.7675,125.040323 214.76375,124.243226 C214.49375,125.425323 214.295,126.735 214.295,128.237742 C214.295,132.502097 215.575,135.945645 217.14,135.945645 C218.705,135.945645 219.985,132.503226 219.985,128.237742 C219.985,126.747419 219.78625,125.424194 219.51625,124.243226 C220.51125,125.052742 221.6775,125.862258 223.1,126.607419 C227.18125,128.740161 231.12125,129.459355 231.9175,128.238871 C232.7,127.005968 230.02625,124.282742 225.94375,122.162419 C224.52125,121.417258 223.15625,120.903548 221.89,120.530968 C223.15625,120.158387 224.52125,119.644677 225.94375,118.899516 C230.02625,116.779194 232.71375,114.055968 231.9175,112.823065 Z" id="Shape" fill="#D42E11" fill-rule="nonzero"></path>
                    <path d="M163.805,178.337419 C163.805,164.155645 176.5475,152.645161 192.25,152.645161 C207.965,152.645161 220.695,164.154516 220.695,178.337419 C220.695,180.572903 220.2825,182.692097 219.685,184.760484 C216.51375,173.700484 205.49125,165.49129 192.25,165.49129 C179.00875,165.49129 167.98625,173.699355 164.80125,184.760484 C164.2175,182.692097 163.805,180.571774 163.805,178.337419 Z" id="Path" fill="#EEEEEE"></path>
                    <g transform="translate(151.250000, 105.000000)" fill="#FFAC33" id="Path">
                        <path d="M30.89,23.2377419 C30.09375,24.4582258 26.15375,23.7390323 22.0725,21.6062903 C20.63625,20.861129 19.48375,20.0516129 18.48875,19.2420968 C18.75875,20.4241935 18.9575,21.733871 18.9575,23.2366129 C18.9575,27.5009677 17.6775,30.9445161 16.1125,30.9445161 C14.53375,30.9445161 13.2675,27.5020968 13.2675,23.2366129 C13.2675,21.733871 13.46625,20.4230645 13.73625,19.2420968 C12.74125,20.0380645 11.575,20.861129 10.1375,21.6062903 C6.05625,23.7390323 2.1025,24.4582258 1.32,23.2377419 C0.5375,22.0048387 3.21125,19.2940323 7.29375,17.1612903 C8.73,16.416129 10.095,15.9024194 11.36125,15.5298387 C10.095,15.1572581 8.73,14.6435484 7.29375,13.8983871 C3.2125,11.7656452 0.53875,9.04241935 1.32,7.82193548 C2.1025,6.60145161 6.05625,7.32064516 10.1375,9.4533871 C11.57375,10.1985484 12.74,11.0204839 13.73625,11.8175806 C13.46625,10.6354839 13.2675,9.32580645 13.2675,7.82306452 C13.2675,3.55870968 14.53375,0.11516129 16.1125,0.11516129 C17.6775,0.11516129 18.9575,3.55758065 18.9575,7.82306452 C18.9575,9.32580645 18.75875,10.6366129 18.48875,11.8175806 C19.48375,11.0080645 20.65,10.1985484 22.0725,9.44096774 C26.15375,7.32177419 30.09375,6.60145161 30.89,7.82193548 C31.6725,9.05483871 28.99875,11.7780645 24.91625,13.8983871 C23.48,14.6435484 22.12875,15.1572581 20.8625,15.5298387 C22.12875,15.9024194 23.48,16.416129 24.91625,17.1612903 C28.9975,19.2816129 31.67125,22.0048387 30.89,23.2377419 Z"></path>
                        <path d="M74.69375,13.8995161 C73.27125,14.6446774 71.90625,15.1583871 70.64,15.5309677 C71.90625,15.9035484 73.27125,16.4172581 74.69375,17.1624194 C78.775,19.2816129 81.44875,22.0048387 80.6675,23.238871 C79.87125,24.4593548 75.93125,23.7401613 71.85,21.6074194 C70.4275,20.8622581 69.26125,20.0527419 68.26625,19.2432258 C68.53625,20.4253226 68.735,21.7485484 68.735,23.2377419 C68.735,27.5020968 67.455,30.9456452 65.89,30.9456452 C64.325,30.9456452 63.045,27.5032258 63.045,23.2377419 C63.045,21.735 63.24375,20.4241935 63.51375,19.2432258 C62.51875,20.0391935 61.3525,20.8622581 59.915,21.6074194 C55.83375,23.7401613 51.88,24.4593548 51.0975,23.238871 C50.315,22.0059677 52.98875,19.2951613 57.07125,17.1624194 C58.5075,16.4172581 59.85875,15.9035484 61.13875,15.5309677 C59.85875,15.1583871 58.5075,14.6446774 57.07125,13.8995161 C52.99,11.7667742 50.31625,9.04354839 51.0975,7.82306452 C51.88,6.60258065 55.83375,7.32177419 59.915,9.45451613 C61.35125,10.1996774 62.5175,11.0216129 63.51375,11.8187097 C63.24375,10.6366129 63.045,9.32693548 63.045,7.82419355 C63.045,3.55983871 64.325,0.116290323 65.89,0.116290323 C67.455,0.116290323 68.735,3.55870968 68.735,7.82419355 C68.735,9.31451613 68.53625,10.6241935 68.26625,11.8062903 C69.26125,11.0103226 70.4275,10.2008065 71.85,9.44209677 C75.93125,7.32290323 79.87125,6.60258065 80.6675,7.82306452 C81.46375,9.05596774 78.77625,11.7791935 74.69375,13.8995161 Z"></path>
                    </g>
                    <path d="M111.86125,34.6533871 C100.91,32.4054839 66.82,15.7319355 66.82,15.7319355 L74.94125,0.176129032 C74.94125,0.176129032 84.655,4.71032258 91.22625,7.2416129 C97.29625,9.60354839 112.9725,16.0480645 121.48375,16.3495161 C121.69875,15.7229032 121.9325,15.0477419 122.19125,14.3104839 C124.38125,8.09290323 130.34,8.37516129 137.21,11.4845161 C144.09375,14.6062903 154.10625,16.5719355 163.5075,16.5719355 L194.46875,16.5719355 L194.78125,16.5719355 L225.7575,16.5719355 C235.15875,16.5719355 245.17125,14.6062903 252.04,11.4845161 C258.92375,8.37629032 264.86875,8.09290323 267.0725,14.3104839 C267.33,15.0477419 267.5625,15.7229032 267.77625,16.3495161 C276.2925,16.0525806 291.955,9.60354839 298.04,7.2416129 C304.61125,4.71145161 314.325,0.176129032 314.325,0.176129032 L322.44625,15.7319355 C322.44625,15.7319355 288.355,32.4054839 277.37625,34.6533871 C269.42,36.2983871 260.63625,36.8922581 258.35625,34.4896774 C258.6925,33.913871 260.11375,31.8217742 263.77375,30.3179032 C267.5,28.7891935 271.18375,26.0783871 270.1875,24.2030645 C270.1875,24.2019355 270.18625,24.2019355 270.18625,24.2008065 C266.03625,24.0924194 261.15125,27.1283871 255.65125,29.8087097 C253.405,30.903871 251.05875,31.9414516 248.61375,32.6787097 C240.15125,35.2224194 217.0125,36.6483871 209.48875,36.6483871 L194.7825,36.6483871 L194.47,36.6483871 L179.76375,36.6483871 C172.255,36.6483871 149.115,35.2224194 140.6525,32.6787097 C138.2025,31.9414516 135.8525,30.903871 133.6025,29.8087097 C128.095,27.1283871 123.21,24.0935484 119.08125,24.2008065 C119.08125,24.2019355 119.08,24.2019355 119.08,24.2030645 C118.085,26.0783871 121.7675,28.7891935 125.49375,30.3179032 C129.1575,31.8240323 130.5675,33.9183871 130.89875,34.4919355 C128.61625,36.8922581 119.83625,36.2972581 111.86125,34.6533871 Z M194.78125,30.6091935 L236.7225,30.6091935 L236.7225,20.088871 L194.78125,20.088871 L194.78125,30.6091935 Z M157.90375,30.6091935 L182.49375,30.6091935 L182.49375,20.088871 L157.90375,20.088871 L157.90375,30.6091935 Z" id="Shape" fill="#CCD6DD" fill-rule="nonzero"></path>
                    <g transform="translate(118.750000, 23.709677)" fill="#66757F" id="Path">
                        <path d="M6.74125,6.60822581 C3.015,5.07951613 -0.66875,2.36870968 0.3275,0.493387097 C0.3275,0.492258065 0.32875,0.492258065 0.32875,0.491129032 C4.45875,0.383870968 9.34375,3.41758065 14.85,6.09903226 C13.46375,8.82903226 12.23,10.9380645 12.23,10.9380645 C12.23,10.9380645 12.20125,10.8793548 12.145,10.7833871 C11.815,10.2087097 10.405,8.11435484 6.74125,6.60822581 Z"></path>
                        <path d="M151.435,0.491129032 C151.435,0.492258065 151.43625,0.492258065 151.43625,0.493387097 C152.43125,2.36870968 148.74875,5.07951613 145.0225,6.60822581 C141.3625,8.11322581 139.94125,10.2041935 139.605,10.78 C139.5475,10.8770968 139.51875,10.9369355 139.51875,10.9369355 C139.51875,10.9369355 138.285,8.82903226 136.9,6.09903226 C142.4,3.41758065 147.28375,0.382741935 151.435,0.491129032 Z"></path>
                    </g>
                    <g transform="translate(153.750000, 18.064516)" fill="#99AAB5" id="Rectangle">
                        <rect x="1.075" y="0.711290323" width="30.7375" height="13.1509677"></rect>
                        <rect x="35.7875" y="0.711290323" width="52.42625" height="13.1509677"></rect>
                    </g>
                    <g transform="translate(0.000000, 47.419355)" fill="#CCD6DD" id="Path">
                        <path d="M2.85125,112.458387 C0.135,114.385645 -1.30125,96.6575806 13.5175,82.7456452 C28.3225,68.8337097 54.40625,65.4804839 54.40625,65.4804839 L61.06125,77.1129032 C58.39875,79.0469355 55.69375,80.6817742 53.065,81.9451613 C38.955,88.7125806 29.22875,102.202258 20.82625,112.600645 C22.60875,109.792742 23.885,107.370968 23.885,107.370968 C23.885,107.370968 9.06625,108.039355 2.85125,112.458387 Z"></path>
                        <path d="M52.92375,7.27209677 C62.365,7.27209677 70.52375,11.5341935 76.06875,18.2033871 C70.09125,11.2733871 61.21125,7.2766129 52.9275,7.2766129 C38.705,7.2766129 27.29875,21.0474194 27.29875,30.1553226 C27.29875,34.5924194 28.6725,39.0870968 31.31125,42.5791935 C29.04375,40.076129 26.84,36.4496774 26.84,31.7698387 C26.84,22.1346774 35.2875,7.27209677 52.92375,7.27209677 Z"></path>
                        <path d="M79.32375,56.3195161 C81.7975,50.7827419 83.15,44.5369355 83.15,37.2456452 C83.15,33.9782258 82.6275,30.9219355 81.69875,28.0993548 C83.01,31.7483871 83.72875,35.6954839 83.72875,39.7972581 C83.72875,45.4232258 82.05625,51.0458065 79.32375,56.3195161 Z"></path>
                        <path d="M23.74,119.674032 C31.2925,112.455 47.7325,100.007419 59.73625,89.1653226 C71.74,78.3232258 89.5175,58.2580645 89.5175,39.7983871 C89.5175,21.3262903 79.29125,4.45967742 51.74375,4.45967742 C33.07,4.45967742 21.76375,21.8783871 23.74,32.5669355 C25.5675,42.49 32.82125,45.5982258 35.325,46.3862903 C37.6525,47.9330645 40.465,48.9040323 43.74125,49.0259677 C49.06,49.2314516 53.5125,45.4164516 51.29375,43.0014516 C47.88,39.3016129 52.16125,33.74 56.6275,41.7945161 C57.96375,44.2095161 54.40875,53.8435484 43.2875,53.8435484 C33.9575,53.8435484 19.295,44.8767742 19.295,30.1553226 C19.295,15.4462903 31.29875,0.456129032 53.51375,0.456129032 C91.445,0.456129032 100.91625,20.9198387 105.06875,51.4285484 C109.22125,81.9508065 96.18,104.02 79.59625,115.927903 C65.55875,125.998871 63.49625,120.41129 46.8425,128.504194 C35.29375,134.13129 41.06875,150.728065 41.06875,150.728065 C38.7075,135.736774 57.06875,131.986129 57.06875,131.986129 C58.84625,128.775161 66.555,133.591613 66.555,133.591613 C66.555,133.591613 81.51625,123.430323 90.40625,122.890645 C99.295,122.350968 100.33375,130.379516 90.8475,133.064355 C81.375,135.736774 81.95875,149.121452 81.95875,149.121452 L83.15375,155.004839 C84.33375,160.888226 72.62875,166.245484 73.07,163.842903 C74.09375,158.319677 65.95875,158.614355 63.29875,162.237419 C61.47875,164.678387 63,171.063065 70.11125,172.668548 C77.2225,174.274032 83.73625,173.734355 76.0425,177.486129 C68.33375,181.236774 54.11125,176.420323 54.11125,176.420323 L42.26375,167.852097 L28.18375,171.063065 C28.18375,171.063065 31.29875,168.121935 33.07625,163.844032 C34.85375,159.566129 28.625,156.611452 26.26375,160.889355 C23.88875,165.167258 14.26,161.159194 7.74625,147.786935 C1.21875,134.401129 9.66625,122.891774 13.81875,120.746613 C15.9575,119.64129 18.56375,116.127742 20.58875,112.978871 C20.18125,114.306613 16.5925,126.518226 23.74,119.674032 Z"></path>
                    </g>
                    <path d="M53.06625,129.364516 C55.695,128.101129 58.4,126.46629 61.0625,124.532258 C68.2175,119.335323 75.06375,111.962742 79.325,103.738871 C82.0575,98.4651613 83.73,92.8425806 83.73,87.2177419 C83.73,83.1159677 83.01125,79.168871 81.7,75.5198387 C80.3875,71.8685484 78.4775,68.5187097 76.07,65.623871 C70.52375,58.9558065 62.36625,54.6925806 52.925,54.6925806 C35.29,54.6925806 26.84125,69.5551613 26.84125,79.1891935 C26.84125,83.8679032 29.04625,87.4943548 31.3125,89.9985484 C33.71375,92.6495161 36.185,94.0393548 36.185,94.0393548 C36.185,94.0393548 35.8625,93.975 35.325,93.8056452 C32.82125,93.0175806 25.5675,89.9093548 23.74,79.9862903 C21.7625,69.298871 33.07,51.8790323 51.74375,51.8790323 C79.2925,51.8790323 89.5175,68.7456452 89.5175,87.2177419 C89.5175,105.677419 71.74,125.742581 59.73625,136.584677 C47.7325,147.426774 31.29125,159.874355 23.74,167.093387 C16.59375,173.937581 20.18125,161.727097 20.5875,160.395968 C20.61,160.320323 20.625,160.272903 20.625,160.272903 C20.69125,160.190484 20.76,160.104677 20.82625,160.022258 C29.22875,149.621613 38.955,136.131935 53.06625,129.364516 Z" id="Path" fill="#99AAB5"></path>
                    <g transform="translate(277.500000, 47.419355)" fill="#CCD6DD" id="Path">
                        <path d="M103.33,112.458387 C97.115,108.039355 82.295,107.370968 82.295,107.370968 C82.295,107.370968 83.57375,109.797258 85.36125,112.609677 C76.9575,102.210161 67.22875,88.7137097 53.115,81.9451613 C50.48625,80.6817742 47.78125,79.0469355 45.11875,77.1129032 L51.77375,65.4804839 C51.77375,65.4804839 77.8425,68.8337097 92.6625,82.7456452 C107.4825,96.6575806 106.04625,114.384516 103.33,112.458387 Z"></path>
                        <path d="M24.58625,27.8125806 C23.5975,30.7130645 23.045,33.8675806 23.045,37.2456452 C23.045,44.6114516 24.42625,50.9103226 26.9475,56.488871 C24.1625,51.1654839 22.4525,45.4830645 22.4525,39.7972581 C22.4525,35.5882258 23.2075,31.5406452 24.58625,27.8125806 Z"></path>
                        <path d="M24.75625,27.3462903 C24.77,27.3112903 24.7825,27.2751613 24.79625,27.2401613 C24.7825,27.2751613 24.76875,27.3101613 24.75625,27.3462903 Z"></path>
                        <path d="M82.44125,32.5658065 C84.4175,21.8783871 73.11125,4.45854839 54.4375,4.45854839 C26.88875,4.45854839 16.66375,21.3251613 16.66375,39.7972581 C16.66375,58.2569355 34.44125,78.3220968 46.445,89.1641935 C58.44875,100.00629 74.89,112.453871 82.44125,119.672903 C89.5975,126.527258 85.99,114.272742 85.5925,112.969839 C87.62,116.119839 90.23125,119.636774 92.37875,120.743226 C96.5175,122.888387 104.965,134.398871 98.4375,147.783548 C91.9375,161.155806 82.295,165.163871 79.935,160.885968 C77.56,156.608065 71.33,159.562742 73.10875,163.840645 C74.88625,168.118548 78.00125,171.059677 78.00125,171.059677 L63.935,167.84871 L52.07375,176.416935 C52.07375,176.416935 37.85125,181.234516 30.1575,177.482742 C22.44875,173.732097 28.9625,174.271774 36.07375,172.665161 C43.185,171.059677 44.70625,164.675 42.88625,162.234032 C40.22625,158.610968 32.10625,158.31629 33.115,163.839516 C33.55625,166.242097 21.85125,160.884839 23.04625,155.001452 L24.22625,149.118065 C24.22625,149.118065 24.82375,135.732258 15.3375,133.060968 C5.85125,130.376129 6.89,122.347581 15.77875,122.887258 C24.6675,123.426935 39.63,133.588226 39.63,133.588226 C39.63,133.588226 47.33875,128.770645 49.11625,131.982742 C49.11625,131.982742 67.49125,135.733387 65.11625,150.724677 C65.11625,150.724677 70.89,134.127903 59.3425,128.500806 C42.68875,120.407903 40.62625,125.995484 26.6025,115.924516 C10.005,104.016613 -3.03625,81.9474194 1.11625,51.4251613 C5.26875,20.9164516 14.74125,0.452741935 52.67125,0.452741935 C74.88625,0.452741935 86.89,15.4440323 86.89,30.1519355 C86.89,44.8733871 72.2275,53.8401613 62.8975,53.8401613 C51.77625,53.8401613 48.22,44.206129 49.5575,41.791129 C54.02375,33.7366129 58.30375,39.2993548 54.89125,42.9980645 C52.6725,45.4130645 57.12375,49.2280645 62.44375,49.0225806 C65.72,48.9006452 68.5325,47.9296774 70.86,46.3829032 C73.36125,45.5970968 80.61375,42.488871 82.44125,32.5658065 Z"></path>
                        <path d="M53.27125,7.27209677 C70.8925,7.27209677 79.34,22.1346774 79.34,31.7687097 C79.34,36.4474194 77.135,40.073871 74.86875,42.5769355 C77.5075,39.0848387 78.88125,34.5901613 78.88125,30.1541935 C78.88125,21.0462903 67.48875,7.27548387 53.2675,7.27548387 C44.9125,7.27548387 35.9475,11.34 29.97,18.3817742 C35.52,11.6120968 43.74,7.27209677 53.27125,7.27209677 Z"></path>
                    </g>
                    <path d="M362.86125,160.029032 C362.92625,160.109194 362.99125,160.191613 363.05625,160.271774 C363.05625,160.271774 363.07125,160.318065 363.0925,160.390323 C363.49,161.692097 367.09875,173.946613 359.94125,167.093387 C352.38875,159.874355 335.94875,147.426774 323.945,136.584677 C311.94125,125.742581 294.16375,105.677419 294.16375,87.2177419 C294.16375,68.7456452 304.39,51.8790323 331.9375,51.8790323 C350.61125,51.8790323 361.9175,69.2977419 359.94125,79.9862903 C358.11375,89.9093548 350.86125,93.0175806 348.35625,93.8056452 C347.82,93.975 347.49625,94.0393548 347.49625,94.0393548 C347.49625,94.0393548 349.9675,92.6495161 352.36875,89.9974194 C354.63625,87.4943548 356.84,83.8679032 356.84,79.1891935 C356.84,69.5551613 348.3925,54.6925806 330.77125,54.6925806 C321.23875,54.6925806 313.02,59.0325806 307.47,65.8022581 C305.3175,68.4272581 303.56375,71.4135484 302.29625,74.6606452 C302.2825,74.6956452 302.27,74.7306452 302.25625,74.7667742 C302.19625,74.9203226 302.14375,75.0783871 302.08625,75.2330645 C300.7075,78.961129 299.95125,83.0087097 299.95125,87.2177419 C299.95125,92.9035484 301.66125,98.5859677 304.44625,103.909355 C308.71375,112.065484 315.51375,119.372581 322.61875,124.533387 C325.28125,126.467419 327.98625,128.102258 330.615,129.365645 C344.72875,136.134194 354.4575,149.629516 362.86125,160.029032 Z" id="Path" fill="#99AAB5"></path>
                </g>
            </g>
        </g>
    </g>
</svg>